{
DisplayStrings = (
DEFGHIJKLMNOPQRSTUVWXYZabcdefghijklmnopqrstuvwxyz
);
classes = (
{
automatic = 1;
code = "A Aacute Abreve Acircumflex Adieresis Agrave Amacron Aogonek Aring Atilde AE B C Cacute Ccaron Ccedilla Ccircumflex D Eth Dcaron Dcroat E Eacute Ecaron Ecircumflex Edieresis Edotaccent Egrave Emacron Eogonek F G Gcircumflex Gcommaaccent H Hcircumflex I Iacute Icircumflex Idieresis Igrave Imacron Iogonek J Jcircumflex K Kcommaaccent L Lacute Lcaron Lcommaaccent Lslash M N Nacute Ncaron Ncommaaccent Eng Ntilde O Oacute Ocircumflex Odieresis Ograve Ohungarumlaut Omacron Oslash Otilde OE P Thorn Q R Racute Rcaron Rcommaaccent S Sacute Scaron Scedilla Scircumflex Germandbls T Tbar Tcaron Tcedilla U Uacute Ubreve Ucircumflex Udieresis Ugrave Uhungarumlaut Umacron Uogonek Uring V W Wacute Wcircumflex Wdieresis Wgrave X Y Yacute Ycircumflex Ydieresis Ygrave Z Z.ss01 Zacute Zcaron Zdotaccent";
name = Uppercase;
}
);
date = "2015-12-01 10:15:36 +0000";
designer = "Mirco Monsees";
designerURL = mircomonsees.com;
familyName = "Project Gin";
featurePrefixes = (
{
automatic = 1;
code = "languagesystem DFLT dflt;\012languagesystem latn dflt;\012";
name = Languagesystems;
}
);
features = (
{
automatic = 1;
code = "feature ccmp;\012feature lnum;\012feature onum;\012feature case;\012feature salt;\012feature ss01;\012feature calt;\012";
name = aalt;
},
{
automatic = 1;
code = "lookup latn_decomb {\012\011script latn;\012@CombiningTopAccents = [acutecomb brevecomb caroncomb circumflexcomb commaturnedabovecomb dieresiscomb dotaccentcomb gravecomb hungarumlautcomb macroncomb ringcomb tildecomb];\012@CombiningNonTopAccents = [cedillacomb ogonekcomb slashlongcomb slashshortcomb strokeshortcomb];\012\011sub [i j]' @CombiningTopAccents by [idotless jdotless];\012\011sub [i j]' @CombiningNonTopAccents @CombiningTopAccents by [idotless jdotless];\012} latn_decomb;\012";
name = ccmp;
},
{
automatic = 1;

glyphs = (
{
glyphname = A;
lastChange = "2015-12-01 10:56:48 +0000";
layers = (
{
anchors = (
{
name = bottom;
position = "{330, 0}";
},
{
name = ogonek;
position = "{614, 10}";
},
{
name = top;
position = "{378, 647}";
}
);
background = {
paths = (
{
closed = 1;
nodes = (
"275 337 LINE",
"312 243 OFFCURVE",
"361 130 OFFCURVE",
"383 82 CURVE SMOOTH",
"388 71 OFFCURVE",
"400 59 OFFCURVE",
"423 49 CURVE",
"343 49 LINE",
"338 0 LINE",
"605 0 LINE",
"610 47 LINE",
"562 55 LINE",
"494 158 OFFCURVE",
"416 314 OFFCURVE",
"374 399 CURVE"
);
},
{
closed = 1;
nodes = (
"453 562 OFFCURVE",
"370 442 OFFCURVE",
"328 392 CURVE",
"363 316 LINE",
"431 409 OFFCURVE",
"557 586 OFFCURVE",
"586 615 CURVE SMOOTH",
"610 639 OFFCURVE",
"634 650 OFFCURVE",
"661 650 CURVE",
"666 700 LINE",
"432 700 LINE",
"427 653 LINE",
"481 645 LINE"
);
},
{
closed = 1;
nodes = (
"210 113 OFFCURVE",
"299 253 OFFCURVE",
"330 303 CURVE",
"281 368 LINE",
"221 275 OFFCURVE",
"110 112 OFFCURVE",
"79 85 CURVE SMOOTH",
"51 61 OFFCURVE",
"27 50 OFFCURVE",
"0 50 CURVE",
"-5 0 LINE",
"218 0 LINE",
"223 47 LINE",
"176 55 LINE"
);
},
{
closed = 1;
nodes = (
"373 390 LINE",
"332 474 OFFCURVE",
"306 522 OFFCURVE",
"286 574 CURVE SMOOTH",
"272 610 OFFCURVE",
"258 651 OFFCURVE",
"317 651 CURVE",
"322 700 LINE",
"65 700 LINE",
"60 653 LINE",
"107 643 LINE",
"180 505 OFFCURVE",
"239 390 OFFCURVE",
"270 323 CURVE"
);
}
);
};
layerId = "71FD7A9F-05F5-4D76-8D4F-547475A05E4C";
name = "Bold Italic";
paths = (
{
closed = 1;
nodes = (
"327 695 LINE",
"330 683 OFFCURVE",
"346 649 OFFCURVE",
"352 620 CURVE",
"387 458 OFFCURVE",
"462 104 OFFCURVE",
"465 95 CURVE SMOOTH",
"470 78 OFFCURVE",
"490 64 OFFCURVE",
"513 57 CURVE",
"422 57 LINE",
"418 0 LINE",
"671 0 LINE",
"680 54 LINE",
"628 66 LINE",
"592 128 OFFCURVE",
"475 620 OFFCURVE",
"456 710 CURVE"
);
},
{
closed = 1;
nodes = (
"164 206 LINE",
"479 205 LINE",
"480 278 LINE",
"175 280 LINE"
);
},
{
closed = 1;
nodes = (
"191 129 OFFCURVE",
"319 398 OFFCURVE",
"374 558 CURVE SMOOTH",
"406 651 OFFCURVE",
"410 639 OFFCURVE",
"452 707 CURVE",
"327 695 LINE",
"274 525 OFFCURVE",
"141 206 OFFCURVE",
"96 126 CURVE SMOOTH",
"61 64 OFFCURVE",
"34 57 OFFCURVE",
"5 57 CURVE",
"0 0 LINE",
"227 1 LINE",
"235 54 LINE",
"185 66 LINE"
);
}
);
width = 710;
},
{
layerId = "11343128-4963-4E5D-BE9C-B74F53B36FA5";
name = Bold;
paths = (
{
closed = 1;
nodes = (
"303 695 LINE",
"307 683 OFFCURVE",
"325 649 OFFCURVE",
"333 620 CURVE",
"380 458 OFFCURVE",
"480 104 OFFCURVE",
"483 95 CURVE SMOOTH",
"489 78 OFFCURVE",
"510 64 OFFCURVE",
"534 57 CURVE",
"443 57 LINE",
"443 0 LINE",
"696 0 LINE",
"701 54 LINE",
"648 66 LINE",
"608 128 OFFCURVE",
"456 620 OFFCURVE",
"431 710 CURVE"
);
},
{
closed = 1;
nodes = (
"174 206 LINE",
"489 205 LINE",
"485 278 LINE",
"180 280 LINE"
);
},
{
closed = 1;
nodes = (
"207 129 OFFCURVE",
"316 398 OFFCURVE",
"360 558 CURVE SMOOTH",
"385 651 OFFCURVE",
"390 639 OFFCURVE",
"427 707 CURVE",
"303 695 LINE",
"262 525 OFFCURVE",
"151 206 OFFCURVE",
"112 126 CURVE SMOOTH",
"81 64 OFFCURVE",
"55 57 OFFCURVE",
"26 57 CURVE",
"25 0 LINE",
"252 1 LINE",
"256 54 LINE",
"205 66 LINE"
);
}
);
width = 726;
}
);
leftKerningGroup = A;
rightKerningGroup = A;
unicode = 0041;
},
{
glyphname = A.001;
lastChange = "2015-12-01 10:14:33 +0000";
layers = (
{
anchors = (
{
name = bottom;
position = "{330, 0}";
},
{
name = ogonek;
position = "{614, 10}";
},
{
name = top;
position = "{378, 647}";
}
);
background = {
paths = (
{
closed = 1;
nodes = (
"275 337 LINE",
"312 243 OFFCURVE",
"361 130 OFFCURVE",
"383 82 CURVE SMOOTH",
"388 71 OFFCURVE",
"400 59 OFFCURVE",
"423 49 CURVE",
"343 49 LINE",
"338 0 LINE",
"605 0 LINE",
"610 47 LINE",
"562 55 LINE",
"494 158 OFFCURVE",
"416 314 OFFCURVE",
"374 399 CURVE"
);
},
{
closed = 1;
nodes = (
"453 562 OFFCURVE",
"370 442 OFFCURVE",
"328 392 CURVE",
"363 316 LINE",
"431 409 OFFCURVE",
"557 586 OFFCURVE",
"586 615 CURVE SMOOTH",
"610 639 OFFCURVE",
"634 650 OFFCURVE",
"661 650 CURVE",
"666 700 LINE",
"432 700 LINE",
"427 653 LINE",
"481 645 LINE"
);
},
{
closed = 1;
nodes = (
"210 113 OFFCURVE",
"299 253 OFFCURVE",
"330 303 CURVE",
"281 368 LINE",
"221 275 OFFCURVE",
"110 112 OFFCURVE",
"79 85 CURVE SMOOTH",
"51 61 OFFCURVE",
"27 50 OFFCURVE",
"0 50 CURVE",
"-5 0 LINE",
"218 0 LINE",
"223 47 LINE",
"176 55 LINE"
);
},
{
closed = 1;
nodes = (
"373 390 LINE",
"332 474 OFFCURVE",
"306 522 OFFCURVE",
"286 574 CURVE SMOOTH",
"272 610 OFFCURVE",
"258 651 OFFCURVE",
"317 651 CURVE",
"322 700 LINE",
"65 700 LINE",
"60 653 LINE",
"107 643 LINE",
"180 505 OFFCURVE",
"239 390 OFFCURVE",
"270 323 CURVE"
);
}
);
};
layerId = "71FD7A9F-05F5-4D76-8D4F-547475A05E4C";
name = "Bold Italic";
paths = (
{
closed = 1;
nodes = (
"327 695 LINE",
"330 683 OFFCURVE",
"346 649 OFFCURVE",
"352 620 CURVE",
"387 458 OFFCURVE",
"462 104 OFFCURVE",
"465 95 CURVE SMOOTH",
"470 78 OFFCURVE",
"490 64 OFFCURVE",
"513 57 CURVE",
"422 57 LINE",
"418 0 LINE",
"671 0 LINE",
"680 54 LINE",
"628 66 LINE",
"592 128 OFFCURVE",
"475 620 OFFCURVE",
"456 710 CURVE"
);
},
{
closed = 1;
nodes = (
"164 206 LINE",
"479 205 LINE",
"480 278 LINE",
"175 280 LINE"
);
},
{
closed = 1;
nodes = (
"191 129 OFFCURVE",
"319 398 OFFCURVE",
"374 558 CURVE SMOOTH",
"406 651 OFFCURVE",
"410 639 OFFCURVE",
"452 707 CURVE",
"327 695 LINE",
"274 525 OFFCURVE",
"141 206 OFFCURVE",
"96 126 CURVE SMOOTH",
"61 64 OFFCURVE",
"34 57 OFFCURVE",
"5 57 CURVE",
"0 0 LINE",
"227 1 LINE",
"235 54 LINE",
"185 66 LINE"
);
}
);
width = 710;
},
{
layerId = "11343128-4963-4E5D-BE9C-B74F53B36FA5";
name = Bold;
width = 600;
}
);
leftKerningGroup = A;
rightKerningGroup = A;
},
{
glyphname = A.002;
lastChange = "2015-12-01 10:54:56 +0000";
layers = (
{
anchors = (
{
name = bottom;
position = "{330, 0}";
},
{
name = ogonek;
position = "{614, 10}";
},
{
name = top;
position = "{378, 647}";
}
);
background = {
paths = (
{
closed = 1;
nodes = (
"275 337 LINE",
"312 243 OFFCURVE",
"361 130 OFFCURVE",
"383 82 CURVE SMOOTH",
"388 71 OFFCURVE",
"400 59 OFFCURVE",
"423 49 CURVE",
"343 49 LINE",
"338 0 LINE",
"605 0 LINE",
"610 47 LINE",
"562 55 LINE",
"494 158 OFFCURVE",
"416 314 OFFCURVE",
"374 399 CURVE"
);
},
{
closed = 1;
nodes = (
"453 562 OFFCURVE",
"370 442 OFFCURVE",
"328 392 CURVE",
"363 316 LINE",
"431 409 OFFCURVE",
"557 586 OFFCURVE",
"586 615 CURVE SMOOTH",
"610 639 OFFCURVE",
"634 650 OFFCURVE",
"661 650 CURVE",
"666 700 LINE",
"432 700 LINE",
"427 653 LINE",
"481 645 LINE"
);
},
{
closed = 1;
nodes = (
"210 113 OFFCURVE",
"299 253 OFFCURVE",
"330 303 CURVE",
"281 368 LINE",
"221 275 OFFCURVE",
"110 112 OFFCURVE",
"79 85 CURVE SMOOTH",
"51 61 OFFCURVE",
"27 50 OFFCURVE",
"0 50 CURVE",
"-5 0 LINE",
"218 0 LINE",
"223 47 LINE",
"176 55 LINE"
);
},
{
closed = 1;
nodes = (
"373 390 LINE",
"332 474 OFFCURVE",
"306 522 OFFCURVE",
"286 574 CURVE SMOOTH",
"272 610 OFFCURVE",
"258 651 OFFCURVE",
"317 651 CURVE",
"322 700 LINE",
"65 700 LINE",
"60 653 LINE",
"107 643 LINE",
"180 505 OFFCURVE",
"239 390 OFFCURVE",
"270 323 CURVE"
);
}
);
};
layerId = "71FD7A9F-05F5-4D76-8D4F-547475A05E4C";
name = "Bold Italic";
paths = (
{
closed = 1;
nodes = (
"327 695 LINE",
"330 683 OFFCURVE",
"346 649 OFFCURVE",
"352 620 CURVE",
"387 458 OFFCURVE",
"462 104 OFFCURVE",
"465 95 CURVE SMOOTH",
"470 78 OFFCURVE",
"490 64 OFFCURVE",
"513 57 CURVE",
"422 57 LINE",
"418 0 LINE",
"671 0 LINE",
"680 54 LINE",
"628 66 LINE",
"592 128 OFFCURVE",
"475 620 OFFCURVE",
"456 710 CURVE"
);
},
{
closed = 1;
nodes = (
"164 206 LINE",
"479 205 LINE",
"480 278 LINE",
"175 280 LINE"
);
},
{
closed = 1;
nodes = (
"191 129 OFFCURVE",
"319 398 OFFCURVE",
"374 558 CURVE SMOOTH",
"406 651 OFFCURVE",
"410 639 OFFCURVE",
"452 707 CURVE",
"327 695 LINE",
"274 525 OFFCURVE",
"141 206 OFFCURVE",
"96 126 CURVE SMOOTH",
"61 64 OFFCURVE",
"34 57 OFFCURVE",
"5 57 CURVE",
"0 0 LINE",
"227 1 LINE",
"235 54 LINE",
"185 66 LINE"
);
}
);
width = 710;
},
{
layerId = "11343128-4963-4E5D-BE9C-B74F53B36FA5";
name = Bold;
width = 600;
}
);
leftKerningGroup = A;
rightKerningGroup = A;
},
{
glyphname = AE;
lastChange = "2015-12-01 10:14:16 +0000";
layers = (
{
anchors = (
{
name = bottom;
position = "{182, 0}";
},
{
name = ogonek;
position = "{466, 10}";
},
{
name = top;
position = "{519, 700}";
}
);
background = {
paths = (
{
closed = 1;
nodes = (
"194 128 OFFCURVE",
"323 394 OFFCURVE",
"394 558 CURVE",
"430 652 OFFCURVE",
"438 630 OFFCURVE",
"480 698 CURVE",
"350 695 LINE",
"286 524 OFFCURVE",
"141 206 OFFCURVE",
"96 126 CURVE SMOOTH",
"61 64 OFFCURVE",
"34 57 OFFCURVE",
"5 57 CURVE",
"0 0 LINE",
"230 1 LINE",
"238 54 LINE",
"188 66 LINE"
);
},
{
closed = 1;
nodes = (
"504 605 OFFCURVE",
"695 612 OFFCURVE",
"745 602 CURVE",
"774 535 LINE",
"839 545 LINE",
"822 702 LINE",
"270 701 LINE",
"261 646 LINE",
"378 606 LINE"
);
},
{
closed = 1;
nodes = (
"660 387 OFFCURVE",
"586 367 OFFCURVE",
"513 350 CURVE SMOOTH",
"408 326 OFFCURVE",
"318 299 OFFCURVE",
"213 290 CURVE",
"187 206 LINE",
"542 270 LINE",
"609 284 OFFCURVE",
"677 296 OFFCURVE",
"744 305 CURVE",
"744 342 OFFCURVE",
"741 393 OFFCURVE",
"733 411 CURVE"
);
},
{
closed = 1;
nodes = (
"786 103 LINE",
"746 90 OFFCURVE",
"668 85 OFFCURVE",
"594 86 CURVE",
"570 179 OFFCURVE",
"537 571 OFFCURVE",
"507 701 CURVE",
"374 695 LINE",
"377 683 OFFCURVE",
"387 649 OFFCURVE",
"393 620 CURVE SMOOTH",
"428 458 OFFCURVE",
"435 104 OFFCURVE",
"439 95 CURVE",
"445 80 OFFCURVE",
"461 67 OFFCURVE",
"481 59 CURVE",
"373 60 LINE",
"367 0 LINE",
"857 -1 LINE",
"886 164 LINE",
"822 173 LINE"
);
}
);
};
layerId = "71FD7A9F-05F5-4D76-8D4F-547475A05E4C";
name = "Bold Italic";
paths = (
{
closed = 1;
nodes = (
"194 128 OFFCURVE",
"323 394 OFFCURVE",
"394 558 CURVE",
"430 652 OFFCURVE",
"438 630 OFFCURVE",
"480 698 CURVE",
"350 695 LINE",
"286 524 OFFCURVE",
"141 206 OFFCURVE",
"96 126 CURVE SMOOTH",
"61 64 OFFCURVE",
"34 57 OFFCURVE",
"5 57 CURVE",
"0 0 LINE",
"230 1 LINE",
"238 54 LINE",
"188 66 LINE"
);
},
{
closed = 1;
nodes = (
"502 605 OFFCURVE",
"695 612 OFFCURVE",
"745 602 CURVE",
"774 535 LINE",
"839 545 LINE",
"822 702 LINE",
"270 701 LINE",
"261 646 LINE",
"378 606 LINE"
);
},
{
closed = 1;
nodes = (
"638 375 OFFCURVE",
"589 363 OFFCURVE",
"515 349 CURVE SMOOTH",
"409 330 OFFCURVE",
"320 310 OFFCURVE",
"215 306 CURVE",
"185 224 LINE",
"541 273 LINE",
"608 284 OFFCURVE",
"648 285 OFFCURVE",
"715 291 CURVE",
"717 328 OFFCURVE",
"719 377 OFFCURVE",
"711 396 CURVE"
);
},
{
closed = 1;
nodes = (
"767 103 LINE",
"727 90 OFFCURVE",
"647 85 OFFCURVE",
"573 86 CURVE",
"549 179 OFFCURVE",
"533 571 OFFCURVE",
"526 701 CURVE",
"393 695 LINE",
"396 683 OFFCURVE",
"406 649 OFFCURVE",
"409 620 CURVE SMOOTH",
"427 458 OFFCURVE",
"428 104 OFFCURVE",
"432 95 CURVE",
"438 80 OFFCURVE",
"454 67 OFFCURVE",
"474 59 CURVE",
"366 60 LINE",
"360 0 LINE",
"838 -1 LINE",
"867 164 LINE",
"803 173 LINE"
);
}
);
width = 900;
},
{
layerId = "11343128-4963-4E5D-BE9C-B74F53B36FA5";
name = Bold;
width = 600;
}
);
leftKerningGroup = A;
leftMetricsKey = A;
rightKerningGroup = E;
rightMetricsKey = E;
unicode = 00C6;
},
{
glyphname = B;
lastChange = "2015-12-01 10:57:51 +0000";
layers = (
{
background = {
paths = (
{
closed = 1;
nodes = (
"417 304 LINE",
"504 334 OFFCURVE",
"584 430 OFFCURVE",
"565 545 CURVE SMOOTH",
"530 752 OFFCURVE",
"204 703 OFFCURVE",
"80 699 CURVE",
"73 653 LINE",
"120 644 LINE",
"132 604 OFFCURVE",
"125 466 OFFCURVE",
"110 326 CURVE SMOOTH",
"92 158 OFFCURVE",
"79 96 OFFCURVE",
"84 85 CURVE SMOOTH",
"87 76 OFFCURVE",
"119 50 OFFCURVE",
"143 50 CURVE",
"25 51 LINE",
"20 0 LINE",
"300 0 LINE",
"307 47 LINE",
"253 55 LINE",
"232 108 OFFCURVE",
"226 157 OFFCURVE",
"237 285 CURVE",
"256 283 OFFCURVE",
"314 283 OFFCURVE",
"337 284 CURVE"
);
},
{
closed = 1;
nodes = (
"275 626 CURVE",
"445 635 OFFCURVE",
"469 404 OFFCURVE",
"364 363 CURVE",
"344 363 OFFCURVE",
"292 367 OFFCURVE",
"242 385 CURVE",
"250 480 OFFCURVE",
"258 550 OFFCURVE"
);
},
{
closed = 1;
nodes = (
"343 291 LINE",
"348 273 OFFCURVE",
"361 60 OFFCURVE",
"399 32 CURVE SMOOTH",
"408 25 OFFCURVE",
"480 -1 OFFCURVE",
"533 -1 CURVE",
"566 7 OFFCURVE",
"593 25 OFFCURVE",
"598 28 CURVE",
"593 74 LINE",
"573 66 OFFCURVE",
"559 65 OFFCURVE",
"548 63 CURVE",
"495 119 OFFCURVE",
"464 229 OFFCURVE",
"438 327 CURVE"
);
}
);
};
layerId = "71FD7A9F-05F5-4D76-8D4F-547475A05E4C";
name = "Bold Italic";
paths = (
{
closed = 1;
nodes = (
"275 626 CURVE",
"417 635 OFFCURVE",
"473 438 OFFCURVE",
"372 384 CURVE",
"330 380 OFFCURVE",
"278 374 OFFCURVE",
"243 386 CURVE",
"254 504 OFFCURVE",
"263 569 OFFCURVE"
);
},
{
closed = 1;
nodes = (
"342 318 LINE",
"386 311 OFFCURVE",
"409 283 OFFCURVE",
"420 232 CURVE SMOOTH",
"444 121 OFFCURVE",
"377 70 OFFCURVE",
"303 70 CURVE",
"249 85 LINE",
"231 111 OFFCURVE",
"226 175 OFFCURVE",
"239 303 CURVE",
"279 296 OFFCURVE",
"353 298 OFFCURVE",
"389 310 CURVE",
"527 367 OFFCURVE",
"574 466 OFFCURVE",
"550 570 CURVE SMOOTH",
"523 691 OFFCURVE",
"377 707 OFFCURVE",
"219 704 CURVE SMOOTH",
"172 703 OFFCURVE",
"101 702 OFFCURVE",
"81 700 CURVE",
"72 644 LINE",
"122 633 LINE",
"133 590 OFFCURVE",
"126 494 OFFCURVE",
"109 326 CURVE SMOOTH",
"92 137 OFFCURVE",
"79 106 OFFCURVE",
"84 95 CURVE SMOOTH",
"87 86 OFFCURVE",
"113 69 OFFCURVE",
"142 60 CURVE",
"29 60 LINE",
"25 0 LINE",
"289 -1 LINE SMOOTH",
"416 -1 OFFCURVE",
"580 71 OFFCURVE",
"551 257 CURVE SMOOTH",
"542 310 OFFCURVE",
"500 368 OFFCURVE",
"429 366 CURVE"
);
}
);
width = 593;
},
{
layerId = "11343128-4963-4E5D-BE9C-B74F53B36FA5";
name = Bold;
paths = (
{
closed = 1;
nodes = (
"208 629 CURVE",
"349 638 OFFCURVE",
"418 438 OFFCURVE",
"321 384 CURVE",
"279 380 OFFCURVE",
"227 374 OFFCURVE",
"192 386 CURVE",
"194 504 OFFCURVE",
"201 577 OFFCURVE"
);
},
{
closed = 1;
nodes = (
"295 318 LINE",
"340 311 OFFCURVE",
"365 283 OFFCURVE",
"379 232 CURVE SMOOTH",
"409 119 OFFCURVE",
"348 70 OFFCURVE",
"274 70 CURVE",
"219 85 LINE",
"199 111 OFFCURVE",
"189 175 OFFCURVE",
"193 303 CURVE",
"234 296 OFFCURVE",
"308 298 OFFCURVE",
"343 310 CURVE",
"477 367 OFFCURVE",
"517 466 OFFCURVE",
"486 570 CURVE SMOOTH",
"450 691 OFFCURVE",
"303 707 OFFCURVE",
"145 704 CURVE SMOOTH",
"98 703 OFFCURVE",
"28 702 OFFCURVE",
"8 700 CURVE",
"3 644 LINE",
"53 633 LINE",
"67 590 OFFCURVE",
"67 494 OFFCURVE",
"62 326 CURVE SMOOTH",
"58 137 OFFCURVE",
"47 106 OFFCURVE",
"53 95 CURVE SMOOTH",
"57 86 OFFCURVE",
"84 69 OFFCURVE",
"113 60 CURVE",
"0 60 LINE",
"1 0 LINE",
"265 -1 LINE SMOOTH",
"392 -1 OFFCURVE",
"549 69 OFFCURVE",
"509 257 CURVE SMOOTH",
"498 310 OFFCURVE",
"450 368 OFFCURVE",
"379 366 CURVE"
);
}
);
width = 516;
}
);
leftKerningGroup = I;
leftMetricsKey = I;
rightKerningGroup = B;
rightMetricsKey = O;
unicode = 0042;
},
{
glyphname = B.001;
lastChange = "2015-12-01 10:14:33 +0000";
layers = (
{
background = {
paths = (
{
closed = 1;
nodes = (
"417 304 LINE",
"504 334 OFFCURVE",
"584 430 OFFCURVE",
"565 545 CURVE SMOOTH",
"530 752 OFFCURVE",
"204 703 OFFCURVE",
"80 699 CURVE",
"73 653 LINE",
"120 644 LINE",
"132 604 OFFCURVE",
"125 466 OFFCURVE",
"110 326 CURVE SMOOTH",
"92 158 OFFCURVE",
"79 96 OFFCURVE",
"84 85 CURVE SMOOTH",
"87 76 OFFCURVE",
"119 50 OFFCURVE",
"143 50 CURVE",
"25 51 LINE",
"20 0 LINE",
"300 0 LINE",
"307 47 LINE",
"253 55 LINE",
"232 108 OFFCURVE",
"226 157 OFFCURVE",
"237 285 CURVE",
"256 283 OFFCURVE",
"314 283 OFFCURVE",
"337 284 CURVE"
);
},
{
closed = 1;
nodes = (
"275 626 CURVE",
"445 635 OFFCURVE",
"469 404 OFFCURVE",
"364 363 CURVE",
"344 363 OFFCURVE",
"292 367 OFFCURVE",
"242 385 CURVE",
"250 480 OFFCURVE",
"258 550 OFFCURVE"
);
},
{
closed = 1;
nodes = (
"343 291 LINE",
"348 273 OFFCURVE",
"361 60 OFFCURVE",
"399 32 CURVE SMOOTH",
"408 25 OFFCURVE",
"480 -1 OFFCURVE",
"533 -1 CURVE",
"566 7 OFFCURVE",
"593 25 OFFCURVE",
"598 28 CURVE",
"593 74 LINE",
"573 66 OFFCURVE",
"559 65 OFFCURVE",
"548 63 CURVE",
"495 119 OFFCURVE",
"464 229 OFFCURVE",
"438 327 CURVE"
);
}
);
};
layerId = "71FD7A9F-05F5-4D76-8D4F-547475A05E4C";
name = "Bold Italic";
paths = (
{
closed = 1;
nodes = (
"275 626 CURVE",
"417 635 OFFCURVE",
"473 438 OFFCURVE",
"372 384 CURVE",
"330 380 OFFCURVE",
"278 374 OFFCURVE",
"243 386 CURVE",
"254 504 OFFCURVE",
"263 569 OFFCURVE"
);
},
{
closed = 1;
nodes = (
"342 318 LINE",
"386 311 OFFCURVE",
"409 283 OFFCURVE",
"420 232 CURVE SMOOTH",
"444 121 OFFCURVE",
"377 70 OFFCURVE",
"303 70 CURVE",
"249 85 LINE",
"231 111 OFFCURVE",
"226 175 OFFCURVE",
"239 303 CURVE",
"279 296 OFFCURVE",
"353 298 OFFCURVE",
"389 310 CURVE",
"527 367 OFFCURVE",
"574 466 OFFCURVE",
"550 570 CURVE SMOOTH",
"523 691 OFFCURVE",
"377 707 OFFCURVE",
"219 704 CURVE SMOOTH",
"172 703 OFFCURVE",
"101 702 OFFCURVE",
"81 700 CURVE",
"72 644 LINE",
"122 633 LINE",
"133 590 OFFCURVE",
"126 494 OFFCURVE",
"109 326 CURVE SMOOTH",
"92 137 OFFCURVE",
"79 106 OFFCURVE",
"84 95 CURVE SMOOTH",
"87 86 OFFCURVE",
"113 69 OFFCURVE",
"142 60 CURVE",
"29 60 LINE",
"25 0 LINE",
"289 -1 LINE SMOOTH",
"416 -1 OFFCURVE",
"580 71 OFFCURVE",
"551 257 CURVE SMOOTH",
"542 310 OFFCURVE",
"500 368 OFFCURVE",
"429 366 CURVE"
);
}
);
width = 593;
},
{
layerId = "11343128-4963-4E5D-BE9C-B74F53B36FA5";
name = Bold;
width = 600;
}
);
leftKerningGroup = I;
leftMetricsKey = I;
rightKerningGroup = B;
rightMetricsKey = O;
},
{
glyphname = C;
lastChange = "2015-12-01 10:58:46 +0000";
layers = (
{
anchors = (
{
name = bottom;
position = "{291, 0}";
},
{
name = top;
position = "{375, 646}";
}
);
background = {
paths = (
{
closed = 1;
nodes = (
"166 724 OFFCURVE",
"13 495 OFFCURVE",
"47 235 CURVE SMOOTH",
"70 64 OFFCURVE",
"186 -5 OFFCURVE",
"300 -14 CURVE SMOOTH",
"429 -24 OFFCURVE",
"541 12 OFFCURVE",
"596 51 CURVE",
"596 129 OFFCURVE",
"602 227 OFFCURVE",
"609 249 CURVE SMOOTH",
"618 276 OFFCURVE",
"640 282 OFFCURVE",
"648 282 CURVE",
"652 343 LINE",
"567 340 OFFCURVE",
"523 341 OFFCURVE",
"443 344 CURVE",
"435 285 LINE",
"488 269 LINE",
"487 213 OFFCURVE",
"487 117 OFFCURVE",
"450 76 CURVE",
"313 62 OFFCURVE",
"232 113 OFFCURVE",
"205 270 CURVE SMOOTH",
"169 489 OFFCURVE",
"273 598 OFFCURVE",
"336 625 CURVE",
"433 619 OFFCURVE",
"495 584 OFFCURVE",
"522 547 CURVE",
"527 492 LINE",
"592 502 LINE",
"617 640 LINE",
"585 673 OFFCURVE",
"517 718 OFFCURVE",
"400 720 CURVE SMOOTH"
);
}
);
};
layerId = "71FD7A9F-05F5-4D76-8D4F-547475A05E4C";
name = "Bold Italic";
paths = (
{
closed = 1;
nodes = (
"581 44 LINE",
"558 28 OFFCURVE",
"476 -12 OFFCURVE",
"362 -17 CURVE SMOOTH",
"220 -23 OFFCURVE",
"85 36 OFFCURVE",
"51 201 CURVE SMOOTH",
"-2 445 OFFCURVE",
"137 724 OFFCURVE",
"403 720 CURVE SMOOTH",
"502 719 OFFCURVE",
"583 678 OFFCURVE",
"615 641 CURVE",
"592 502 LINE",
"525 492 LINE",
"525 495 OFFCURVE",
"523 519 OFFCURVE",
"521 544 CURVE",
"501 577 OFFCURVE",
"428 625 OFFCURVE",
"335 625 CURVE",
"260 598 OFFCURVE",
"167 470 OFFCURVE",
"206 255 CURVE SMOOTH",
"226 146 OFFCURVE",
"289 74 OFFCURVE",
"399 69 CURVE SMOOTH",
"463 66 OFFCURVE",
"529 95 OFFCURVE",
"566 125 CURVE"
);
}
);
width = 622;
},
{
layerId = "11343128-4963-4E5D-BE9C-B74F53B36FA5";
name = Bold;
paths = (
{
closed = 1;
nodes = (
"561 44 LINE",
"540 28 OFFCURVE",
"460 -12 OFFCURVE",
"347 -17 CURVE SMOOTH",
"205 -23 OFFCURVE",
"66 36 OFFCURVE",
"20 201 CURVE SMOOTH",
"-50 445 OFFCURVE",
"70 721 OFFCURVE",
"336 717 CURVE SMOOTH",
"435 716 OFFCURVE",
"519 675 OFFCURVE",
"554 638 CURVE",
"540 499 LINE",
"474 489 LINE",
"467 541 LINE",
"444 574 OFFCURVE",
"368 622 OFFCURVE",
"275 622 CURVE",
"202 595 OFFCURVE",
"119 461 OFFCURVE",
"175 246 CURVE SMOOTH",
"203 137 OFFCURVE",
"267 74 OFFCURVE",
"378 69 CURVE SMOOTH",
"442 66 OFFCURVE",
"506 95 OFFCURVE",
"541 125 CURVE"
);
}
);
width = 546;
}
);
leftKerningGroup = O;
leftMetricsKey = O;
rightKerningGroup = C;
rightMetricsKey = "=O-15";
unicode = 0043;
},
{
glyphname = C.001;
lastChange = "2015-12-01 10:14:33 +0000";
layers = (
{
anchors = (
{
name = bottom;
position = "{291, 0}";
},
{
name = top;
position = "{375, 646}";
}
);
background = {
paths = (
{
closed = 1;
nodes = (
"166 724 OFFCURVE",
"13 495 OFFCURVE",
"47 235 CURVE SMOOTH",
"70 64 OFFCURVE",
"186 -5 OFFCURVE",
"300 -14 CURVE SMOOTH",
"429 -24 OFFCURVE",
"541 12 OFFCURVE",
"596 51 CURVE",
"596 129 OFFCURVE",
"602 227 OFFCURVE",
"609 249 CURVE SMOOTH",
"618 276 OFFCURVE",
"640 282 OFFCURVE",
"648 282 CURVE",
"652 343 LINE",
"567 340 OFFCURVE",
"523 341 OFFCURVE",
"443 344 CURVE",
"435 285 LINE",
"488 269 LINE",
"487 213 OFFCURVE",
"487 117 OFFCURVE",
"450 76 CURVE",
"313 62 OFFCURVE",
"232 113 OFFCURVE",
"205 270 CURVE SMOOTH",
"169 489 OFFCURVE",
"273 598 OFFCURVE",
"336 625 CURVE",
"433 619 OFFCURVE",
"495 584 OFFCURVE",
"522 547 CURVE",
"527 492 LINE",
"592 502 LINE",
"617 640 LINE",
"585 673 OFFCURVE",
"517 718 OFFCURVE",
"400 720 CURVE SMOOTH"
);
}
);
};
layerId = "71FD7A9F-05F5-4D76-8D4F-547475A05E4C";
name = "Bold Italic";
paths = (
{
closed = 1;
nodes = (
"581 44 LINE",
"558 28 OFFCURVE",
"476 -12 OFFCURVE",
"362 -17 CURVE SMOOTH",
"220 -23 OFFCURVE",
"85 36 OFFCURVE",
"51 201 CURVE SMOOTH",
"-2 445 OFFCURVE",
"137 724 OFFCURVE",
"403 720 CURVE SMOOTH",
"502 719 OFFCURVE",
"583 678 OFFCURVE",
"615 641 CURVE",
"592 502 LINE",
"525 492 LINE",
"525 495 OFFCURVE",
"523 519 OFFCURVE",
"521 544 CURVE",
"501 577 OFFCURVE",
"428 625 OFFCURVE",
"335 625 CURVE",
"260 598 OFFCURVE",
"167 470 OFFCURVE",
"206 255 CURVE SMOOTH",
"226 146 OFFCURVE",
"289 74 OFFCURVE",
"399 69 CURVE SMOOTH",
"463 66 OFFCURVE",
"529 95 OFFCURVE",
"566 125 CURVE"
);
}
);
width = 622;
},
{
layerId = "11343128-4963-4E5D-BE9C-B74F53B36FA5";
name = Bold;
width = 600;
}
);
leftKerningGroup = O;
leftMetricsKey = O;
rightKerningGroup = C;
rightMetricsKey = "=O-15";
},
{
glyphname = D;
lastChange = "2015-12-01 10:59:14 +0000";
layers = (
{
anchors = (
{
name = bottom;
position = "{301, 0}";
},
{
name = center;
position = "{191, 350}";
},
{
name = top;
position = "{334, 700}";
}
);
background = {
paths = (
{
closed = 1;
nodes = (
"512 683 OFFCURVE",
"425 727 OFFCURVE",
"291 709 CURVE",
"2 647 OFFCURVE",
"-57 244 OFFCURVE",
"77 81 CURVE SMOOTH",
"148 -7 OFFCURVE",
"257 -28 OFFCURVE",
"374 0 CURVE",
"629 77 OFFCURVE",
"700 439 OFFCURVE",
"563 616 CURVE SMOOTH"
);
},
{
closed = 1;
nodes = (
"288 74 OFFCURVE",
"235 99 OFFCURVE",
"200 176 CURVE SMOOTH",
"126 333 OFFCURVE",
"154 545 OFFCURVE",
"294 626 CURVE",
"353 626 OFFCURVE",
"403 608 OFFCURVE",
"443 519 CURVE SMOOTH",
"511 371 OFFCURVE",
"486 162 OFFCURVE",
"348 75 CURVE"
);
}
);
};
layerId = "71FD7A9F-05F5-4D76-8D4F-547475A05E4C";
name = "Bold Italic";
paths = (
{
closed = 1;
nodes = (
"676 198 OFFCURVE",
"510 -5 OFFCURVE",
"297 -3 CURVE SMOOTH",
"26 0 LINE",
"30 59 LINE",
"141 59 LINE",
"117 68 OFFCURVE",
"86 85 OFFCURVE",
"83 94 CURVE SMOOTH",
"78 105 OFFCURVE",
"101 254 OFFCURVE",
"112 371 CURVE SMOOTH",
"122 476 OFFCURVE",
"130 600 OFFCURVE",
"119 634 CURVE",
"72 643 LINE",
"80 700 LINE",
"122 702 OFFCURVE",
"225 706 OFFCURVE",
"275 706 CURVE SMOOTH",
"456 704 OFFCURVE",
"597 666 OFFCURVE",
"628 482 CURVE SMOOTH"
);
},
{
closed = 1;
nodes = (
"249 510 OFFCURVE",
"213 129 OFFCURVE",
"239 83 CURVE",
"339 71 LINE",
"415 107 OFFCURVE",
"514 249 OFFCURVE",
"472 456 CURVE SMOOTH",
"445 590 OFFCURVE",
"343 626 OFFCURVE",
"273 622 CURVE"
);
}
);
width = 659;
},
{
layerId = "11343128-4963-4E5D-BE9C-B74F53B36FA5";
name = Bold;
paths = (
{
closed = 1;
nodes = (
"676 198 OFFCURVE",
"510 -5 OFFCURVE",
"297 -3 CURVE SMOOTH",
"26 0 LINE",
"30 59 LINE",
"141 59 LINE",
"117 68 OFFCURVE",
"86 85 OFFCURVE",
"83 94 CURVE SMOOTH",
"78 105 OFFCURVE",
"101 254 OFFCURVE",
"112 371 CURVE SMOOTH",
"122 476 OFFCURVE",
"130 600 OFFCURVE",
"119 634 CURVE",
"72 643 LINE",
"80 700 LINE",
"122 702 OFFCURVE",
"225 706 OFFCURVE",
"275 706 CURVE SMOOTH",
"456 704 OFFCURVE",
"597 666 OFFCURVE",
"628 482 CURVE SMOOTH"
);
},
{
closed = 1;
nodes = (
"249 510 OFFCURVE",
"213 129 OFFCURVE",
"239 83 CURVE",
"339 71 LINE",
"415 107 OFFCURVE",
"514 249 OFFCURVE",
"472 456 CURVE SMOOTH",
"445 590 OFFCURVE",
"343 626 OFFCURVE",
"273 622 CURVE"
);
}
);
width = 600;
}
);
leftKerningGroup = I;
leftMetricsKey = I;
rightKerningGroup = O;
rightMetricsKey = O;
unicode = 0044;
},
{
glyphname = D.001;
lastChange = "2015-12-01 10:14:33 +0000";
layers = (
{
anchors = (
{
name = bottom;
position = "{301, 0}";
},
{
name = center;
position = "{191, 350}";
},
{
name = top;
position = "{334, 700}";
}
);
background = {
paths = (
{
closed = 1;
nodes = (
"512 683 OFFCURVE",
"425 727 OFFCURVE",
"291 709 CURVE",
"2 647 OFFCURVE",
"-57 244 OFFCURVE",
"77 81 CURVE SMOOTH",
"148 -7 OFFCURVE",
"257 -28 OFFCURVE",
"374 0 CURVE",
"629 77 OFFCURVE",
"700 439 OFFCURVE",
"563 616 CURVE SMOOTH"
);
},
{
closed = 1;
nodes = (
"288 74 OFFCURVE",
"235 99 OFFCURVE",
"200 176 CURVE SMOOTH",
"126 333 OFFCURVE",
"154 545 OFFCURVE",
"294 626 CURVE",
"353 626 OFFCURVE",
"403 608 OFFCURVE",
"443 519 CURVE SMOOTH",
"511 371 OFFCURVE",
"486 162 OFFCURVE",
"348 75 CURVE"
);
}
);
};
layerId = "71FD7A9F-05F5-4D76-8D4F-547475A05E4C";
name = "Bold Italic";
paths = (
{
closed = 1;
nodes = (
"676 198 OFFCURVE",
"510 -5 OFFCURVE",
"297 -3 CURVE SMOOTH",
"26 0 LINE",
"30 59 LINE",
"141 59 LINE",
"117 68 OFFCURVE",
"86 85 OFFCURVE",
"83 94 CURVE SMOOTH",
"78 105 OFFCURVE",
"101 254 OFFCURVE",
"112 371 CURVE SMOOTH",
"122 476 OFFCURVE",
"130 600 OFFCURVE",
"119 634 CURVE",
"72 643 LINE",
"80 700 LINE",
"122 702 OFFCURVE",
"225 706 OFFCURVE",
"275 706 CURVE SMOOTH",
"456 704 OFFCURVE",
"597 666 OFFCURVE",
"628 482 CURVE SMOOTH"
);
},
{
closed = 1;
nodes = (
"249 510 OFFCURVE",
"213 129 OFFCURVE",
"239 83 CURVE",
"339 71 LINE",
"415 107 OFFCURVE",
"514 249 OFFCURVE",
"472 456 CURVE SMOOTH",
"445 590 OFFCURVE",
"343 626 OFFCURVE",
"273 622 CURVE"
);
}
);
width = 659;
},
{
layerId = "11343128-4963-4E5D-BE9C-B74F53B36FA5";
name = Bold;
width = 600;
}
);
leftKerningGroup = I;
leftMetricsKey = I;
rightKerningGroup = O;
rightMetricsKey = O;
},
{
glyphname = E;
lastChange = "2015-12-01 10:59:22 +0000";
layers = (
{
anchors = (
{
name = bottom;
position = "{262, 0}";
},
{
name = ogonek;
position = "{485, 10}";
},
{
name = top;
position = "{320, 645}";
},
{
name = topleft;
position = "{76, 700}";
}
);
background = {
paths = (
{
closed = 1;
nodes = (
"77 700 LINE",
"69 653 LINE",
"119 642 LINE",
"130 602 OFFCURVE",
"123 484 OFFCURVE",
"120 427 CURVE SMOOTH",
"111 249 OFFCURVE",
"86 101 OFFCURVE",
"89 88 CURVE SMOOTH",
"93 74 OFFCURVE",
"131 56 OFFCURVE",
"150 50 CURVE",
"30 51 LINE",
"27 0 LINE",
"525 -1 LINE",
"551 164 LINE",
"501 175 LINE",
"496 165 OFFCURVE",
"481 127 OFFCURVE",
"467 98 CURVE",
"428 85 OFFCURVE",
"329 80 OFFCURVE",
"255 81 CURVE",
"225 114 OFFCURVE",
"233 228 OFFCURVE",
"241 331 CURVE",
"363 325 LINE",
"374 279 LINE",
"414 282 LINE",
"419 325 OFFCURVE",
"426 410 OFFCURVE",
"411 410 CURVE SMOOTH",
"403 410 OFFCURVE",
"240 404 OFFCURVE",
"246 404 CURVE",
"247 455 OFFCURVE",
"263 570 OFFCURVE",
"274 614 CURVE",
"345 614 OFFCURVE",
"444 615 OFFCURVE",
"488 601 CURVE",
"495 585 OFFCURVE",
"507 561 OFFCURVE",
"522 524 CURVE",
"572 535 LINE",
"546 700 LINE"
);
}
);
};
guideLines = (
{
angle = 12;
position = "{493, 529}";
},
{
angle = -12;
position = "{474, 175}";
},
{
angle = 84;
position = "{488, 548}";
}
);
layerId = "71FD7A9F-05F5-4D76-8D4F-547475A05E4C";
name = "Bold Italic";
paths = (
{
closed = 1;
nodes = (
"83 700 LINE",
"73 645 LINE",
"123 634 LINE",
"133 594 OFFCURVE",
"127 484 OFFCURVE",
"123 427 CURVE SMOOTH",
"111 249 OFFCURVE",
"84 110 OFFCURVE",
"86 97 CURVE SMOOTH",
"90 83 OFFCURVE",
"128 65 OFFCURVE",
"147 59 CURVE",
"27 60 LINE",
"21 0 LINE",
"519 -1 LINE",
"548 164 LINE",
"484 173 LINE",
"448 103 LINE",
"408 90 OFFCURVE",
"324 85 OFFCURVE",
"250 86 CURVE",
"221 119 OFFCURVE",
"233 228 OFFCURVE",
"243 331 CURVE",
"341 325 LINE",
"351 279 LINE",
"415 282 LINE",
"421 325 OFFCURVE",
"429 410 OFFCURVE",
"414 410 CURVE SMOOTH",
"406 410 OFFCURVE",
"243 404 OFFCURVE",
"249 404 CURVE",
"251 455 OFFCURVE",
"268 569 OFFCURVE",
"280 613 CURVE",
"371 612 OFFCURVE",
"436 610 OFFCURVE",
"477 602 CURVE",
"506 540 LINE",
"571 550 LINE",
"554 700 LINE"
);
}
);
width = 581;
},
{
layerId = "11343128-4963-4E5D-BE9C-B74F53B36FA5";
name = Bold;
paths = (
{
closed = 1;
nodes = (
"83 700 LINE",
"73 645 LINE",
"123 634 LINE",
"133 594 OFFCURVE",
"127 484 OFFCURVE",
"123 427 CURVE SMOOTH",
"111 249 OFFCURVE",
"84 110 OFFCURVE",
"86 97 CURVE SMOOTH",
"90 83 OFFCURVE",
"128 65 OFFCURVE",
"147 59 CURVE",
"27 60 LINE",
"21 0 LINE",
"519 -1 LINE",
"548 164 LINE",
"484 173 LINE",
"448 103 LINE",
"408 90 OFFCURVE",
"324 85 OFFCURVE",
"250 86 CURVE",
"221 119 OFFCURVE",
"233 228 OFFCURVE",
"243 331 CURVE",
"341 325 LINE",
"351 279 LINE",
"415 282 LINE",
"421 325 OFFCURVE",
"429 410 OFFCURVE",
"414 410 CURVE SMOOTH",
"406 410 OFFCURVE",
"243 404 OFFCURVE",
"249 404 CURVE",
"251 455 OFFCURVE",
"268 569 OFFCURVE",
"280 613 CURVE",
"371 612 OFFCURVE",
"436 610 OFFCURVE",
"477 602 CURVE",
"506 540 LINE",
"571 550 LINE",
"554 700 LINE"
);
}
);
width = 600;
}
);
leftKerningGroup = I;
leftMetricsKey = I;
rightKerningGroup = E;
rightMetricsKey = I;
unicode = 0045;
},
{
glyphname = E.001;
lastChange = "2015-12-01 10:14:33 +0000";
layers = (
{
anchors = (
{
name = bottom;
position = "{262, 0}";
},
{
name = ogonek;
position = "{485, 10}";
},
{
name = top;
position = "{320, 645}";
},
{
name = topleft;
position = "{76, 700}";
}
);
background = {
paths = (
{
closed = 1;
nodes = (
"77 700 LINE",
"69 653 LINE",
"119 642 LINE",
"130 602 OFFCURVE",
"123 484 OFFCURVE",
"120 427 CURVE SMOOTH",
"111 249 OFFCURVE",
"86 101 OFFCURVE",
"89 88 CURVE SMOOTH",
"93 74 OFFCURVE",
"131 56 OFFCURVE",
"150 50 CURVE",
"30 51 LINE",
"27 0 LINE",
"525 -1 LINE",
"551 164 LINE",
"501 175 LINE",
"496 165 OFFCURVE",
"481 127 OFFCURVE",
"467 98 CURVE",
"428 85 OFFCURVE",
"329 80 OFFCURVE",
"255 81 CURVE",
"225 114 OFFCURVE",
"233 228 OFFCURVE",
"241 331 CURVE",
"363 325 LINE",
"374 279 LINE",
"414 282 LINE",
"419 325 OFFCURVE",
"426 410 OFFCURVE",
"411 410 CURVE SMOOTH",
"403 410 OFFCURVE",
"240 404 OFFCURVE",
"246 404 CURVE",
"247 455 OFFCURVE",
"263 570 OFFCURVE",
"274 614 CURVE",
"345 614 OFFCURVE",
"444 615 OFFCURVE",
"488 601 CURVE",
"495 585 OFFCURVE",
"507 561 OFFCURVE",
"522 524 CURVE",
"572 535 LINE",
"546 700 LINE"
);
}
);
};
guideLines = (
{
angle = 12;
position = "{493, 529}";
},
{
angle = -12;
position = "{474, 175}";
},
{
angle = 84;
position = "{488, 548}";
}
);
layerId = "71FD7A9F-05F5-4D76-8D4F-547475A05E4C";
name = "Bold Italic";
paths = (
{
closed = 1;
nodes = (
"83 700 LINE",
"73 645 LINE",
"123 634 LINE",
"133 594 OFFCURVE",
"127 484 OFFCURVE",
"123 427 CURVE SMOOTH",
"111 249 OFFCURVE",
"84 110 OFFCURVE",
"86 97 CURVE SMOOTH",
"90 83 OFFCURVE",
"128 65 OFFCURVE",
"147 59 CURVE",
"27 60 LINE",
"21 0 LINE",
"519 -1 LINE",
"548 164 LINE",
"484 173 LINE",
"448 103 LINE",
"408 90 OFFCURVE",
"324 85 OFFCURVE",
"250 86 CURVE",
"221 119 OFFCURVE",
"233 228 OFFCURVE",
"243 331 CURVE",
"341 325 LINE",
"351 279 LINE",
"415 282 LINE",
"421 325 OFFCURVE",
"429 410 OFFCURVE",
"414 410 CURVE SMOOTH",
"406 410 OFFCURVE",
"243 404 OFFCURVE",
"249 404 CURVE",
"251 455 OFFCURVE",
"268 569 OFFCURVE",
"280 613 CURVE",
"371 612 OFFCURVE",
"436 610 OFFCURVE",
"477 602 CURVE",
"506 540 LINE",
"571 550 LINE",
"554 700 LINE"
);
}
);
width = 581;
},
{
layerId = "11343128-4963-4E5D-BE9C-B74F53B36FA5";
name = Bold;
width = 600;
}
);
leftKerningGroup = I;
leftMetricsKey = I;
rightKerningGroup = E;
rightMetricsKey = I;
},
{
glyphname = F;
lastChange = "2015-12-01 10:14:16 +0000";
layers = (
{
background = {
components = (
{
name = E;
}
);
};
guideLines = (
{
position = "{490, 541}";
}
);
layerId = "71FD7A9F-05F5-4D76-8D4F-547475A05E4C";
name = "Bold Italic";
paths = (
{
closed = 1;
nodes = (
"381 697 OFFCURVE",
"231 696 OFFCURVE",
"82 700 CURVE",
"73 645 LINE",
"121 635 LINE",
"134 596 OFFCURVE",
"126 484 OFFCURVE",
"122 426 CURVE SMOOTH",
"110 263 OFFCURVE",
"81 114 OFFCURVE",
"86 99 CURVE SMOOTH",
"89 84 OFFCURVE",
"123 68 OFFCURVE",
"146 60 CURVE",
"28 60 LINE",
"22 0 LINE",
"316 0 LINE",
"324 53 LINE",
"254 63 LINE",
"228 112 OFFCURVE",
"233 196 OFFCURVE",
"239 323 CURVE",
"330 317 LINE",
"342 271 LINE",
"404 275 LINE",
"407 296 OFFCURVE",
"412 403 OFFCURVE",
"403 403 CURVE SMOOTH",
"397 403 OFFCURVE",
"240 397 OFFCURVE",
"244 397 CURVE",
"254 534 OFFCURVE",
"261 560 OFFCURVE",
"272 610 CURVE",
"327 610 OFFCURVE",
"391 608 OFFCURVE",
"455 600 CURVE",
"483 540 LINE",
"549 550 LINE",
"530 701 LINE"
);
}
);
width = 536;
},
{
layerId = "11343128-4963-4E5D-BE9C-B74F53B36FA5";
name = Bold;
width = 600;
}
);
leftKerningGroup = I;
leftMetricsKey = I;
rightKerningGroup = F;
rightMetricsKey = "=E-5";
unicode = 0046;
},
{
glyphname = F.001;
lastChange = "2015-12-01 10:14:33 +0000";
layers = (
{
background = {
components = (
{
name = E;
}
);
};
guideLines = (
{
position = "{490, 541}";
}
);
layerId = "71FD7A9F-05F5-4D76-8D4F-547475A05E4C";
name = "Bold Italic";
paths = (
{
closed = 1;
nodes = (
"381 697 OFFCURVE",
"231 696 OFFCURVE",
"82 700 CURVE",
"73 645 LINE",
"121 635 LINE",
"134 596 OFFCURVE",
"126 484 OFFCURVE",
"122 426 CURVE SMOOTH",
"110 263 OFFCURVE",
"81 114 OFFCURVE",
"86 99 CURVE SMOOTH",
"89 84 OFFCURVE",
"123 68 OFFCURVE",
"146 60 CURVE",
"28 60 LINE",
"22 0 LINE",
"316 0 LINE",
"324 53 LINE",
"254 63 LINE",
"228 112 OFFCURVE",
"233 196 OFFCURVE",
"239 323 CURVE",
"330 317 LINE",
"342 271 LINE",
"404 275 LINE",
"407 296 OFFCURVE",
"412 403 OFFCURVE",
"403 403 CURVE SMOOTH",
"397 403 OFFCURVE",
"240 397 OFFCURVE",
"244 397 CURVE",
"254 534 OFFCURVE",
"261 560 OFFCURVE",
"272 610 CURVE",
"327 610 OFFCURVE",
"391 608 OFFCURVE",
"455 600 CURVE",
"483 540 LINE",
"549 550 LINE",
"530 701 LINE"
);
}
);
width = 536;
},
{
layerId = "11343128-4963-4E5D-BE9C-B74F53B36FA5";
name = Bold;
width = 600;
}
);
leftKerningGroup = I;
leftMetricsKey = I;
rightKerningGroup = F;
rightMetricsKey = "=E-5";
},
{
glyphname = G;
lastChange = "2015-12-01 10:14:16 +0000";
layers = (
{
anchors = (
{
name = bottom;
position = "{311, 0}";
},
{
name = top;
position = "{363, 646}";
}
);
background = {
components = (
{
name = C;
}
);
};
layerId = "71FD7A9F-05F5-4D76-8D4F-547475A05E4C";
name = "Bold Italic";
paths = (
{
closed = 1;
nodes = (
"164 724 OFFCURVE",
"11 495 OFFCURVE",
"45 235 CURVE SMOOTH",
"68 64 OFFCURVE",
"184 -5 OFFCURVE",
"298 -14 CURVE SMOOTH",
"427 -24 OFFCURVE",
"539 12 OFFCURVE",
"594 51 CURVE",
"594 129 OFFCURVE",
"600 227 OFFCURVE",
"607 249 CURVE SMOOTH",
"616 276 OFFCURVE",
"638 282 OFFCURVE",
"646 282 CURVE",
"650 343 LINE",
"565 340 OFFCURVE",
"521 341 OFFCURVE",
"441 344 CURVE",
"433 285 LINE",
"486 269 LINE",
"485 213 OFFCURVE",
"485 117 OFFCURVE",
"448 76 CURVE",
"311 62 OFFCURVE",
"230 113 OFFCURVE",
"203 270 CURVE SMOOTH",
"167 489 OFFCURVE",
"271 598 OFFCURVE",
"334 625 CURVE",
"431 619 OFFCURVE",
"493 584 OFFCURVE",
"520 547 CURVE",
"525 492 LINE",
"590 502 LINE",
"615 640 LINE",
"583 673 OFFCURVE",
"515 718 OFFCURVE",
"398 720 CURVE SMOOTH"
);
}
);
width = 677;
},
{
layerId = "11343128-4963-4E5D-BE9C-B74F53B36FA5";
name = Bold;
width = 600;
}
);
leftKerningGroup = O;
leftMetricsKey = O;
rightKerningGroup = I;
rightMetricsKey = O;
unicode = 0047;
},
{
glyphname = G.001;
lastChange = "2015-12-01 10:14:33 +0000";
layers = (
{
anchors = (
{
name = bottom;
position = "{311, 0}";
},
{
name = top;
position = "{363, 646}";
}
);
background = {
components = (
{
name = C;
}
);
};
layerId = "71FD7A9F-05F5-4D76-8D4F-547475A05E4C";
name = "Bold Italic";
paths = (
{
closed = 1;
nodes = (
"164 724 OFFCURVE",
"11 495 OFFCURVE",
"45 235 CURVE SMOOTH",
"68 64 OFFCURVE",
"184 -5 OFFCURVE",
"298 -14 CURVE SMOOTH",
"427 -24 OFFCURVE",
"539 12 OFFCURVE",
"594 51 CURVE",
"594 129 OFFCURVE",
"600 227 OFFCURVE",
"607 249 CURVE SMOOTH",
"616 276 OFFCURVE",
"638 282 OFFCURVE",
"646 282 CURVE",
"650 343 LINE",
"565 340 OFFCURVE",
"521 341 OFFCURVE",
"441 344 CURVE",
"433 285 LINE",
"486 269 LINE",
"485 213 OFFCURVE",
"485 117 OFFCURVE",
"448 76 CURVE",
"311 62 OFFCURVE",
"230 113 OFFCURVE",
"203 270 CURVE SMOOTH",
"167 489 OFFCURVE",
"271 598 OFFCURVE",
"334 625 CURVE",
"431 619 OFFCURVE",
"493 584 OFFCURVE",
"520 547 CURVE",
"525 492 LINE",
"590 502 LINE",
"615 640 LINE",
"583 673 OFFCURVE",
"515 718 OFFCURVE",
"398 720 CURVE SMOOTH"
);
}
);
width = 677;
},
{
layerId = "11343128-4963-4E5D-BE9C-B74F53B36FA5";
name = Bold;
width = 600;
}
);
leftKerningGroup = O;
leftMetricsKey = O;
rightKerningGroup = I;
rightMetricsKey = O;
},
{
glyphname = H;
lastChange = "2015-12-01 10:14:16 +0000";
layers = (
{
anchors = (
{
name = bottom;
position = "{330, 0}";
},
{
name = center;
position = "{367, 350}";
},
{
name = top;
position = "{363, 640}";
},
{
name = topleft;
position = "{64, 700}";
}
);
background = {
paths = (
{
closed = 1;
nodes = (
"547 671 OFFCURVE",
"476 732 OFFCURVE",
"310 696 CURVE SMOOTH",
"58 641 OFFCURVE",
"4 234 OFFCURVE",
"128 89 CURVE SMOOTH",
"199 6 OFFCURVE",
"281 -23 OFFCURVE",
"421 8 CURVE SMOOTH",
"654 60 OFFCURVE",
"722 458 OFFCURVE",
"593 615 CURVE SMOOTH"
);
},
{
closed = 1;
nodes = (
"325 77 OFFCURVE",
"276 104 OFFCURVE",
"242 179 CURVE SMOOTH",
"173 333 OFFCURVE",
"193 544 OFFCURVE",
"328 627 CURVE",
"385 627 OFFCURVE",
"444 609 OFFCURVE",
"482 522 CURVE SMOOTH",
"546 377 OFFCURVE",
"530 162 OFFCURVE",
"393 77 CURVE"
);
}
);
};
guideLines = (
{
position = "{1800, 733}";
}
);
layerId = "71FD7A9F-05F5-4D76-8D4F-547475A05E4C";
name = "Bold Italic";
paths = (
{
closed = 1;
nodes = (
"81 700 LINE",
"73 646 LINE",
"119 637 LINE",
"130 612 OFFCURVE",
"122 480 OFFCURVE",
"112 348 CURVE SMOOTH",
"102 212 OFFCURVE",
"84 113 OFFCURVE",
"87 97 CURVE SMOOTH",
"89 88 OFFCURVE",
"106 75 OFFCURVE",
"146 59 CURVE",
"28 59 LINE",
"25 0 LINE",
"300 0 LINE",
"307 56 LINE",
"252 64 LINE",
"222 113 OFFCURVE",
"224 212 OFFCURVE",
"233 349 CURVE SMOOTH",
"242 480 OFFCURVE",
"260 591 OFFCURVE",
"271 613 CURVE SMOOTH",
"283 633 OFFCURVE",
"300 641 OFFCURVE",
"323 643 CURVE",
"327 699 LINE"
);
},
{
closed = 1;
nodes = (
"453 700 LINE",
"443 645 LINE",
"489 636 LINE",
"500 611 OFFCURVE",
"492 480 OFFCURVE",
"484 354 CURVE SMOOTH",
"475 219 OFFCURVE",
"455 112 OFFCURVE",
"459 96 CURVE SMOOTH",
"460 87 OFFCURVE",
"477 74 OFFCURVE",
"517 58 CURVE",
"406 58 LINE",
"403 0 LINE",
"667 0 LINE",
"674 55 LINE",
"618 63 LINE",
"593 105 OFFCURVE",
"597 219 OFFCURVE",
"604 351 CURVE SMOOTH",
"611 480 OFFCURVE",
"625 590 OFFCURVE",
"636 612 CURVE SMOOTH",
"648 632 OFFCURVE",
"663 640 OFFCURVE",
"686 642 CURVE",
"692 699 LINE"
);
},
{
closed = 1;
nodes = (
"213 310 LINE",
"519 313 LINE",
"516 396 LINE",
"223 396 LINE"
);
}
);
width = 718;
},
{
layerId = "11343128-4963-4E5D-BE9C-B74F53B36FA5";
name = Bold;
width = 600;
}
);
leftKerningGroup = I;
leftMetricsKey = I;
rightKerningGroup = I;
rightMetricsKey = I;
unicode = 0048;
},
{
glyphname = H.001;
lastChange = "2015-12-01 10:14:33 +0000";
layers = (
{
anchors = (
{
name = bottom;
position = "{330, 0}";
},
{
name = center;
position = "{367, 350}";
},
{
name = top;
position = "{363, 640}";
},
{
name = topleft;
position = "{64, 700}";
}
);
background = {
paths = (
{
closed = 1;
nodes = (
"547 671 OFFCURVE",
"476 732 OFFCURVE",
"310 696 CURVE SMOOTH",
"58 641 OFFCURVE",
"4 234 OFFCURVE",
"128 89 CURVE SMOOTH",
"199 6 OFFCURVE",
"281 -23 OFFCURVE",
"421 8 CURVE SMOOTH",
"654 60 OFFCURVE",
"722 458 OFFCURVE",
"593 615 CURVE SMOOTH"
);
},
{
closed = 1;
nodes = (
"325 77 OFFCURVE",
"276 104 OFFCURVE",
"242 179 CURVE SMOOTH",
"173 333 OFFCURVE",
"193 544 OFFCURVE",
"328 627 CURVE",
"385 627 OFFCURVE",
"444 609 OFFCURVE",
"482 522 CURVE SMOOTH",
"546 377 OFFCURVE",
"530 162 OFFCURVE",
"393 77 CURVE"
);
}
);
};
guideLines = (
{
position = "{1800, 733}";
}
);
layerId = "71FD7A9F-05F5-4D76-8D4F-547475A05E4C";
name = "Bold Italic";
paths = (
{
closed = 1;
nodes = (
"81 700 LINE",
"73 646 LINE",
"119 637 LINE",
"130 612 OFFCURVE",
"122 480 OFFCURVE",
"112 348 CURVE SMOOTH",
"102 212 OFFCURVE",
"84 113 OFFCURVE",
"87 97 CURVE SMOOTH",
"89 88 OFFCURVE",
"106 75 OFFCURVE",
"146 59 CURVE",
"28 59 LINE",
"25 0 LINE",
"300 0 LINE",
"307 56 LINE",
"252 64 LINE",
"222 113 OFFCURVE",
"224 212 OFFCURVE",
"233 349 CURVE SMOOTH",
"242 480 OFFCURVE",
"260 591 OFFCURVE",
"271 613 CURVE SMOOTH",
"283 633 OFFCURVE",
"300 641 OFFCURVE",
"323 643 CURVE",
"327 699 LINE"
);
},
{
closed = 1;
nodes = (
"453 700 LINE",
"443 645 LINE",
"489 636 LINE",
"500 611 OFFCURVE",
"492 480 OFFCURVE",
"484 354 CURVE SMOOTH",
"475 219 OFFCURVE",
"455 112 OFFCURVE",
"459 96 CURVE SMOOTH",
"460 87 OFFCURVE",
"477 74 OFFCURVE",
"517 58 CURVE",
"406 58 LINE",
"403 0 LINE",
"667 0 LINE",
"674 55 LINE",
"618 63 LINE",
"593 105 OFFCURVE",
"597 219 OFFCURVE",
"604 351 CURVE SMOOTH",
"611 480 OFFCURVE",
"625 590 OFFCURVE",
"636 612 CURVE SMOOTH",
"648 632 OFFCURVE",
"663 640 OFFCURVE",
"686 642 CURVE",
"692 699 LINE"
);
},
{
closed = 1;
nodes = (
"213 310 LINE",
"519 313 LINE",
"516 396 LINE",
"223 396 LINE"
);
}
);
width = 718;
},
{
layerId = "11343128-4963-4E5D-BE9C-B74F53B36FA5";
name = Bold;
width = 600;
}
);
leftKerningGroup = I;
leftMetricsKey = I;
rightKerningGroup = I;
rightMetricsKey = I;
},
{
glyphname = I;
lastChange = "2015-12-01 10:14:16 +0000";
layers = (
{
anchors = (
{
name = bottom;
position = "{149, 0}";
},
{
name = ogonek;
position = "{256, 10}";
},
{
name = top;
position = "{193, 648}";
},
{
name = topleft;
position = "{73, 700}";
}
);
background = {
paths = (
{
closed = 1;
nodes = (
"458 175 LINE",
"455 172 OFFCURVE",
"445 96 OFFCURVE",
"386 74 CURVE SMOOTH",
"343 58 OFFCURVE",
"286 58 OFFCURVE",
"235 61 CURVE",
"217 150 OFFCURVE",
"228 278 OFFCURVE",
"245 433 CURVE SMOOTH",
"253 505 OFFCURVE",
"263 614 OFFCURVE",
"292 637 CURVE SMOOTH",
"309 650 OFFCURVE",
"326 649 OFFCURVE",
"333 650 CURVE",
"338 700 LINE",
"233 697 OFFCURVE",
"176 697 OFFCURVE",
"78 700 CURVE",
"74 650 LINE",
"85 650 OFFCURVE",
"103 646 OFFCURVE",
"114 634 CURVE SMOOTH",
"138 608 OFFCURVE",
"126 510 OFFCURVE",
"116 418 CURVE SMOOTH",
"103 299 OFFCURVE",
"72 102 OFFCURVE",
"74 88 CURVE SMOOTH",
"78 77 OFFCURVE",
"94 67 OFFCURVE",
"130 51 CURVE",
"11 53 LINE",
"5 0 LINE",
"167 4 OFFCURVE",
"227 4 OFFCURVE",
"482 0 CURVE",
"492 89 OFFCURVE",
"506 159 OFFCURVE",
"507 165 CURVE"
);
}
);
};
layerId = "71FD7A9F-05F5-4D76-8D4F-547475A05E4C";
name = "Bold Italic";
paths = (
{
closed = 1;
nodes = (
"81 700 LINE",
"72 643 LINE",
"118 634 LINE",
"128 609 OFFCURVE",
"125 501 OFFCURVE",
"114 410 CURVE SMOOTH",
"98 275 OFFCURVE",
"76 114 OFFCURVE",
"81 98 CURVE SMOOTH",
"81 89 OFFCURVE",
"88 72 OFFCURVE",
"126 60 CURVE",
"20 60 LINE",
"14 0 LINE",
"296 1 LINE",
"302 58 LINE",
"246 66 LINE",
"212 125 OFFCURVE",
"227 313 OFFCURVE",
"238 435 CURVE SMOOTH",
"248 548 OFFCURVE",
"261 589 OFFCURVE",
"275 610 CURVE SMOOTH",
"287 630 OFFCURVE",
"304 639 OFFCURVE",
"327 641 CURVE",
"333 701 LINE"
);
}
);
width = 346;
},
{
layerId = "11343128-4963-4E5D-BE9C-B74F53B36FA5";
name = Bold;
width = 600;
}
);
leftKerningGroup = I;
rightKerningGroup = I;
unicode = 0049;
},
{
glyphname = I.001;
lastChange = "2015-12-01 10:14:33 +0000";
layers = (
{
anchors = (
{
name = bottom;
position = "{149, 0}";
},
{
name = ogonek;
position = "{256, 10}";
},
{
name = top;
position = "{193, 648}";
},
{
name = topleft;
position = "{73, 700}";
}
);
background = {
paths = (
{
closed = 1;
nodes = (
"458 175 LINE",
"455 172 OFFCURVE",
"445 96 OFFCURVE",
"386 74 CURVE SMOOTH",
"343 58 OFFCURVE",
"286 58 OFFCURVE",
"235 61 CURVE",
"217 150 OFFCURVE",
"228 278 OFFCURVE",
"245 433 CURVE SMOOTH",
"253 505 OFFCURVE",
"263 614 OFFCURVE",
"292 637 CURVE SMOOTH",
"309 650 OFFCURVE",
"326 649 OFFCURVE",
"333 650 CURVE",
"338 700 LINE",
"233 697 OFFCURVE",
"176 697 OFFCURVE",
"78 700 CURVE",
"74 650 LINE",
"85 650 OFFCURVE",
"103 646 OFFCURVE",
"114 634 CURVE SMOOTH",
"138 608 OFFCURVE",
"126 510 OFFCURVE",
"116 418 CURVE SMOOTH",
"103 299 OFFCURVE",
"72 102 OFFCURVE",
"74 88 CURVE SMOOTH",
"78 77 OFFCURVE",
"94 67 OFFCURVE",
"130 51 CURVE",
"11 53 LINE",
"5 0 LINE",
"167 4 OFFCURVE",
"227 4 OFFCURVE",
"482 0 CURVE",
"492 89 OFFCURVE",
"506 159 OFFCURVE",
"507 165 CURVE"
);
}
);
};
layerId = "71FD7A9F-05F5-4D76-8D4F-547475A05E4C";
name = "Bold Italic";
paths = (
{
closed = 1;
nodes = (
"81 700 LINE",
"72 643 LINE",
"118 634 LINE",
"128 609 OFFCURVE",
"125 501 OFFCURVE",
"114 410 CURVE SMOOTH",
"98 275 OFFCURVE",
"76 114 OFFCURVE",
"81 98 CURVE SMOOTH",
"81 89 OFFCURVE",
"88 72 OFFCURVE",
"126 60 CURVE",
"20 60 LINE",
"14 0 LINE",
"296 1 LINE",
"302 58 LINE",
"246 66 LINE",
"212 125 OFFCURVE",
"227 313 OFFCURVE",
"238 435 CURVE SMOOTH",
"248 548 OFFCURVE",
"261 589 OFFCURVE",
"275 610 CURVE SMOOTH",
"287 630 OFFCURVE",
"304 639 OFFCURVE",
"327 641 CURVE",
"333 701 LINE"
);
}
);
width = 346;
},
{
layerId = "11343128-4963-4E5D-BE9C-B74F53B36FA5";
name = Bold;
width = 600;
}
);
leftKerningGroup = I;
rightKerningGroup = I;
},
{
glyphname = J;
lastChange = "2015-12-01 10:14:16 +0000";
layers = (
{
anchors = (
{
name = bottom;
position = "{117, 0}";
},
{
name = top;
position = "{184, 644}";
}
);
background = {
paths = (
{
closed = 1;
nodes = (
"190 504 OFFCURVE",
"107 515 OFFCURVE",
"76 512 CURVE",
"66 471 LINE",
"102 442 LINE",
"105 430 OFFCURVE",
"107 394 OFFCURVE",
"106 371 CURVE SMOOTH",
"104 335 OFFCURVE",
"99 226 OFFCURVE",
"95 179 CURVE",
"66 -23 OFFCURVE",
"51 -66 OFFCURVE",
"30 -94 CURVE",
"18 -94 OFFCURVE",
"4 -88 OFFCURVE",
"-20 -74 CURVE",
"-37 -118 LINE",
"-13 -138 OFFCURVE",
"15 -152 OFFCURVE",
"34 -158 CURVE",
"141 -132 OFFCURVE",
"171 -78 OFFCURVE",
"195 148 CURVE",
"208 282 OFFCURVE",
"232 463 OFFCURVE",
"230 487 CURVE"
);
}
);
};
guideLines = (
{
position = "{1316, 737}";
}
);
layerId = "71FD7A9F-05F5-4D76-8D4F-547475A05E4C";
name = "Bold Italic";
paths = (
{
closed = 1;
nodes = (
"72 700 LINE",
"63 643 LINE",
"111 634 LINE",
"122 609 OFFCURVE",
"116 489 OFFCURVE",
"112 429 CURVE",
"76 46 OFFCURVE",
"62 -21 OFFCURVE",
"28 -81 CURVE",
"10 -79 OFFCURVE",
"-8 -71 OFFCURVE",
"-24 -62 CURVE",
"-48 -118 LINE",
"-26 -137 OFFCURVE",
"3 -151 OFFCURVE",
"23 -158 CURVE",
"138 -130 OFFCURVE",
"194 -40 OFFCURVE",
"203 83 CURVE SMOOTH",
"227 400 OFFCURVE",
"246 588 OFFCURVE",
"259 610 CURVE SMOOTH",
"271 630 OFFCURVE",
"286 638 OFFCURVE",
"309 640 CURVE",
"314 699 LINE"
);
}
);
width = 299;
},
{
layerId = "11343128-4963-4E5D-BE9C-B74F53B36FA5";
name = Bold;
width = 600;
}
);
leftKerningGroup = I;
rightKerningGroup = I;
unicode = 004A;
},
{
glyphname = J.001;
lastChange = "2015-12-01 10:14:33 +0000";
layers = (
{
anchors = (
{
name = bottom;
position = "{117, 0}";
},
{
name = top;
position = "{184, 644}";
}
);
background = {
paths = (
{
closed = 1;
nodes = (
"190 504 OFFCURVE",
"107 515 OFFCURVE",
"76 512 CURVE",
"66 471 LINE",
"102 442 LINE",
"105 430 OFFCURVE",
"107 394 OFFCURVE",
"106 371 CURVE SMOOTH",
"104 335 OFFCURVE",
"99 226 OFFCURVE",
"95 179 CURVE",
"66 -23 OFFCURVE",
"51 -66 OFFCURVE",
"30 -94 CURVE",
"18 -94 OFFCURVE",
"4 -88 OFFCURVE",
"-20 -74 CURVE",
"-37 -118 LINE",
"-13 -138 OFFCURVE",
"15 -152 OFFCURVE",
"34 -158 CURVE",
"141 -132 OFFCURVE",
"171 -78 OFFCURVE",
"195 148 CURVE",
"208 282 OFFCURVE",
"232 463 OFFCURVE",
"230 487 CURVE"
);
}
);
};
guideLines = (
{
position = "{1316, 737}";
}
);
layerId = "71FD7A9F-05F5-4D76-8D4F-547475A05E4C";
name = "Bold Italic";
paths = (
{
closed = 1;
nodes = (
"72 700 LINE",
"63 643 LINE",
"111 634 LINE",
"122 609 OFFCURVE",
"116 489 OFFCURVE",
"112 429 CURVE",
"76 46 OFFCURVE",
"62 -21 OFFCURVE",
"28 -81 CURVE",
"10 -79 OFFCURVE",
"-8 -71 OFFCURVE",
"-24 -62 CURVE",
"-48 -118 LINE",
"-26 -137 OFFCURVE",
"3 -151 OFFCURVE",
"23 -158 CURVE",
"138 -130 OFFCURVE",
"194 -40 OFFCURVE",
"203 83 CURVE SMOOTH",
"227 400 OFFCURVE",
"246 588 OFFCURVE",
"259 610 CURVE SMOOTH",
"271 630 OFFCURVE",
"286 638 OFFCURVE",
"309 640 CURVE",
"314 699 LINE"
);
}
);
width = 299;
},
{
layerId = "11343128-4963-4E5D-BE9C-B74F53B36FA5";
name = Bold;
width = 600;
}
);
leftKerningGroup = I;
rightKerningGroup = I;
},
{
glyphname = K;
lastChange = "2015-12-01 10:14:16 +0000";
layers = (
{
background = {
paths = (
{
closed = 1;
nodes = (
"81 700 LINE",
"76 653 LINE",
"122 644 LINE",
"133 619 OFFCURVE",
"121 480 OFFCURVE",
"107 348 CURVE SMOOTH",
"93 212 OFFCURVE",
"72 104 OFFCURVE",
"74 88 CURVE SMOOTH",
"75 79 OFFCURVE",
"92 66 OFFCURVE",
"132 50 CURVE",
"14 50 LINE",
"9 0 LINE",
"290 0 LINE",
"294 47 LINE",
"238 55 LINE",
"210 104 OFFCURVE",
"214 212 OFFCURVE",
"228 349 CURVE SMOOTH",
"241 480 OFFCURVE",
"261 598 OFFCURVE",
"274 620 CURVE SMOOTH",
"286 640 OFFCURVE",
"303 648 OFFCURVE",
"326 650 CURVE",
"331 699 LINE"
);
},
{
closed = 1;
nodes = (
"452 700 LINE",
"447 653 LINE",
"493 644 LINE",
"504 619 OFFCURVE",
"491 480 OFFCURVE",
"479 354 CURVE SMOOTH",
"466 219 OFFCURVE",
"443 104 OFFCURVE",
"445 88 CURVE SMOOTH",
"446 79 OFFCURVE",
"463 66 OFFCURVE",
"503 50 CURVE",
"392 50 LINE",
"387 0 LINE",
"661 0 LINE",
"665 47 LINE",
"609 55 LINE",
"586 97 OFFCURVE",
"593 219 OFFCURVE",
"604 351 CURVE SMOOTH",
"615 480 OFFCURVE",
"632 598 OFFCURVE",
"645 620 CURVE SMOOTH",
"657 640 OFFCURVE",
"672 648 OFFCURVE",
"695 650 CURVE",
"700 699 LINE"
);
},
{
closed = 1;
nodes = (
"206 308 LINE",
"512 314 LINE",
"513 396 LINE",
"220 396 LINE"
);
}
);
};
layerId = "71FD7A9F-05F5-4D76-8D4F-547475A05E4C";
name = "Bold Italic";
paths = (
{
closed = 1;
nodes = (
"314 352 LINE",
"322 272 OFFCURVE",
"402 52 OFFCURVE",
"429 32 CURVE SMOOTH",
"438 25 OFFCURVE",
"505 -3 OFFCURVE",
"558 -3 CURVE",
"593 5 OFFCURVE",
"630 26 OFFCURVE",
"635 29 CURVE",
"621 82 LINE",
"601 74 OFFCURVE",
"587 73 OFFCURVE",
"576 71 CURVE",
"523 127 OFFCURVE",
"424 326 OFFCURVE",
"400 425 CURVE"
);
},
{
closed = 1;
nodes = (
"82 700 LINE",
"72 644 LINE",
"118 635 LINE",
"129 610 OFFCURVE",
"123 487 OFFCURVE",
"118 427 CURVE SMOOTH",
"106 292 OFFCURVE",
"78 113 OFFCURVE",
"81 97 CURVE SMOOTH",
"82 88 OFFCURVE",
"90 71 OFFCURVE",
"128 59 CURVE",
"21 59 LINE",
"17 0 LINE",
"298 0 LINE",
"305 56 LINE",
"249 64 LINE",
"214 123 OFFCURVE",
"234 286 OFFCURVE",
"245 408 CURVE SMOOTH",
"255 521 OFFCURVE",
"262 589 OFFCURVE",
"274 611 CURVE SMOOTH",
"286 631 OFFCURVE",
"303 639 OFFCURVE",
"326 641 CURVE",
"332 699 LINE"
);
},
{
closed = 1;
nodes = (
"449 575 OFFCURVE",
"305 400 OFFCURVE",
"226 312 CURVE",
"223 187 LINE",
"382 372 LINE",
"461 465 OFFCURVE",
"551 577 OFFCURVE",
"579 606 CURVE SMOOTH",
"603 630 OFFCURVE",
"627 641 OFFCURVE",
"654 641 CURVE",
"660 700 LINE",
"438 700 LINE",
"428 642 LINE",
"478 633 LINE"
);
}
);
width = 647;
},
{
layerId = "11343128-4963-4E5D-BE9C-B74F53B36FA5";
name = Bold;
width = 600;
}
);
leftKerningGroup = I;
leftMetricsKey = I;
rightKerningGroup = X;
unicode = 004B;
},
{
glyphname = K.001;
lastChange = "2015-12-01 10:14:33 +0000";
layers = (
{
background = {
paths = (
{
closed = 1;
nodes = (
"81 700 LINE",
"76 653 LINE",
"122 644 LINE",
"133 619 OFFCURVE",
"121 480 OFFCURVE",
"107 348 CURVE SMOOTH",
"93 212 OFFCURVE",
"72 104 OFFCURVE",
"74 88 CURVE SMOOTH",
"75 79 OFFCURVE",
"92 66 OFFCURVE",
"132 50 CURVE",
"14 50 LINE",
"9 0 LINE",
"290 0 LINE",
"294 47 LINE",
"238 55 LINE",
"210 104 OFFCURVE",
"214 212 OFFCURVE",
"228 349 CURVE SMOOTH",
"241 480 OFFCURVE",
"261 598 OFFCURVE",
"274 620 CURVE SMOOTH",
"286 640 OFFCURVE",
"303 648 OFFCURVE",
"326 650 CURVE",
"331 699 LINE"
);
},
{
closed = 1;
nodes = (
"452 700 LINE",
"447 653 LINE",
"493 644 LINE",
"504 619 OFFCURVE",
"491 480 OFFCURVE",
"479 354 CURVE SMOOTH",
"466 219 OFFCURVE",
"443 104 OFFCURVE",
"445 88 CURVE SMOOTH",
"446 79 OFFCURVE",
"463 66 OFFCURVE",
"503 50 CURVE",
"392 50 LINE",
"387 0 LINE",
"661 0 LINE",
"665 47 LINE",
"609 55 LINE",
"586 97 OFFCURVE",
"593 219 OFFCURVE",
"604 351 CURVE SMOOTH",
"615 480 OFFCURVE",
"632 598 OFFCURVE",
"645 620 CURVE SMOOTH",
"657 640 OFFCURVE",
"672 648 OFFCURVE",
"695 650 CURVE",
"700 699 LINE"
);
},
{
closed = 1;
nodes = (
"206 308 LINE",
"512 314 LINE",
"513 396 LINE",
"220 396 LINE"
);
}
);
};
layerId = "71FD7A9F-05F5-4D76-8D4F-547475A05E4C";
name = "Bold Italic";
paths = (
{
closed = 1;
nodes = (
"314 352 LINE",
"322 272 OFFCURVE",
"402 52 OFFCURVE",
"429 32 CURVE SMOOTH",
"438 25 OFFCURVE",
"505 -3 OFFCURVE",
"558 -3 CURVE",
"593 5 OFFCURVE",
"630 26 OFFCURVE",
"635 29 CURVE",
"621 82 LINE",
"601 74 OFFCURVE",
"587 73 OFFCURVE",
"576 71 CURVE",
"523 127 OFFCURVE",
"424 326 OFFCURVE",
"400 425 CURVE"
);
},
{
closed = 1;
nodes = (
"82 700 LINE",
"72 644 LINE",
"118 635 LINE",
"129 610 OFFCURVE",
"123 487 OFFCURVE",
"118 427 CURVE SMOOTH",
"106 292 OFFCURVE",
"78 113 OFFCURVE",
"81 97 CURVE SMOOTH",
"82 88 OFFCURVE",
"90 71 OFFCURVE",
"128 59 CURVE",
"21 59 LINE",
"17 0 LINE",
"298 0 LINE",
"305 56 LINE",
"249 64 LINE",
"214 123 OFFCURVE",
"234 286 OFFCURVE",
"245 408 CURVE SMOOTH",
"255 521 OFFCURVE",
"262 589 OFFCURVE",
"274 611 CURVE SMOOTH",
"286 631 OFFCURVE",
"303 639 OFFCURVE",
"326 641 CURVE",
"332 699 LINE"
);
},
{
closed = 1;
nodes = (
"449 575 OFFCURVE",
"305 400 OFFCURVE",
"226 312 CURVE",
"223 187 LINE",
"382 372 LINE",
"461 465 OFFCURVE",
"551 577 OFFCURVE",
"579 606 CURVE SMOOTH",
"603 630 OFFCURVE",
"627 641 OFFCURVE",
"654 641 CURVE",
"660 700 LINE",
"438 700 LINE",
"428 642 LINE",
"478 633 LINE"
);
}
);
width = 647;
},
{
layerId = "11343128-4963-4E5D-BE9C-B74F53B36FA5";
name = Bold;
width = 600;
}
);
leftKerningGroup = I;
leftMetricsKey = I;
rightKerningGroup = X;
},
{
glyphname = L;
lastChange = "2015-12-01 10:14:16 +0000";
layers = (
{
anchors = (
{
name = bottom;
position = "{238, 0}";
},
{
name = center;
position = "{174, 370}";
},
{
name = top;
position = "{200, 662}";
},
{
name = topright;
position = "{553, 700}";
}
);
background = {
paths = (
{
closed = 1;
nodes = (
"57 700 LINE",
"49 653 LINE",
"99 642 LINE",
"110 602 OFFCURVE",
"103 484 OFFCURVE",
"100 427 CURVE SMOOTH",
"91 249 OFFCURVE",
"66 101 OFFCURVE",
"69 88 CURVE SMOOTH",
"73 74 OFFCURVE",
"111 56 OFFCURVE",
"130 50 CURVE",
"10 51 LINE",
"7 0 LINE",
"505 -1 LINE",
"532 163 LINE",
"487 173 LINE",
"483 166 OFFCURVE",
"478 115 OFFCURVE",
"415 94 CURVE SMOOTH",
"376 81 OFFCURVE",
"309 80 OFFCURVE",
"235 81 CURVE",
"205 114 OFFCURVE",
"213 228 OFFCURVE",
"221 331 CURVE",
"343 325 LINE",
"354 279 LINE",
"394 282 LINE",
"399 325 OFFCURVE",
"406 410 OFFCURVE",
"391 410 CURVE SMOOTH",
"383 410 OFFCURVE",
"220 404 OFFCURVE",
"226 404 CURVE",
"227 455 OFFCURVE",
"243 569 OFFCURVE",
"254 613 CURVE",
"369 613 LINE",
"463 610 OFFCURVE",
"492 580 OFFCURVE",
"500 527 CURVE",
"547 537 LINE",
"529 699 LINE"
);
}
);
};
guideLines = (
{
angle = -12;
position = "{452, 184}";
}
);
layerId = "71FD7A9F-05F5-4D76-8D4F-547475A05E4C";
name = "Bold Italic";
paths = (
{
closed = 1;
nodes = (
"467 174 LINE",
"429 97 LINE",
"390 83 OFFCURVE",
"284 79 OFFCURVE",
"239 83 CURVE",
"229 121 OFFCURVE",
"229 275 OFFCURVE",
"243 433 CURVE SMOOTH",
"250 513 OFFCURVE",
"254 601 OFFCURVE",
"283 627 CURVE SMOOTH",
"294 637 OFFCURVE",
"313 643 OFFCURVE",
"324 643 CURVE",
"328 700 LINE",
"80 700 LINE",
"72 643 LINE",
"119 634 LINE",
"128 601 OFFCURVE",
"124 510 OFFCURVE",
"116 418 CURVE SMOOTH",
"103 282 OFFCURVE",
"77 116 OFFCURVE",
"81 96 CURVE SMOOTH",
"83 87 OFFCURVE",
"90 81 OFFCURVE",
"139 59 CURVE",
"22 59 LINE",
"18 0 LINE",
"506 0 LINE",
"516 89 OFFCURVE",
"528 159 OFFCURVE",
"529 165 CURVE"
);
}
);
width = 525;
},
{
layerId = "11343128-4963-4E5D-BE9C-B74F53B36FA5";
name = Bold;
width = 600;
}
);
leftKerningGroup = I;
leftMetricsKey = I;
rightKerningGroup = L;
unicode = 004C;
},
{
glyphname = L.001;
lastChange = "2015-12-01 10:14:33 +0000";
layers = (
{
anchors = (
{
name = bottom;
position = "{238, 0}";
},
{
name = center;
position = "{174, 370}";
},
{
name = top;
position = "{200, 662}";
},
{
name = topright;
position = "{553, 700}";
}
);
background = {
paths = (
{
closed = 1;
nodes = (
"57 700 LINE",
"49 653 LINE",
"99 642 LINE",
"110 602 OFFCURVE",
"103 484 OFFCURVE",
"100 427 CURVE SMOOTH",
"91 249 OFFCURVE",
"66 101 OFFCURVE",
"69 88 CURVE SMOOTH",
"73 74 OFFCURVE",
"111 56 OFFCURVE",
"130 50 CURVE",
"10 51 LINE",
"7 0 LINE",
"505 -1 LINE",
"532 163 LINE",
"487 173 LINE",
"483 166 OFFCURVE",
"478 115 OFFCURVE",
"415 94 CURVE SMOOTH",
"376 81 OFFCURVE",
"309 80 OFFCURVE",
"235 81 CURVE",
"205 114 OFFCURVE",
"213 228 OFFCURVE",
"221 331 CURVE",
"343 325 LINE",
"354 279 LINE",
"394 282 LINE",
"399 325 OFFCURVE",
"406 410 OFFCURVE",
"391 410 CURVE SMOOTH",
"383 410 OFFCURVE",
"220 404 OFFCURVE",
"226 404 CURVE",
"227 455 OFFCURVE",
"243 569 OFFCURVE",
"254 613 CURVE",
"369 613 LINE",
"463 610 OFFCURVE",
"492 580 OFFCURVE",
"500 527 CURVE",
"547 537 LINE",
"529 699 LINE"
);
}
);
};
guideLines = (
{
angle = -12;
position = "{452, 184}";
}
);
layerId = "71FD7A9F-05F5-4D76-8D4F-547475A05E4C";
name = "Bold Italic";
paths = (
{
closed = 1;
nodes = (
"467 174 LINE",
"429 97 LINE",
"390 83 OFFCURVE",
"284 79 OFFCURVE",
"239 83 CURVE",
"229 121 OFFCURVE",
"229 275 OFFCURVE",
"243 433 CURVE SMOOTH",
"250 513 OFFCURVE",
"254 601 OFFCURVE",
"283 627 CURVE SMOOTH",
"294 637 OFFCURVE",
"313 643 OFFCURVE",
"324 643 CURVE",
"328 700 LINE",
"80 700 LINE",
"72 643 LINE",
"119 634 LINE",
"128 601 OFFCURVE",
"124 510 OFFCURVE",
"116 418 CURVE SMOOTH",
"103 282 OFFCURVE",
"77 116 OFFCURVE",
"81 96 CURVE SMOOTH",
"83 87 OFFCURVE",
"90 81 OFFCURVE",
"139 59 CURVE",
"22 59 LINE",
"18 0 LINE",
"506 0 LINE",
"516 89 OFFCURVE",
"528 159 OFFCURVE",
"529 165 CURVE"
);
}
);
width = 525;
},
{
layerId = "11343128-4963-4E5D-BE9C-B74F53B36FA5";
name = Bold;
width = 600;
}
);
leftKerningGroup = I;
leftMetricsKey = I;
rightKerningGroup = L;
},
{
glyphname = M;
lastChange = "2015-12-01 10:14:16 +0000";
layers = (
{
background = {
paths = (
{
closed = 1;
nodes = (
"475 87 LINE",
"460 169 OFFCURVE",
"354 610 OFFCURVE",
"350 617 CURVE SMOOTH",
"343 628 OFFCURVE",
"326 642 OFFCURVE",
"303 650 CURVE",
"396 650 LINE",
"401 700 LINE",
"140 700 LINE",
"131 653 LINE",
"185 645 LINE",
"209 613 OFFCURVE",
"254 448 OFFCURVE",
"287 327 CURVE SMOOTH",
"316 220 OFFCURVE",
"356 44 OFFCURVE",
"369 0 CURVE"
);
},
{
closed = 1;
nodes = (
"599 608 OFFCURVE",
"555 463 OFFCURVE",
"536 412 CURVE SMOOTH",
"436 144 OFFCURVE",
"392 44 OFFCURVE",
"371 0 CURVE",
"482 0 LINE",
"569 270 OFFCURVE",
"673 545 OFFCURVE",
"692 592 CURVE SMOOTH",
"711 638 OFFCURVE",
"747 650 OFFCURVE",
"777 650 CURVE",
"782 700 LINE",
"531 700 LINE",
"522 653 LINE",
"589 640 LINE"
);
}
);
};
layerId = "71FD7A9F-05F5-4D76-8D4F-547475A05E4C";
name = "Bold Italic";
paths = (
{
closed = 1;
nodes = (
"240 480 LINE",
"295 329 OFFCURVE",
"380 6 OFFCURVE",
"383 0 CURVE",
"466 193 LINE",
"453 212 OFFCURVE",
"363 520 OFFCURVE",
"324 700 CURVE",
"319 695 LINE",
"322 700 LINE",
"186 635 LINE"
);
},
{
closed = 1;
nodes = (
"524 143 OFFCURVE",
"608 385 OFFCURVE",
"644 479 CURVE",
"653 323 OFFCURVE",
"665 98 OFFCURVE",
"667 93 CURVE SMOOTH",
"671 82 OFFCURVE",
"683 68 OFFCURVE",
"712 58 CURVE",
"620 58 LINE",
"616 0 LINE",
"868 0 LINE",
"875 55 LINE",
"824 62 LINE",
"793 147 OFFCURVE",
"776 452 OFFCURVE",
"762 583 CURVE SMOOTH",
"757 627 OFFCURVE",
"782 644 OFFCURVE",
"809 644 CURVE",
"814 700 LINE",
"621 700 LINE",
"580 553 OFFCURVE",
"496 312 OFFCURVE",
"441 178 CURVE",
"419 119 OFFCURVE",
"408 59 OFFCURVE",
"383 0 CURVE",
"483 0 LINE"
);
},
{
closed = 1;
nodes = (
"191 94 OFFCURVE",
"200 193 OFFCURVE",
"205 243 CURVE SMOOTH",
"215 339 OFFCURVE",
"230 429 OFFCURVE",
"255 541 CURVE",
"270 596 OFFCURVE",
"300 680 OFFCURVE",
"324 700 CURVE",
"136 700 LINE",
"128 646 LINE",
"184 631 LINE",
"148 376 OFFCURVE",
"113 169 OFFCURVE",
"96 126 CURVE SMOOTH",
"72 67 OFFCURVE",
"38 56 OFFCURVE",
"12 56 CURVE",
"5 0 LINE",
"244 0 LINE",
"254 55 LINE",
"201 64 LINE"
);
}
);
width = 915;
},
{
layerId = "11343128-4963-4E5D-BE9C-B74F53B36FA5";
name = Bold;
width = 600;
}
);
leftKerningGroup = A;
rightKerningGroup = A;
unicode = 004D;
},
{
glyphname = M.001;
lastChange = "2015-12-01 10:14:33 +0000";
layers = (
{
background = {
paths = (
{
closed = 1;
nodes = (
"475 87 LINE",
"460 169 OFFCURVE",
"354 610 OFFCURVE",
"350 617 CURVE SMOOTH",
"343 628 OFFCURVE",
"326 642 OFFCURVE",
"303 650 CURVE",
"396 650 LINE",
"401 700 LINE",
"140 700 LINE",
"131 653 LINE",
"185 645 LINE",
"209 613 OFFCURVE",
"254 448 OFFCURVE",
"287 327 CURVE SMOOTH",
"316 220 OFFCURVE",
"356 44 OFFCURVE",
"369 0 CURVE"
);
},
{
closed = 1;
nodes = (
"599 608 OFFCURVE",
"555 463 OFFCURVE",
"536 412 CURVE SMOOTH",
"436 144 OFFCURVE",
"392 44 OFFCURVE",
"371 0 CURVE",
"482 0 LINE",
"569 270 OFFCURVE",
"673 545 OFFCURVE",
"692 592 CURVE SMOOTH",
"711 638 OFFCURVE",
"747 650 OFFCURVE",
"777 650 CURVE",
"782 700 LINE",
"531 700 LINE",
"522 653 LINE",
"589 640 LINE"
);
}
);
};
layerId = "71FD7A9F-05F5-4D76-8D4F-547475A05E4C";
name = "Bold Italic";
paths = (
{
closed = 1;
nodes = (
"240 480 LINE",
"295 329 OFFCURVE",
"380 6 OFFCURVE",
"383 0 CURVE",
"466 193 LINE",
"453 212 OFFCURVE",
"363 520 OFFCURVE",
"324 700 CURVE",
"319 695 LINE",
"322 700 LINE",
"186 635 LINE"
);
},
{
closed = 1;
nodes = (
"524 143 OFFCURVE",
"608 385 OFFCURVE",
"644 479 CURVE",
"653 323 OFFCURVE",
"665 98 OFFCURVE",
"667 93 CURVE SMOOTH",
"671 82 OFFCURVE",
"683 68 OFFCURVE",
"712 58 CURVE",
"620 58 LINE",
"616 0 LINE",
"868 0 LINE",
"875 55 LINE",
"824 62 LINE",
"793 147 OFFCURVE",
"776 452 OFFCURVE",
"762 583 CURVE SMOOTH",
"757 627 OFFCURVE",
"782 644 OFFCURVE",
"809 644 CURVE",
"814 700 LINE",
"621 700 LINE",
"580 553 OFFCURVE",
"496 312 OFFCURVE",
"441 178 CURVE",
"419 119 OFFCURVE",
"408 59 OFFCURVE",
"383 0 CURVE",
"483 0 LINE"
);
},
{
closed = 1;
nodes = (
"191 94 OFFCURVE",
"200 193 OFFCURVE",
"205 243 CURVE SMOOTH",
"215 339 OFFCURVE",
"230 429 OFFCURVE",
"255 541 CURVE",
"270 596 OFFCURVE",
"300 680 OFFCURVE",
"324 700 CURVE",
"136 700 LINE",
"128 646 LINE",
"184 631 LINE",
"148 376 OFFCURVE",
"113 169 OFFCURVE",
"96 126 CURVE SMOOTH",
"72 67 OFFCURVE",
"38 56 OFFCURVE",
"12 56 CURVE",
"5 0 LINE",
"244 0 LINE",
"254 55 LINE",
"201 64 LINE"
);
}
);
width = 915;
},
{
layerId = "11343128-4963-4E5D-BE9C-B74F53B36FA5";
name = Bold;
width = 600;
}
);
leftKerningGroup = A;
rightKerningGroup = A;
},
{
glyphname = N;
lastChange = "2015-12-01 10:14:16 +0000";
layers = (
{
anchors = (
{
name = bottom;
position = "{313, 0}";
},
{
name = top;
position = "{367, 661}";
}
);
background = {
paths = (
{
closed = 1;
nodes = (
"315 352 LINE",
"323 272 OFFCURVE",
"403 52 OFFCURVE",
"430 32 CURVE SMOOTH",
"439 25 OFFCURVE",
"511 -1 OFFCURVE",
"564 -1 CURVE",
"599 7 OFFCURVE",
"626 25 OFFCURVE",
"631 28 CURVE",
"626 74 LINE",
"606 66 OFFCURVE",
"592 65 OFFCURVE",
"581 63 CURVE",
"528 119 OFFCURVE",
"425 326 OFFCURVE",
"401 425 CURVE"
);
},
{
closed = 1;
nodes = (
"79 700 LINE",
"71 653 LINE",
"117 644 LINE",
"128 619 OFFCURVE",
"120 487 OFFCURVE",
"115 427 CURVE SMOOTH",
"103 292 OFFCURVE",
"76 104 OFFCURVE",
"79 88 CURVE SMOOTH",
"80 79 OFFCURVE",
"88 62 OFFCURVE",
"126 50 CURVE",
"19 50 LINE",
"15 0 LINE",
"300 0 LINE",
"307 47 LINE",
"251 55 LINE",
"216 114 OFFCURVE",
"235 286 OFFCURVE",
"246 408 CURVE SMOOTH",
"256 521 OFFCURVE",
"265 598 OFFCURVE",
"277 620 CURVE SMOOTH",
"289 640 OFFCURVE",
"306 648 OFFCURVE",
"329 650 CURVE",
"333 699 LINE"
);
},
{
closed = 1;
nodes = (
"452 584 OFFCURVE",
"306 400 OFFCURVE",
"227 312 CURVE",
"225 203 LINE",
"373 372 LINE",
"452 465 OFFCURVE",
"554 586 OFFCURVE",
"582 615 CURVE SMOOTH",
"606 639 OFFCURVE",
"630 650 OFFCURVE",
"657 650 CURVE",
"661 700 LINE",
"439 700 LINE",
"431 651 LINE",
"481 642 LINE"
);
}
);
};
layerId = "71FD7A9F-05F5-4D76-8D4F-547475A05E4C";
name = "Bold Italic";
paths = (
{
closed = 1;
nodes = (
"145 564 LINE",
"184 526 OFFCURVE",
"252 404 OFFCURVE",
"282 351 CURVE SMOOTH",
"317 289 OFFCURVE",
"470 -3 OFFCURVE",
"473 -7 CURVE",
"569 120 LINE",
"532 172 OFFCURVE",
"455 293 OFFCURVE",
"423 351 CURVE SMOOTH",
"392 408 OFFCURVE",
"300 582 OFFCURVE",
"246 700 CURVE",
"242 695 LINE",
"244 700 LINE",
"140 592 LINE"
);
},
{
closed = 1;
nodes = (
"204 97 OFFCURVE",
"210 186 OFFCURVE",
"214 236 CURVE SMOOTH",
"225 383 OFFCURVE",
"236 640 OFFCURVE",
"246 700 CURVE",
"81 700 LINE",
"72 643 LINE",
"124 632 LINE",
"132 498 OFFCURVE",
"104 172 OFFCURVE",
"90 129 CURVE SMOOTH",
"71 70 OFFCURVE",
"37 58 OFFCURVE",
"11 58 CURVE",
"6 0 LINE",
"270 0 LINE",
"279 58 LINE",
"218 67 LINE"
);
},
{
closed = 1;
nodes = (
"499 604 OFFCURVE",
"493 514 OFFCURVE",
"489 464 CURVE SMOOTH",
"462 113 OFFCURVE",
"475 101 OFFCURVE",
"473 -7 CURVE",
"567 1 LINE",
"577 287 OFFCURVE",
"596 515 OFFCURVE",
"615 572 CURVE SMOOTH",
"634 631 OFFCURVE",
"675 642 OFFCURVE",
"701 642 CURVE",
"707 700 LINE",
"441 700 LINE",
"431 643 LINE",
"485 634 LINE"
);
}
);
width = 684;
},
{
layerId = "11343128-4963-4E5D-BE9C-B74F53B36FA5";
name = Bold;
width = 600;
}
);
leftKerningGroup = I;
leftMetricsKey = I;
rightKerningGroup = I;
rightMetricsKey = I;
unicode = 004E;
},
{
glyphname = N.001;
lastChange = "2015-12-01 10:14:33 +0000";
layers = (
{
anchors = (
{
name = bottom;
position = "{313, 0}";
},
{
name = top;
position = "{367, 661}";
}
);
background = {
paths = (
{
closed = 1;
nodes = (
"315 352 LINE",
"323 272 OFFCURVE",
"403 52 OFFCURVE",
"430 32 CURVE SMOOTH",
"439 25 OFFCURVE",
"511 -1 OFFCURVE",
"564 -1 CURVE",
"599 7 OFFCURVE",
"626 25 OFFCURVE",
"631 28 CURVE",
"626 74 LINE",
"606 66 OFFCURVE",
"592 65 OFFCURVE",
"581 63 CURVE",
"528 119 OFFCURVE",
"425 326 OFFCURVE",
"401 425 CURVE"
);
},
{
closed = 1;
nodes = (
"79 700 LINE",
"71 653 LINE",
"117 644 LINE",
"128 619 OFFCURVE",
"120 487 OFFCURVE",
"115 427 CURVE SMOOTH",
"103 292 OFFCURVE",
"76 104 OFFCURVE",
"79 88 CURVE SMOOTH",
"80 79 OFFCURVE",
"88 62 OFFCURVE",
"126 50 CURVE",
"19 50 LINE",
"15 0 LINE",
"300 0 LINE",
"307 47 LINE",
"251 55 LINE",
"216 114 OFFCURVE",
"235 286 OFFCURVE",
"246 408 CURVE SMOOTH",
"256 521 OFFCURVE",
"265 598 OFFCURVE",
"277 620 CURVE SMOOTH",
"289 640 OFFCURVE",
"306 648 OFFCURVE",
"329 650 CURVE",
"333 699 LINE"
);
},
{
closed = 1;
nodes = (
"452 584 OFFCURVE",
"306 400 OFFCURVE",
"227 312 CURVE",
"225 203 LINE",
"373 372 LINE",
"452 465 OFFCURVE",
"554 586 OFFCURVE",
"582 615 CURVE SMOOTH",
"606 639 OFFCURVE",
"630 650 OFFCURVE",
"657 650 CURVE",
"661 700 LINE",
"439 700 LINE",
"431 651 LINE",
"481 642 LINE"
);
}
);
};
layerId = "71FD7A9F-05F5-4D76-8D4F-547475A05E4C";
name = "Bold Italic";
paths = (
{
closed = 1;
nodes = (
"145 564 LINE",
"184 526 OFFCURVE",
"252 404 OFFCURVE",
"282 351 CURVE SMOOTH",
"317 289 OFFCURVE",
"470 -3 OFFCURVE",
"473 -7 CURVE",
"569 120 LINE",
"532 172 OFFCURVE",
"455 293 OFFCURVE",
"423 351 CURVE SMOOTH",
"392 408 OFFCURVE",
"300 582 OFFCURVE",
"246 700 CURVE",
"242 695 LINE",
"244 700 LINE",
"140 592 LINE"
);
},
{
closed = 1;
nodes = (
"204 97 OFFCURVE",
"210 186 OFFCURVE",
"214 236 CURVE SMOOTH",
"225 383 OFFCURVE",
"236 640 OFFCURVE",
"246 700 CURVE",
"81 700 LINE",
"72 643 LINE",
"124 632 LINE",
"132 498 OFFCURVE",
"104 172 OFFCURVE",
"90 129 CURVE SMOOTH",
"71 70 OFFCURVE",
"37 58 OFFCURVE",
"11 58 CURVE",
"6 0 LINE",
"270 0 LINE",
"279 58 LINE",
"218 67 LINE"
);
},
{
closed = 1;
nodes = (
"499 604 OFFCURVE",
"493 514 OFFCURVE",
"489 464 CURVE SMOOTH",
"462 113 OFFCURVE",
"475 101 OFFCURVE",
"473 -7 CURVE",
"567 1 LINE",
"577 287 OFFCURVE",
"596 515 OFFCURVE",
"615 572 CURVE SMOOTH",
"634 631 OFFCURVE",
"675 642 OFFCURVE",
"701 642 CURVE",
"707 700 LINE",
"441 700 LINE",
"431 643 LINE",
"485 634 LINE"
);
}
);
width = 684;
},
{
layerId = "11343128-4963-4E5D-BE9C-B74F53B36FA5";
name = Bold;
width = 600;
}
);
leftKerningGroup = I;
leftMetricsKey = I;
rightKerningGroup = I;
rightMetricsKey = I;
},
{
glyphname = Eng;
lastChange = "2015-12-01 10:14:16 +0000";
layers = (
{
anchors = (
{
name = bottom;
position = "{313, 0}";
},
{
name = top;
position = "{367, 661}";
}
);
background = {
paths = (
{
closed = 1;
nodes = (
"386 -271 OFFCURVE",
"472 -240 CURVE SMOOTH",
"589 -199 OFFCURVE",
"576 -45 OFFCURVE",
"503 23 CURVE",
"456 21 LINE",
"489 -16 OFFCURVE",
"488 -97 OFFCURVE",
"442 -140 CURVE SMOOTH",
"416 -165 OFFCURVE",
"390 -165 OFFCURVE",
"362 -153 CURVE SMOOTH",
"324 -136 OFFCURVE",
"298 -101 OFFCURVE",
"293 -87 CURVE",
"267 -119 LINE",
"292 -203 OFFCURVE"
);
}
);
};
layerId = "71FD7A9F-05F5-4D76-8D4F-547475A05E4C";
name = "Bold Italic";
paths = (
{
closed = 1;
nodes = (
"204 97 OFFCURVE",
"210 186 OFFCURVE",
"214 236 CURVE SMOOTH",
"225 383 OFFCURVE",
"236 640 OFFCURVE",
"246 700 CURVE",
"81 700 LINE",
"72 643 LINE",
"124 632 LINE",
"132 498 OFFCURVE",
"104 172 OFFCURVE",
"90 129 CURVE SMOOTH",
"71 70 OFFCURVE",
"37 58 OFFCURVE",
"11 58 CURVE",
"6 0 LINE",
"270 0 LINE",
"279 58 LINE",
"218 67 LINE"
);
},
{
closed = 1;
nodes = (
"431 643 LINE",
"485 634 LINE",
"499 604 OFFCURVE",
"493 514 OFFCURVE",
"489 464 CURVE SMOOTH",
"482 379 OFFCURVE",
"478 314 OFFCURVE",
"476 263 CURVE",
"455 296 OFFCURVE",
"435 328 OFFCURVE",
"423 351 CURVE SMOOTH",
"392 408 OFFCURVE",
"300 582 OFFCURVE",
"246 700 CURVE",
"242 695 LINE",
"244 700 LINE",
"140 592 LINE",
"145 564 LINE",
"184 526 OFFCURVE",
"252 404 OFFCURVE",
"282 351 CURVE SMOOTH",
"314 294 OFFCURVE",
"444 45 OFFCURVE",
"465 0 CURVE SMOOTH",
"497 -67 OFFCURVE",
"469 -117 OFFCURVE",
"433 -144 CURVE",
"390 -173 OFFCURVE",
"332 -176 OFFCURVE",
"279 -138 CURVE",
"261 -185 LINE",
"292 -224 OFFCURVE",
"392 -283 OFFCURVE",
"476 -233 CURVE SMOOTH",
"565 -180 OFFCURVE",
"563 -78 OFFCURVE",
"567 1 CURVE SMOOTH",
"581 287 OFFCURVE",
"596 515 OFFCURVE",
"615 572 CURVE SMOOTH",
"634 631 OFFCURVE",
"675 642 OFFCURVE",
"701 642 CURVE",
"707 700 LINE",
"441 700 LINE"
);
}
);
width = 679;
},
{
layerId = "11343128-4963-4E5D-BE9C-B74F53B36FA5";
name = Bold;
width = 600;
}
);
unicode = 014A;
},
{
glyphname = O;
lastChange = "2015-12-01 10:14:16 +0000";
layers = (
{
anchors = (
{
name = bottom;
position = "{312, 0}";
},
{
name = center;
position = "{349, 350}";
},
{
name = ogonek;
position = "{582, 10}";
},
{
name = top;
position = "{364, 656}";
},
{
name = topleft;
position = "{68, 700}";
},
{
name = topright;
position = "{702, 700}";
}
);
background = {
paths = (
{
closed = 1;
nodes = (
"553 675 OFFCURVE",
"481 725 OFFCURVE",
"329 709 CURVE",
"52 650 OFFCURVE",
"-41 261 OFFCURVE",
"108 75 CURVE SMOOTH",
"174 -7 OFFCURVE",
"277 -34 OFFCURVE",
"398 -3 CURVE",
"678 94 OFFCURVE",
"723 460 OFFCURVE",
"598 617 CURVE SMOOTH"
);
},
{
closed = 1;
nodes = (
"305 101 OFFCURVE",
"270 140 OFFCURVE",
"239 210 CURVE SMOOTH",
"183 337 OFFCURVE",
"227 535 OFFCURVE",
"342 598 CURVE",
"384 598 OFFCURVE",
"424 563 OFFCURVE",
"458 497 CURVE SMOOTH",
"515 379 OFFCURVE",
"483 178 OFFCURVE",
"362 101 CURVE"
);
}
);
};
layerId = "71FD7A9F-05F5-4D76-8D4F-547475A05E4C";
name = "Bold Italic";
paths = (
{
closed = 1;
nodes = (
"543 683 OFFCURVE",
"456 727 OFFCURVE",
"322 709 CURVE",
"33 647 OFFCURVE",
"-26 244 OFFCURVE",
"108 81 CURVE SMOOTH",
"179 -7 OFFCURVE",
"288 -28 OFFCURVE",
"405 0 CURVE",
"660 77 OFFCURVE",
"731 439 OFFCURVE",
"594 616 CURVE SMOOTH"
);
},
{
closed = 1;
nodes = (
"319 74 OFFCURVE",
"266 99 OFFCURVE",
"231 176 CURVE SMOOTH",
"157 333 OFFCURVE",
"185 545 OFFCURVE",
"325 626 CURVE",
"384 626 OFFCURVE",
"434 608 OFFCURVE",
"474 519 CURVE SMOOTH",
"542 371 OFFCURVE",
"517 162 OFFCURVE",
"379 75 CURVE"
);
}
);
width = 684;
},
{
layerId = "11343128-4963-4E5D-BE9C-B74F53B36FA5";
name = Bold;
width = 600;
}
);
leftKerningGroup = O;
rightKerningGroup = O;
unicode = 004F;
},
{
glyphname = O.001;
lastChange = "2015-12-01 10:14:33 +0000";
layers = (
{
anchors = (
{
name = bottom;
position = "{312, 0}";
},
{
name = center;
position = "{349, 350}";
},
{
name = ogonek;
position = "{582, 10}";
},
{
name = top;
position = "{364, 656}";
},
{
name = topleft;
position = "{68, 700}";
},
{
name = topright;
position = "{702, 700}";
}
);
background = {
paths = (
{
closed = 1;
nodes = (
"553 675 OFFCURVE",
"481 725 OFFCURVE",
"329 709 CURVE",
"52 650 OFFCURVE",
"-41 261 OFFCURVE",
"108 75 CURVE SMOOTH",
"174 -7 OFFCURVE",
"277 -34 OFFCURVE",
"398 -3 CURVE",
"678 94 OFFCURVE",
"723 460 OFFCURVE",
"598 617 CURVE SMOOTH"
);
},
{
closed = 1;
nodes = (
"305 101 OFFCURVE",
"270 140 OFFCURVE",
"239 210 CURVE SMOOTH",
"183 337 OFFCURVE",
"227 535 OFFCURVE",
"342 598 CURVE",
"384 598 OFFCURVE",
"424 563 OFFCURVE",
"458 497 CURVE SMOOTH",
"515 379 OFFCURVE",
"483 178 OFFCURVE",
"362 101 CURVE"
);
}
);
};
layerId = "71FD7A9F-05F5-4D76-8D4F-547475A05E4C";
name = "Bold Italic";
paths = (
{
closed = 1;
nodes = (
"543 683 OFFCURVE",
"456 727 OFFCURVE",
"322 709 CURVE",
"33 647 OFFCURVE",
"-26 244 OFFCURVE",
"108 81 CURVE SMOOTH",
"179 -7 OFFCURVE",
"288 -28 OFFCURVE",
"405 0 CURVE",
"660 77 OFFCURVE",
"731 439 OFFCURVE",
"594 616 CURVE SMOOTH"
);
},
{
closed = 1;
nodes = (
"319 74 OFFCURVE",
"266 99 OFFCURVE",
"231 176 CURVE SMOOTH",
"157 333 OFFCURVE",
"185 545 OFFCURVE",
"325 626 CURVE",
"384 626 OFFCURVE",
"434 608 OFFCURVE",
"474 519 CURVE SMOOTH",
"542 371 OFFCURVE",
"517 162 OFFCURVE",
"379 75 CURVE"
);
}
);
width = 684;
},
{
layerId = "11343128-4963-4E5D-BE9C-B74F53B36FA5";
name = Bold;
width = 600;
}
);
leftKerningGroup = O;
rightKerningGroup = O;
},
{
glyphname = OE;
lastChange = "2015-12-01 10:14:16 +0000";
layers = (
{
anchors = (
{
name = bottom;
position = "{450, 0}";
},
{
name = top;
position = "{523, 700}";
}
);
components = (
{
name = E;
transform = "{1, 0, 0, 1, 391, 0}";
}
);
layerId = "71FD7A9F-05F5-4D76-8D4F-547475A05E4C";
name = "Bold Italic";
paths = (
{
closed = 1;
nodes = (
"543 683 OFFCURVE",
"456 727 OFFCURVE",
"322 709 CURVE",
"33 647 OFFCURVE",
"-26 244 OFFCURVE",
"108 81 CURVE SMOOTH",
"179 -7 OFFCURVE",
"290 -30 OFFCURVE",
"407 -2 CURVE",
"508 29 OFFCURVE",
"537 5 OFFCURVE",
"585 96 CURVE",
"623 511 LINE",
"612 550 OFFCURVE",
"627 586 OFFCURVE",
"601 616 CURVE SMOOTH"
);
},
{
closed = 1;
nodes = (
"323 74 OFFCURVE",
"269 104 OFFCURVE",
"233 181 CURVE SMOOTH",
"159 338 OFFCURVE",
"190 553 OFFCURVE",
"330 634 CURVE",
"426 634 OFFCURVE",
"505 593 OFFCURVE",
"521 508 CURVE",
"512 356 OFFCURVE",
"509 75 OFFCURVE",
"383 75 CURVE"
);
}
);
width = 972;
},
{
layerId = "11343128-4963-4E5D-BE9C-B74F53B36FA5";
name = Bold;
width = 600;
}
);
leftMetricsKey = O;
rightMetricsKey = E;
unicode = 0152;
},
{
glyphname = P;
lastChange = "2015-12-01 10:14:16 +0000";
layers = (
{
background = {
paths = (
{
closed = 1;
nodes = (
"416 304 LINE",
"503 334 OFFCURVE",
"583 430 OFFCURVE",
"564 545 CURVE SMOOTH",
"529 752 OFFCURVE",
"203 703 OFFCURVE",
"79 699 CURVE",
"72 653 LINE",
"119 644 LINE",
"131 604 OFFCURVE",
"124 466 OFFCURVE",
"109 326 CURVE SMOOTH",
"91 158 OFFCURVE",
"78 96 OFFCURVE",
"83 85 CURVE SMOOTH",
"86 76 OFFCURVE",
"118 50 OFFCURVE",
"142 50 CURVE",
"24 51 LINE",
"19 0 LINE",
"299 0 LINE",
"306 47 LINE",
"252 55 LINE",
"231 108 OFFCURVE",
"225 157 OFFCURVE",
"236 285 CURVE",
"255 283 OFFCURVE",
"313 283 OFFCURVE",
"336 284 CURVE"
);
},
{
closed = 1;
nodes = (
"274 626 CURVE",
"444 635 OFFCURVE",
"468 404 OFFCURVE",
"363 363 CURVE",
"343 363 OFFCURVE",
"291 367 OFFCURVE",
"241 385 CURVE",
"249 480 OFFCURVE",
"257 550 OFFCURVE"
);
},
{
closed = 1;
nodes = (
"342 291 LINE",
"347 273 OFFCURVE",
"360 60 OFFCURVE",
"398 32 CURVE SMOOTH",
"407 25 OFFCURVE",
"479 -1 OFFCURVE",
"532 -1 CURVE",
"565 7 OFFCURVE",
"592 25 OFFCURVE",
"597 28 CURVE",
"592 74 LINE",
"572 66 OFFCURVE",
"558 65 OFFCURVE",
"547 63 CURVE",
"494 119 OFFCURVE",
"463 229 OFFCURVE",
"437 327 CURVE"
);
}
);
};
guideLines = (
{
angle = 84;
position = "{610, 311}";
}
);
layerId = "71FD7A9F-05F5-4D76-8D4F-547475A05E4C";
name = "Bold Italic";
paths = (
{
closed = 1;
nodes = (
"381 714 OFFCURVE",
"261 709 OFFCURVE",
"79 700 CURVE",
"72 643 LINE",
"118 634 LINE",
"128 612 OFFCURVE",
"120 481 OFFCURVE",
"115 421 CURVE SMOOTH",
"106 309 OFFCURVE",
"75 109 OFFCURVE",
"79 96 CURVE",
"81 84 OFFCURVE",
"104 70 OFFCURVE",
"138 58 CURVE",
"22 58 LINE",
"17 0 LINE",
"296 0 LINE",
"305 55 LINE",
"249 63 LINE",
"227 97 OFFCURVE",
"227 162 OFFCURVE",
"231 268 CURVE",
"263 261 OFFCURVE",
"312 264 OFFCURVE",
"343 268 CURVE",
"589 316 OFFCURVE",
"642 589 OFFCURVE",
"472 670 CURVE SMOOTH"
);
},
{
closed = 1;
nodes = (
"324 346 OFFCURVE",
"275 345 OFFCURVE",
"239 362 CURVE",
"246 447 OFFCURVE",
"256 547 OFFCURVE",
"274 626 CURVE",
"444 633 OFFCURVE",
"482 411 OFFCURVE",
"362 348 CURVE"
);
}
);
width = 578;
},
{
layerId = "11343128-4963-4E5D-BE9C-B74F53B36FA5";
name = Bold;
width = 600;
}
);
leftKerningGroup = I;
leftMetricsKey = I;
rightKerningGroup = T;
rightMetricsKey = O;
unicode = 0050;
},
{
glyphname = P.001;
lastChange = "2015-12-01 10:14:33 +0000";
layers = (
{
background = {
paths = (
{
closed = 1;
nodes = (
"416 304 LINE",
"503 334 OFFCURVE",
"583 430 OFFCURVE",
"564 545 CURVE SMOOTH",
"529 752 OFFCURVE",
"203 703 OFFCURVE",
"79 699 CURVE",
"72 653 LINE",
"119 644 LINE",
"131 604 OFFCURVE",
"124 466 OFFCURVE",
"109 326 CURVE SMOOTH",
"91 158 OFFCURVE",
"78 96 OFFCURVE",
"83 85 CURVE SMOOTH",
"86 76 OFFCURVE",
"118 50 OFFCURVE",
"142 50 CURVE",
"24 51 LINE",
"19 0 LINE",
"299 0 LINE",
"306 47 LINE",
"252 55 LINE",
"231 108 OFFCURVE",
"225 157 OFFCURVE",
"236 285 CURVE",
"255 283 OFFCURVE",
"313 283 OFFCURVE",
"336 284 CURVE"
);
},
{
closed = 1;
nodes = (
"274 626 CURVE",
"444 635 OFFCURVE",
"468 404 OFFCURVE",
"363 363 CURVE",
"343 363 OFFCURVE",
"291 367 OFFCURVE",
"241 385 CURVE",
"249 480 OFFCURVE",
"257 550 OFFCURVE"
);
},
{
closed = 1;
nodes = (
"342 291 LINE",
"347 273 OFFCURVE",
"360 60 OFFCURVE",
"398 32 CURVE SMOOTH",
"407 25 OFFCURVE",
"479 -1 OFFCURVE",
"532 -1 CURVE",
"565 7 OFFCURVE",
"592 25 OFFCURVE",
"597 28 CURVE",
"592 74 LINE",
"572 66 OFFCURVE",
"558 65 OFFCURVE",
"547 63 CURVE",
"494 119 OFFCURVE",
"463 229 OFFCURVE",
"437 327 CURVE"
);
}
);
};
guideLines = (
{
angle = 84;
position = "{610, 311}";
}
);
layerId = "71FD7A9F-05F5-4D76-8D4F-547475A05E4C";
name = "Bold Italic";
paths = (
{
closed = 1;
nodes = (
"381 714 OFFCURVE",
"261 709 OFFCURVE",
"79 700 CURVE",
"72 643 LINE",
"118 634 LINE",
"128 612 OFFCURVE",
"120 481 OFFCURVE",
"115 421 CURVE SMOOTH",
"106 309 OFFCURVE",
"75 109 OFFCURVE",
"79 96 CURVE",
"81 84 OFFCURVE",
"104 70 OFFCURVE",
"138 58 CURVE",
"22 58 LINE",
"17 0 LINE",
"296 0 LINE",
"305 55 LINE",
"249 63 LINE",
"227 97 OFFCURVE",
"227 162 OFFCURVE",
"231 268 CURVE",
"263 261 OFFCURVE",
"312 264 OFFCURVE",
"343 268 CURVE",
"589 316 OFFCURVE",
"642 589 OFFCURVE",
"472 670 CURVE SMOOTH"
);
},
{
closed = 1;
nodes = (
"324 346 OFFCURVE",
"275 345 OFFCURVE",
"239 362 CURVE",
"246 447 OFFCURVE",
"256 547 OFFCURVE",
"274 626 CURVE",
"444 633 OFFCURVE",
"482 411 OFFCURVE",
"362 348 CURVE"
);
}
);
width = 578;
},
{
layerId = "11343128-4963-4E5D-BE9C-B74F53B36FA5";
name = Bold;
width = 600;
}
);
leftKerningGroup = I;
leftMetricsKey = I;
rightKerningGroup = T;
rightMetricsKey = O;
},
{
glyphname = Thorn;
lastChange = "2015-12-01 10:14:16 +0000";
layers = (
{
layerId = "71FD7A9F-05F5-4D76-8D4F-547475A05E4C";
name = "Bold Italic";
paths = (
{
closed = 1;
nodes = (
"80 700 LINE",
"72 643 LINE",
"118 634 LINE",
"128 609 OFFCURVE",
"127 501 OFFCURVE",
"118 410 CURVE SMOOTH",
"104 275 OFFCURVE",
"82 114 OFFCURVE",
"87 98 CURVE SMOOTH",
"88 89 OFFCURVE",
"95 72 OFFCURVE",
"133 60 CURVE",
"27 60 LINE",
"22 0 LINE",
"304 1 LINE",
"309 58 LINE",
"253 66 LINE",
"218 125 OFFCURVE",
"233 313 OFFCURVE",
"242 435 CURVE SMOOTH",
"250 548 OFFCURVE",
"262 589 OFFCURVE",
"275 610 CURVE SMOOTH",
"287 630 OFFCURVE",
"304 639 OFFCURVE",
"327 641 CURVE",
"332 701 LINE"
);
},
{
closed = 1;
nodes = (
"217 140 LINE",
"251 129 OFFCURVE",
"297 127 OFFCURVE",
"333 132 CURVE",
"579 180 OFFCURVE",
"632 457 OFFCURVE",
"462 538 CURVE SMOOTH",
"407 565 OFFCURVE",
"336 573 OFFCURVE",
"254 574 CURVE",
"242 492 LINE",
"419 519 OFFCURVE",
"477 284 OFFCURVE",
"352 218 CURVE",
"310 216 OFFCURVE",
"264 223 OFFCURVE",
"224 246 CURVE"
);
}
);
width = 583;
},
{
layerId = "11343128-4963-4E5D-BE9C-B74F53B36FA5";
name = Bold;
width = 600;
}
);
leftKerningGroup = I;
leftMetricsKey = I;
rightMetricsKey = P;
unicode = 00DE;
},
{
glyphname = Q;
lastChange = "2015-12-01 10:14:16 +0000";
layers = (
{
background = {
components = (
{
name = R;
transform = "{1, 0, 0, 1, 169, -201}";
}
);
paths = (
{
closed = 1;
nodes = (
"544 674 OFFCURVE",
"468 738 OFFCURVE",
"299 701 CURVE SMOOTH",
"42 645 OFFCURVE",
"-9 229 OFFCURVE",
"117 81 CURVE SMOOTH",
"190 -4 OFFCURVE",
"274 -34 OFFCURVE",
"416 -2 CURVE SMOOTH",
"654 51 OFFCURVE",
"725 458 OFFCURVE",
"592 617 CURVE SMOOTH"
);
},
{
closed = 1;
nodes = (
"318 68 OFFCURVE",
"269 98 OFFCURVE",
"235 175 CURVE SMOOTH",
"164 332 OFFCURVE",
"185 544 OFFCURVE",
"322 629 CURVE",
"381 629 OFFCURVE",
"438 608 OFFCURVE",
"477 519 CURVE SMOOTH",
"542 371 OFFCURVE",
"528 155 OFFCURVE",
"388 68 CURVE"
);
}
);
};
layerId = "71FD7A9F-05F5-4D76-8D4F-547475A05E4C";
name = "Bold Italic";
paths = (
{
closed = 1;
nodes = (
"339 -45 OFFCURVE",
"542 -202 OFFCURVE",
"650 -191 CURVE",
"703 -169 OFFCURVE",
"751 -133 OFFCURVE",
"773 -106 CURVE",
"746 -56 LINE",
"730 -71 OFFCURVE",
"711 -83 OFFCURVE",
"696 -88 CURVE",
"632 -73 OFFCURVE",
"286 61 OFFCURVE",
"250 138 CURVE",
"199 109 LINE"
);
},
{
closed = 1;
nodes = (
"543 683 OFFCURVE",
"456 727 OFFCURVE",
"322 709 CURVE",
"33 647 OFFCURVE",
"-26 244 OFFCURVE",
"108 81 CURVE SMOOTH",
"179 -7 OFFCURVE",
"288 -28 OFFCURVE",
"405 0 CURVE",
"660 77 OFFCURVE",
"731 439 OFFCURVE",
"594 616 CURVE SMOOTH"
);
},
{
closed = 1;
nodes = (
"319 58 OFFCURVE",
"266 99 OFFCURVE",
"231 176 CURVE SMOOTH",
"157 333 OFFCURVE",
"185 545 OFFCURVE",
"325 626 CURVE",
"384 626 OFFCURVE",
"434 608 OFFCURVE",
"474 519 CURVE SMOOTH",
"542 371 OFFCURVE",
"517 146 OFFCURVE",
"379 59 CURVE"
);
}
);
width = 672;
},
{
layerId = "11343128-4963-4E5D-BE9C-B74F53B36FA5";
name = Bold;
width = 600;
}
);
leftKerningGroup = O;
leftMetricsKey = O;
rightKerningGroup = O;
unicode = 0051;
},
{
glyphname = Q.001;
lastChange = "2015-12-01 10:14:33 +0000";
layers = (
{
background = {
components = (
{
name = R;
transform = "{1, 0, 0, 1, 169, -201}";
}
);
paths = (
{
closed = 1;
nodes = (
"544 674 OFFCURVE",
"468 738 OFFCURVE",
"299 701 CURVE SMOOTH",
"42 645 OFFCURVE",
"-9 229 OFFCURVE",
"117 81 CURVE SMOOTH",
"190 -4 OFFCURVE",
"274 -34 OFFCURVE",
"416 -2 CURVE SMOOTH",
"654 51 OFFCURVE",
"725 458 OFFCURVE",
"592 617 CURVE SMOOTH"
);
},
{
closed = 1;
nodes = (
"318 68 OFFCURVE",
"269 98 OFFCURVE",
"235 175 CURVE SMOOTH",
"164 332 OFFCURVE",
"185 544 OFFCURVE",
"322 629 CURVE",
"381 629 OFFCURVE",
"438 608 OFFCURVE",
"477 519 CURVE SMOOTH",
"542 371 OFFCURVE",
"528 155 OFFCURVE",
"388 68 CURVE"
);
}
);
};
layerId = "71FD7A9F-05F5-4D76-8D4F-547475A05E4C";
name = "Bold Italic";
paths = (
{
closed = 1;
nodes = (
"339 -45 OFFCURVE",
"542 -202 OFFCURVE",
"650 -191 CURVE",
"703 -169 OFFCURVE",
"751 -133 OFFCURVE",
"773 -106 CURVE",
"746 -56 LINE",
"730 -71 OFFCURVE",
"711 -83 OFFCURVE",
"696 -88 CURVE",
"632 -73 OFFCURVE",
"286 61 OFFCURVE",
"250 138 CURVE",
"199 109 LINE"
);
},
{
closed = 1;
nodes = (
"543 683 OFFCURVE",
"456 727 OFFCURVE",
"322 709 CURVE",
"33 647 OFFCURVE",
"-26 244 OFFCURVE",
"108 81 CURVE SMOOTH",
"179 -7 OFFCURVE",
"288 -28 OFFCURVE",
"405 0 CURVE",
"660 77 OFFCURVE",
"731 439 OFFCURVE",
"594 616 CURVE SMOOTH"
);
},
{
closed = 1;
nodes = (
"319 58 OFFCURVE",
"266 99 OFFCURVE",
"231 176 CURVE SMOOTH",
"157 333 OFFCURVE",
"185 545 OFFCURVE",
"325 626 CURVE",
"384 626 OFFCURVE",
"434 608 OFFCURVE",
"474 519 CURVE SMOOTH",
"542 371 OFFCURVE",
"517 146 OFFCURVE",
"379 59 CURVE"
);
}
);
width = 672;
},
{
layerId = "11343128-4963-4E5D-BE9C-B74F53B36FA5";
name = Bold;
width = 600;
}
);
leftKerningGroup = O;
leftMetricsKey = O;
rightKerningGroup = O;
},
{
glyphname = R;
lastChange = "2015-12-01 10:14:16 +0000";
layers = (
{
anchors = (
{
name = bottom;
position = "{284, 0}";
},
{
name = top;
position = "{323, 649}";
}
);
background = {
paths = (
{
closed = 1;
nodes = (
"279 352 LINE",
"287 272 OFFCURVE",
"367 52 OFFCURVE",
"394 32 CURVE SMOOTH",
"403 25 OFFCURVE",
"470 -3 OFFCURVE",
"523 -3 CURVE",
"558 5 OFFCURVE",
"595 26 OFFCURVE",
"600 29 CURVE",
"586 82 LINE",
"566 74 OFFCURVE",
"552 73 OFFCURVE",
"541 71 CURVE",
"488 127 OFFCURVE",
"389 326 OFFCURVE",
"365 425 CURVE"
);
},
{
closed = 1;
nodes = (
"47 700 LINE",
"37 644 LINE",
"83 635 LINE",
"94 610 OFFCURVE",
"88 487 OFFCURVE",
"83 427 CURVE SMOOTH",
"71 292 OFFCURVE",
"43 113 OFFCURVE",
"46 97 CURVE SMOOTH",
"47 88 OFFCURVE",
"55 71 OFFCURVE",
"93 59 CURVE",
"-14 59 LINE",
"-18 0 LINE",
"263 0 LINE",
"270 56 LINE",
"214 64 LINE",
"179 123 OFFCURVE",
"199 286 OFFCURVE",
"210 408 CURVE SMOOTH",
"220 521 OFFCURVE",
"227 589 OFFCURVE",
"239 611 CURVE SMOOTH",
"251 631 OFFCURVE",
"268 639 OFFCURVE",
"291 641 CURVE",
"297 699 LINE"
);
},
{
closed = 1;
nodes = (
"414 575 OFFCURVE",
"270 400 OFFCURVE",
"191 312 CURVE",
"188 187 LINE",
"347 372 LINE",
"426 465 OFFCURVE",
"516 577 OFFCURVE",
"544 606 CURVE SMOOTH",
"568 630 OFFCURVE",
"592 641 OFFCURVE",
"619 641 CURVE",
"625 700 LINE",
"403 700 LINE",
"393 642 LINE",
"443 633 LINE"
);
}
);
};
guideLines = (
{
position = "{496, 480}";
}
);
layerId = "71FD7A9F-05F5-4D76-8D4F-547475A05E4C";
name = "Bold Italic";
paths = (
{
closed = 1;
nodes = (
"397 288 LINE",
"502 318 OFFCURVE",
"579 436 OFFCURVE",
"559 551 CURVE SMOOTH",
"523 754 OFFCURVE",
"203 703 OFFCURVE",
"79 699 CURVE",
"72 644 LINE",
"119 635 LINE",
"130 595 OFFCURVE",
"124 466 OFFCURVE",
"109 326 CURVE SMOOTH",
"91 158 OFFCURVE",
"79 103 OFFCURVE",
"84 92 CURVE SMOOTH",
"87 83 OFFCURVE",
"119 57 OFFCURVE",
"143 57 CURVE",
"25 58 LINE",
"19 0 LINE",
"290 0 LINE",
"298 54 LINE",
"249 62 LINE",
"228 115 OFFCURVE",
"221 157 OFFCURVE",
"232 285 CURVE",
"251 283 OFFCURVE",
"309 283 OFFCURVE",
"332 284 CURVE"
);
},
{
closed = 1;
nodes = (
"242 469 OFFCURVE",
"252 546 OFFCURVE",
"269 622 CURVE",
"448 635 OFFCURVE",
"467 402 OFFCURVE",
"353 361 CURVE",
"333 361 OFFCURVE",
"284 356 OFFCURVE",
"234 374 CURVE"
);
},
{
closed = 1;
nodes = (
"308 288 LINE",
"313 270 OFFCURVE",
"356 60 OFFCURVE",
"394 32 CURVE SMOOTH",
"403 25 OFFCURVE",
"472 -3 OFFCURVE",
"525 -3 CURVE",
"558 5 OFFCURVE",
"595 26 OFFCURVE",
"600 29 CURVE",
"586 82 LINE",
"571 76 OFFCURVE",
"552 72 OFFCURVE",
"541 71 CURVE",
"488 127 OFFCURVE",
"438 226 OFFCURVE",
"414 324 CURVE"
);
}
);
width = 618;
},
{
layerId = "11343128-4963-4E5D-BE9C-B74F53B36FA5";
name = Bold;
width = 600;
}
);
leftKerningGroup = I;
leftMetricsKey = I;
rightKerningGroup = B;
unicode = 0052;
},
{
glyphname = R.001;
lastChange = "2015-12-01 10:14:33 +0000";
layers = (
{
anchors = (
{
name = bottom;
position = "{284, 0}";
},
{
name = top;
position = "{323, 649}";
}
);
background = {
paths = (
{
closed = 1;
nodes = (
"279 352 LINE",
"287 272 OFFCURVE",
"367 52 OFFCURVE",
"394 32 CURVE SMOOTH",
"403 25 OFFCURVE",
"470 -3 OFFCURVE",
"523 -3 CURVE",
"558 5 OFFCURVE",
"595 26 OFFCURVE",
"600 29 CURVE",
"586 82 LINE",
"566 74 OFFCURVE",
"552 73 OFFCURVE",
"541 71 CURVE",
"488 127 OFFCURVE",
"389 326 OFFCURVE",
"365 425 CURVE"
);
},
{
closed = 1;
nodes = (
"47 700 LINE",
"37 644 LINE",
"83 635 LINE",
"94 610 OFFCURVE",
"88 487 OFFCURVE",
"83 427 CURVE SMOOTH",
"71 292 OFFCURVE",
"43 113 OFFCURVE",
"46 97 CURVE SMOOTH",
"47 88 OFFCURVE",
"55 71 OFFCURVE",
"93 59 CURVE",
"-14 59 LINE",
"-18 0 LINE",
"263 0 LINE",
"270 56 LINE",
"214 64 LINE",
"179 123 OFFCURVE",
"199 286 OFFCURVE",
"210 408 CURVE SMOOTH",
"220 521 OFFCURVE",
"227 589 OFFCURVE",
"239 611 CURVE SMOOTH",
"251 631 OFFCURVE",
"268 639 OFFCURVE",
"291 641 CURVE",
"297 699 LINE"
);
},
{
closed = 1;
nodes = (
"414 575 OFFCURVE",
"270 400 OFFCURVE",
"191 312 CURVE",
"188 187 LINE",
"347 372 LINE",
"426 465 OFFCURVE",
"516 577 OFFCURVE",
"544 606 CURVE SMOOTH",
"568 630 OFFCURVE",
"592 641 OFFCURVE",
"619 641 CURVE",
"625 700 LINE",
"403 700 LINE",
"393 642 LINE",
"443 633 LINE"
);
}
);
};
guideLines = (
{
position = "{496, 480}";
}
);
layerId = "71FD7A9F-05F5-4D76-8D4F-547475A05E4C";
name = "Bold Italic";
paths = (
{
closed = 1;
nodes = (
"397 288 LINE",
"502 318 OFFCURVE",
"579 436 OFFCURVE",
"559 551 CURVE SMOOTH",
"523 754 OFFCURVE",
"203 703 OFFCURVE",
"79 699 CURVE",
"72 644 LINE",
"119 635 LINE",
"130 595 OFFCURVE",
"124 466 OFFCURVE",
"109 326 CURVE SMOOTH",
"91 158 OFFCURVE",
"79 103 OFFCURVE",
"84 92 CURVE SMOOTH",
"87 83 OFFCURVE",
"119 57 OFFCURVE",
"143 57 CURVE",
"25 58 LINE",
"19 0 LINE",
"290 0 LINE",
"298 54 LINE",
"249 62 LINE",
"228 115 OFFCURVE",
"221 157 OFFCURVE",
"232 285 CURVE",
"251 283 OFFCURVE",
"309 283 OFFCURVE",
"332 284 CURVE"
);
},
{
closed = 1;
nodes = (
"242 469 OFFCURVE",
"252 546 OFFCURVE",
"269 622 CURVE",
"448 635 OFFCURVE",
"467 402 OFFCURVE",
"353 361 CURVE",
"333 361 OFFCURVE",
"284 356 OFFCURVE",
"234 374 CURVE"
);
},
{
closed = 1;
nodes = (
"308 288 LINE",
"313 270 OFFCURVE",
"356 60 OFFCURVE",
"394 32 CURVE SMOOTH",
"403 25 OFFCURVE",
"472 -3 OFFCURVE",
"525 -3 CURVE",
"558 5 OFFCURVE",
"595 26 OFFCURVE",
"600 29 CURVE",
"586 82 LINE",
"571 76 OFFCURVE",
"552 72 OFFCURVE",
"541 71 CURVE",
"488 127 OFFCURVE",
"438 226 OFFCURVE",
"414 324 CURVE"
);
}
);
width = 618;
},
{
layerId = "11343128-4963-4E5D-BE9C-B74F53B36FA5";
name = Bold;
width = 600;
}
);
leftKerningGroup = I;
leftMetricsKey = I;
rightKerningGroup = B;
},
{
glyphname = S;
lastChange = "2015-12-01 10:14:16 +0000";
layers = (
{
anchors = (
{
name = bottom;
position = "{246, 0}";
},
{
name = top;
position = "{307, 648}";
}
);
background = {
paths = (
{
closed = 1;
nodes = (
"556 47 LINE",
"546 53 OFFCURVE",
"530 65 OFFCURVE",
"517 76 CURVE SMOOTH",
"488 100 OFFCURVE",
"429 211 OFFCURVE",
"347 349 CURVE SMOOTH",
"265 487 OFFCURVE",
"243 525 OFFCURVE",
"206 589 CURVE",
"273 589 OFFCURVE",
"391 585 OFFCURVE",
"459 579 CURVE",
"493 511 LINE",
"540 519 LINE",
"506 700 LINE",
"362 700 OFFCURVE",
"185 693 OFFCURVE",
"30 700 CURVE",
"17 650 LINE",
"28 645 OFFCURVE",
"41 635 OFFCURVE",
"58 620 CURVE SMOOTH",
"95 588 OFFCURVE",
"146 525 OFFCURVE",
"253 347 CURVE",
"327 213 OFFCURVE",
"349 172 OFFCURVE",
"375 114 CURVE",
"331 116 OFFCURVE",
"294 118 OFFCURVE",
"251 121 CURVE SMOOTH",
"153 128 OFFCURVE",
"114 143 OFFCURVE",
"100 188 CURVE",
"55 178 LINE",
"90 0 LINE",
"257 0 OFFCURVE",
"385 5 OFFCURVE",
"540 0 CURVE"
);
}
);
};
guideLines = (
{
position = "{33, 57}";
}
);
layerId = "71FD7A9F-05F5-4D76-8D4F-547475A05E4C";
name = "Bold Italic";
paths = (
{
closed = 1;
nodes = (
"268 -38 OFFCURVE",
"109 -15 OFFCURVE",
"37 65 CURVE",
"41 77 OFFCURVE",
"53 164 OFFCURVE",
"62 198 CURVE",
"75 202 OFFCURVE",
"100 205 OFFCURVE",
"114 210 CURVE",
"133 114 OFFCURVE",
"216 81 OFFCURVE",
"306 78 CURVE",
"341 93 OFFCURVE",
"389 142 OFFCURVE",
"383 183 CURVE SMOOTH",
"377 223 OFFCURVE",
"318 258 OFFCURVE",
"240 299 CURVE SMOOTH",
"168 337 OFFCURVE",
"61 387 OFFCURVE",
"70 504 CURVE SMOOTH",
"80 633 OFFCURVE",
"168 695 OFFCURVE",
"286 708 CURVE SMOOTH",
"385 719 OFFCURVE",
"466 685 OFFCURVE",
"516 638 CURVE",
"511 610 OFFCURVE",
"501 540 OFFCURVE",
"497 511 CURVE",
"431 500 LINE",
"428 553 LINE",
"391 602 OFFCURVE",
"337 620 OFFCURVE",
"280 620 CURVE",
"233 602 OFFCURVE",
"191 553 OFFCURVE",
"204 509 CURVE SMOOTH",
"213 479 OFFCURVE",
"262 443 OFFCURVE",
"332 409 CURVE SMOOTH",
"399 376 OFFCURVE",
"522 313 OFFCURVE",
"516 200 CURVE SMOOTH",
"509 107 OFFCURVE",
"477 57 OFFCURVE",
"391 18 CURVE SMOOTH"
);
}
);
width = 542;
},
{
layerId = "11343128-4963-4E5D-BE9C-B74F53B36FA5";
name = Bold;
width = 600;
}
);
leftKerningGroup = I;
rightKerningGroup = I;
unicode = 0053;
},
{
glyphname = S.001;
lastChange = "2015-12-01 10:14:33 +0000";
layers = (
{
anchors = (
{
name = bottom;
position = "{246, 0}";
},
{
name = top;
position = "{307, 648}";
}
);
background = {
paths = (
{
closed = 1;
nodes = (
"556 47 LINE",
"546 53 OFFCURVE",
"530 65 OFFCURVE",
"517 76 CURVE SMOOTH",
"488 100 OFFCURVE",
"429 211 OFFCURVE",
"347 349 CURVE SMOOTH",
"265 487 OFFCURVE",
"243 525 OFFCURVE",
"206 589 CURVE",
"273 589 OFFCURVE",
"391 585 OFFCURVE",
"459 579 CURVE",
"493 511 LINE",
"540 519 LINE",
"506 700 LINE",
"362 700 OFFCURVE",
"185 693 OFFCURVE",
"30 700 CURVE",
"17 650 LINE",
"28 645 OFFCURVE",
"41 635 OFFCURVE",
"58 620 CURVE SMOOTH",
"95 588 OFFCURVE",
"146 525 OFFCURVE",
"253 347 CURVE",
"327 213 OFFCURVE",
"349 172 OFFCURVE",
"375 114 CURVE",
"331 116 OFFCURVE",
"294 118 OFFCURVE",
"251 121 CURVE SMOOTH",
"153 128 OFFCURVE",
"114 143 OFFCURVE",
"100 188 CURVE",
"55 178 LINE",
"90 0 LINE",
"257 0 OFFCURVE",
"385 5 OFFCURVE",
"540 0 CURVE"
);
}
);
};
guideLines = (
{
position = "{33, 57}";
}
);
layerId = "71FD7A9F-05F5-4D76-8D4F-547475A05E4C";
name = "Bold Italic";
paths = (
{
closed = 1;
nodes = (
"268 -38 OFFCURVE",
"109 -15 OFFCURVE",
"37 65 CURVE",
"41 77 OFFCURVE",
"53 164 OFFCURVE",
"62 198 CURVE",
"75 202 OFFCURVE",
"100 205 OFFCURVE",
"114 210 CURVE",
"133 114 OFFCURVE",
"216 81 OFFCURVE",
"306 78 CURVE",
"341 93 OFFCURVE",
"389 142 OFFCURVE",
"383 183 CURVE SMOOTH",
"377 223 OFFCURVE",
"318 258 OFFCURVE",
"240 299 CURVE SMOOTH",
"168 337 OFFCURVE",
"61 387 OFFCURVE",
"70 504 CURVE SMOOTH",
"80 633 OFFCURVE",
"168 695 OFFCURVE",
"286 708 CURVE SMOOTH",
"385 719 OFFCURVE",
"466 685 OFFCURVE",
"516 638 CURVE",
"511 610 OFFCURVE",
"501 540 OFFCURVE",
"497 511 CURVE",
"431 500 LINE",
"428 553 LINE",
"391 602 OFFCURVE",
"337 620 OFFCURVE",
"280 620 CURVE",
"233 602 OFFCURVE",
"191 553 OFFCURVE",
"204 509 CURVE SMOOTH",
"213 479 OFFCURVE",
"262 443 OFFCURVE",
"332 409 CURVE SMOOTH",
"399 376 OFFCURVE",
"522 313 OFFCURVE",
"516 200 CURVE SMOOTH",
"509 107 OFFCURVE",
"477 57 OFFCURVE",
"391 18 CURVE SMOOTH"
);
}
);
width = 542;
},
{
layerId = "11343128-4963-4E5D-BE9C-B74F53B36FA5";
name = Bold;
width = 600;
}
);
leftKerningGroup = I;
rightKerningGroup = I;
},
{
glyphname = Germandbls;
lastChange = "2015-12-01 10:14:16 +0000";
layers = (
{
background = {
paths = (
{
closed = 1;
nodes = (
"532 645 LINE",
"474 620 LINE",
"410 544 OFFCURVE",
"361 475 OFFCURVE",
"302 412 CURVE",
"285 361 LINE",
"365 331 OFFCURVE",
"437 249 OFFCURVE",
"442 193 CURVE SMOOTH",
"447 136 OFFCURVE",
"421 96 OFFCURVE",
"400 80 CURVE",
"372 82 OFFCURVE",
"316 116 OFFCURVE",
"285 147 CURVE",
"233 48 LINE",
"276 6 OFFCURVE",
"356 -13 OFFCURVE",
"416 -4 CURVE SMOOTH",
"480 6 OFFCURVE",
"572 57 OFFCURVE",
"573 193 CURVE SMOOTH",
"574 315 OFFCURVE",
"477 374 OFFCURVE",
"390 389 CURVE",
"566 604 LINE"
);
}
);
};
layerId = "71FD7A9F-05F5-4D76-8D4F-547475A05E4C";
name = "Bold Italic";
paths = (
{
closed = 1;
nodes = (
"566 609 OFFCURVE",
"554 658 OFFCURVE",
"535 678 CURVE",
"490 632 LINE",
"500 644 OFFCURVE",
"266 388 OFFCURVE",
"285 408 CURVE",
"294 380 LINE",
"371 348 OFFCURVE",
"434 246 OFFCURVE",
"440 186 CURVE SMOOTH",
"445 134 OFFCURVE",
"419 88 OFFCURVE",
"400 75 CURVE",
"372 77 OFFCURVE",
"316 114 OFFCURVE",
"285 145 CURVE",
"233 46 LINE",
"277 3 OFFCURVE",
"359 -15 OFFCURVE",
"416 -6 CURVE SMOOTH",
"480 4 OFFCURVE",
"575 58 OFFCURVE",
"575 190 CURVE SMOOTH",
"575 312 OFFCURVE",
"495 399 OFFCURVE",
"408 440 CURVE",
"458 500 OFFCURVE",
"509 544 OFFCURVE",
"568 601 CURVE"
);
},
{
closed = 1;
nodes = (
"492 628 LINE",
"466 667 OFFCURVE",
"408 712 OFFCURVE",
"284 716 CURVE",
"171 702 OFFCURVE",
"112 640 OFFCURVE",
"101 515 CURVE SMOOTH",
"90 385 OFFCURVE",
"81 287 OFFCURVE",
"60 93 CURVE",
"61 84 OFFCURVE",
"77 67 OFFCURVE",
"115 55 CURVE",
"6 55 LINE",
"1 0 LINE",
"202 0 LINE",
"197 82 OFFCURVE",
"215 340 OFFCURVE",
"225 448 CURVE SMOOTH",
"235 559 OFFCURVE",
"248 601 OFFCURVE",
"302 621 CURVE",
"353 605 OFFCURVE",
"405 559 OFFCURVE",
"411 517 CURVE"
);
}
);
width = 597;
},
{
layerId = "11343128-4963-4E5D-BE9C-B74F53B36FA5";
name = Bold;
width = 600;
}
);
leftKerningGroup = I;
leftMetricsKey = "=I-5";
rightKerningGroup = B;
rightMetricsKey = "=B-20";
unicode = 1E9E;
},
{
glyphname = T;
lastChange = "2015-12-01 10:14:16 +0000";
layers = (
{
anchors = (
{
name = bottom;
position = "{312, 0}";
},
{
name = center;
position = "{337, 350}";
},
{
name = top;
position = "{340, 646}";
}
);
background = {
paths = (
{
closed = 1;
nodes = (
"172 700 LINE",
"164 653 LINE",
"210 644 LINE",
"223 605 OFFCURVE",
"216 484 OFFCURVE",
"212 426 CURVE SMOOTH",
"202 263 OFFCURVE",
"176 104 OFFCURVE",
"181 89 CURVE SMOOTH",
"184 74 OFFCURVE",
"218 58 OFFCURVE",
"241 50 CURVE",
"123 50 LINE",
"119 0 LINE",
"409 0 LINE",
"417 47 LINE",
"347 57 LINE",
"321 106 OFFCURVE",
"325 196 OFFCURVE",
"329 323 CURVE",
"440 317 LINE",
"452 271 LINE",
"494 275 LINE",
"497 296 OFFCURVE",
"502 403 OFFCURVE",
"493 403 CURVE SMOOTH",
"487 403 OFFCURVE",
"330 396 OFFCURVE",
"334 396 CURVE",
"344 533 OFFCURVE",
"353 566 OFFCURVE",
"364 616 CURVE",
"419 616 OFFCURVE",
"493 614 OFFCURVE",
"557 606 CURVE",
"587 537 LINE",
"637 547 LINE",
"617 699 LINE"
);
}
);
};
guideLines = (
{
position = "{410, 637}";
},
{
position = "{589, 535}";
}
);
layerId = "71FD7A9F-05F5-4D76-8D4F-547475A05E4C";
name = "Bold Italic";
paths = (
{
closed = 1;
nodes = (
"626 538 LINE",
"565 528 LINE",
"536 597 LINE",
"502 603 OFFCURVE",
"466 608 OFFCURVE",
"433 608 CURVE",
"406 586 OFFCURVE",
"400 517 OFFCURVE",
"392 443 CURVE SMOOTH",
"376 296 OFFCURVE",
"364 119 OFFCURVE",
"397 63 CURVE",
"453 55 LINE",
"449 0 LINE",
"156 0 LINE",
"161 58 LINE",
"279 58 LINE",
"244 72 OFFCURVE",
"222 85 OFFCURVE",
"220 96 CURVE",
"217 111 OFFCURVE",
"250 319 OFFCURVE",
"258 427 CURVE SMOOTH",
"262 480 OFFCURVE",
"270 570 OFFCURVE",
"262 609 CURVE",
"166 609 OFFCURVE",
"127 599 OFFCURVE",
"109 527 CURVE",
"58 538 LINE",
"87 701 LINE",
"258 698 OFFCURVE",
"435 698 OFFCURVE",
"606 701 CURVE"
);
}
);
width = 615;
},
{
layerId = "11343128-4963-4E5D-BE9C-B74F53B36FA5";
name = Bold;
width = 600;
}
);
leftKerningGroup = T;
rightKerningGroup = T;
unicode = 0054;
},
{
glyphname = T.001;
lastChange = "2015-12-01 10:14:33 +0000";
layers = (
{
anchors = (
{
name = bottom;
position = "{312, 0}";
},
{
name = center;
position = "{337, 350}";
},
{
name = top;
position = "{340, 646}";
}
);
background = {
paths = (
{
closed = 1;
nodes = (
"172 700 LINE",
"164 653 LINE",
"210 644 LINE",
"223 605 OFFCURVE",
"216 484 OFFCURVE",
"212 426 CURVE SMOOTH",
"202 263 OFFCURVE",
"176 104 OFFCURVE",
"181 89 CURVE SMOOTH",
"184 74 OFFCURVE",
"218 58 OFFCURVE",
"241 50 CURVE",
"123 50 LINE",
"119 0 LINE",
"409 0 LINE",
"417 47 LINE",
"347 57 LINE",
"321 106 OFFCURVE",
"325 196 OFFCURVE",
"329 323 CURVE",
"440 317 LINE",
"452 271 LINE",
"494 275 LINE",
"497 296 OFFCURVE",
"502 403 OFFCURVE",
"493 403 CURVE SMOOTH",
"487 403 OFFCURVE",
"330 396 OFFCURVE",
"334 396 CURVE",
"344 533 OFFCURVE",
"353 566 OFFCURVE",
"364 616 CURVE",
"419 616 OFFCURVE",
"493 614 OFFCURVE",
"557 606 CURVE",
"587 537 LINE",
"637 547 LINE",
"617 699 LINE"
);
}
);
};
guideLines = (
{
position = "{410, 637}";
},
{
position = "{589, 535}";
}
);
layerId = "71FD7A9F-05F5-4D76-8D4F-547475A05E4C";
name = "Bold Italic";
paths = (
{
closed = 1;
nodes = (
"626 538 LINE",
"565 528 LINE",
"536 597 LINE",
"502 603 OFFCURVE",
"466 608 OFFCURVE",
"433 608 CURVE",
"406 586 OFFCURVE",
"400 517 OFFCURVE",
"392 443 CURVE SMOOTH",
"376 296 OFFCURVE",
"364 119 OFFCURVE",
"397 63 CURVE",
"453 55 LINE",
"449 0 LINE",
"156 0 LINE",
"161 58 LINE",
"279 58 LINE",
"244 72 OFFCURVE",
"222 85 OFFCURVE",
"220 96 CURVE",
"217 111 OFFCURVE",
"250 319 OFFCURVE",
"258 427 CURVE SMOOTH",
"262 480 OFFCURVE",
"270 570 OFFCURVE",
"262 609 CURVE",
"166 609 OFFCURVE",
"127 599 OFFCURVE",
"109 527 CURVE",
"58 538 LINE",
"87 701 LINE",
"258 698 OFFCURVE",
"435 698 OFFCURVE",
"606 701 CURVE"
);
}
);
width = 615;
},
{
layerId = "11343128-4963-4E5D-BE9C-B74F53B36FA5";
name = Bold;
width = 600;
}
);
leftKerningGroup = T;
rightKerningGroup = T;
},
{
glyphname = U;
lastChange = "2015-12-01 10:14:16 +0000";
layers = (
{
anchors = (
{
name = bottom;
position = "{322, 0}";
},
{
name = ogonek;
position = "{402, 3}";
},
{
name = top;
position = "{383, 647}";
},
{
name = topright;
position = "{713, 700}";
}
);
background = {
paths = (
{
closed = 1;
nodes = (
"395 87 LINE",
"382 169 OFFCURVE",
"284 610 OFFCURVE",
"280 617 CURVE SMOOTH",
"273 628 OFFCURVE",
"256 642 OFFCURVE",
"233 650 CURVE",
"326 650 LINE",
"332 700 LINE",
"71 700 LINE",
"61 653 LINE",
"115 645 LINE",
"139 613 OFFCURVE",
"181 448 OFFCURVE",
"212 327 CURVE SMOOTH",
"239 220 OFFCURVE",
"276 44 OFFCURVE",
"288 0 CURVE"
);
}
);
};
guideLines = (
{
angle = 84;
position = "{82, 327}";
},
{
angle = 84;
position = "{349, 321}";
},
{
angle = 84;
position = "{621, 295}";
}
);
layerId = "71FD7A9F-05F5-4D76-8D4F-547475A05E4C";
name = "Bold Italic";
paths = (
{
closed = 1;
nodes = (
"449 645 LINE",
"506 636 LINE",
"515 564 OFFCURVE",
"500 433 OFFCURVE",
"481 255 CURVE SMOOTH",
"474 183 OFFCURVE",
"432 116 OFFCURVE",
"396 95 CURVE",
"291 84 OFFCURVE",
"257 134 OFFCURVE",
"238 209 CURVE SMOOTH",
"222 273 OFFCURVE",
"256 541 OFFCURVE",
"261 611 CURVE",
"256 621 OFFCURVE",
"227 641 OFFCURVE",
"213 643 CURVE",
"252 643 OFFCURVE",
"308 643 OFFCURVE",
"321 643 CURVE",
"326 699 LINE",
"72 700 LINE",
"63 646 LINE",
"116 634 LINE",
"104 478 OFFCURVE",
"94 380 OFFCURVE",
"89 271 CURVE SMOOTH",
"85 189 OFFCURVE",
"96 124 OFFCURVE",
"128 79 CURVE SMOOTH",
"189 -7 OFFCURVE",
"315 -37 OFFCURVE",
"423 11 CURVE SMOOTH",
"511 50 OFFCURVE",
"570 130 OFFCURVE",
"587 280 CURVE SMOOTH",
"601 404 OFFCURVE",
"607 498 OFFCURVE",
"618 565 CURVE SMOOTH",
"624 603 OFFCURVE",
"659 641 OFFCURVE",
"700 643 CURVE",
"703 700 LINE",
"456 701 LINE"
);
}
);
width = 688;
},
{
layerId = "11343128-4963-4E5D-BE9C-B74F53B36FA5";
name = Bold;
width = 600;
}
);
leftKerningGroup = I;
rightKerningGroup = U;
unicode = 0055;
},
{
glyphname = U.001;
lastChange = "2015-12-01 10:14:33 +0000";
layers = (
{
anchors = (
{
name = bottom;
position = "{322, 0}";
},
{
name = ogonek;
position = "{402, 3}";
},
{
name = top;
position = "{383, 647}";
},
{
name = topright;
position = "{713, 700}";
}
);
background = {
paths = (
{
closed = 1;
nodes = (
"395 87 LINE",
"382 169 OFFCURVE",
"284 610 OFFCURVE",
"280 617 CURVE SMOOTH",
"273 628 OFFCURVE",
"256 642 OFFCURVE",
"233 650 CURVE",
"326 650 LINE",
"332 700 LINE",
"71 700 LINE",
"61 653 LINE",
"115 645 LINE",
"139 613 OFFCURVE",
"181 448 OFFCURVE",
"212 327 CURVE SMOOTH",
"239 220 OFFCURVE",
"276 44 OFFCURVE",
"288 0 CURVE"
);
}
);
};
guideLines = (
{
angle = 84;
position = "{82, 327}";
},
{
angle = 84;
position = "{349, 321}";
},
{
angle = 84;
position = "{621, 295}";
}
);
layerId = "71FD7A9F-05F5-4D76-8D4F-547475A05E4C";
name = "Bold Italic";
paths = (
{
closed = 1;
nodes = (
"449 645 LINE",
"506 636 LINE",
"515 564 OFFCURVE",
"500 433 OFFCURVE",
"481 255 CURVE SMOOTH",
"474 183 OFFCURVE",
"432 116 OFFCURVE",
"396 95 CURVE",
"291 84 OFFCURVE",
"257 134 OFFCURVE",
"238 209 CURVE SMOOTH",
"222 273 OFFCURVE",
"256 541 OFFCURVE",
"261 611 CURVE",
"256 621 OFFCURVE",
"227 641 OFFCURVE",
"213 643 CURVE",
"252 643 OFFCURVE",
"308 643 OFFCURVE",
"321 643 CURVE",
"326 699 LINE",
"72 700 LINE",
"63 646 LINE",
"116 634 LINE",
"104 478 OFFCURVE",
"94 380 OFFCURVE",
"89 271 CURVE SMOOTH",
"85 189 OFFCURVE",
"96 124 OFFCURVE",
"128 79 CURVE SMOOTH",
"189 -7 OFFCURVE",
"315 -37 OFFCURVE",
"423 11 CURVE SMOOTH",
"511 50 OFFCURVE",
"570 130 OFFCURVE",
"587 280 CURVE SMOOTH",
"601 404 OFFCURVE",
"607 498 OFFCURVE",
"618 565 CURVE SMOOTH",
"624 603 OFFCURVE",
"659 641 OFFCURVE",
"700 643 CURVE",
"703 700 LINE",
"456 701 LINE"
);
}
);
width = 688;
},
{
layerId = "11343128-4963-4E5D-BE9C-B74F53B36FA5";
name = Bold;
width = 600;
}
);
leftKerningGroup = I;
rightKerningGroup = U;
},
{
glyphname = V;
lastChange = "2015-12-01 10:14:16 +0000";
layers = (
{
background = {
paths = (
{
closed = 1;
nodes = (
"699 193 LINE",
"669 344 OFFCURVE",
"614 594 OFFCURVE",
"612 605 CURVE SMOOTH",
"608 634 OFFCURVE",
"621 650 OFFCURVE",
"654 650 CURVE",
"659 700 LINE",
"416 700 LINE",
"407 653 LINE",
"454 643 LINE",
"495 519 OFFCURVE",
"553 278 OFFCURVE",
"619 0 CURVE",
"621 0 LINE",
"720 58 LINE"
);
},
{
closed = 1;
nodes = (
"463 424 OFFCURVE",
"420 304 OFFCURVE",
"377 193 CURVE",
"353 349 OFFCURVE",
"297 613 OFFCURVE",
"294 618 CURVE SMOOTH",
"288 629 OFFCURVE",
"278 641 OFFCURVE",
"256 651 CURVE",
"337 651 LINE",
"342 700 LINE",
"99 700 LINE",
"90 653 LINE",
"141 647 LINE",
"174 569 OFFCURVE",
"274 110 OFFCURVE",
"293 0 CURVE",
"398 0 LINE",
"568 511 LINE",
"501 538 LINE"
);
},
{
closed = 1;
nodes = (
"830 614 OFFCURVE",
"800 518 OFFCURVE",
"784 468 CURVE SMOOTH",
"666 87 OFFCURVE",
"665 75 OFFCURVE",
"619 0 CURVE",
"723 0 LINE",
"813 276 OFFCURVE",
"900 534 OFFCURVE",
"919 580 CURVE SMOOTH",
"944 640 OFFCURVE",
"983 650 OFFCURVE",
"1009 650 CURVE",
"1014 700 LINE",
"768 700 LINE",
"759 653 LINE",
"822 644 LINE"
);
}
);
};
layerId = "71FD7A9F-05F5-4D76-8D4F-547475A05E4C";
name = "Bold Italic";
paths = (
{
closed = 1;
nodes = (
"386 90 LINE",
"373 172 OFFCURVE",
"279 602 OFFCURVE",
"276 609 CURVE SMOOTH",
"268 620 OFFCURVE",
"251 634 OFFCURVE",
"228 642 CURVE",
"322 642 LINE",
"328 700 LINE",
"64 700 LINE",
"53 645 LINE",
"108 637 LINE",
"132 605 OFFCURVE",
"175 448 OFFCURVE",
"207 327 CURVE SMOOTH",
"234 220 OFFCURVE",
"272 37 OFFCURVE",
"284 -7 CURVE"
);
},
{
closed = 1;
nodes = (
"521 600 OFFCURVE",
"470 463 OFFCURVE",
"452 412 CURVE SMOOTH",
"355 144 OFFCURVE",
"308 37 OFFCURVE",
"286 -7 CURVE",
"404 0 LINE",
"498 270 OFFCURVE",
"601 537 OFFCURVE",
"621 584 CURVE SMOOTH",
"642 630 OFFCURVE",
"678 642 OFFCURVE",
"708 642 CURVE",
"714 700 LINE",
"454 700 LINE",
"444 645 LINE",
"512 632 LINE"
);
}
);
width = 675;
},
{
layerId = "11343128-4963-4E5D-BE9C-B74F53B36FA5";
name = Bold;
width = 600;
}
);
leftKerningGroup = V;
rightKerningGroup = V;
unicode = 0056;
},
{
glyphname = V.001;
lastChange = "2015-12-01 10:14:33 +0000";
layers = (
{
background = {
paths = (
{
closed = 1;
nodes = (
"699 193 LINE",
"669 344 OFFCURVE",
"614 594 OFFCURVE",
"612 605 CURVE SMOOTH",
"608 634 OFFCURVE",
"621 650 OFFCURVE",
"654 650 CURVE",
"659 700 LINE",
"416 700 LINE",
"407 653 LINE",
"454 643 LINE",
"495 519 OFFCURVE",
"553 278 OFFCURVE",
"619 0 CURVE",
"621 0 LINE",
"720 58 LINE"
);
},
{
closed = 1;
nodes = (
"463 424 OFFCURVE",
"420 304 OFFCURVE",
"377 193 CURVE",
"353 349 OFFCURVE",
"297 613 OFFCURVE",
"294 618 CURVE SMOOTH",
"288 629 OFFCURVE",
"278 641 OFFCURVE",
"256 651 CURVE",
"337 651 LINE",
"342 700 LINE",
"99 700 LINE",
"90 653 LINE",
"141 647 LINE",
"174 569 OFFCURVE",
"274 110 OFFCURVE",
"293 0 CURVE",
"398 0 LINE",
"568 511 LINE",
"501 538 LINE"
);
},
{
closed = 1;
nodes = (
"830 614 OFFCURVE",
"800 518 OFFCURVE",
"784 468 CURVE SMOOTH",
"666 87 OFFCURVE",
"665 75 OFFCURVE",
"619 0 CURVE",
"723 0 LINE",
"813 276 OFFCURVE",
"900 534 OFFCURVE",
"919 580 CURVE SMOOTH",
"944 640 OFFCURVE",
"983 650 OFFCURVE",
"1009 650 CURVE",
"1014 700 LINE",
"768 700 LINE",
"759 653 LINE",
"822 644 LINE"
);
}
);
};
layerId = "71FD7A9F-05F5-4D76-8D4F-547475A05E4C";
name = "Bold Italic";
paths = (
{
closed = 1;
nodes = (
"386 90 LINE",
"373 172 OFFCURVE",
"279 602 OFFCURVE",
"276 609 CURVE SMOOTH",
"268 620 OFFCURVE",
"251 634 OFFCURVE",
"228 642 CURVE",
"322 642 LINE",
"328 700 LINE",
"64 700 LINE",
"53 645 LINE",
"108 637 LINE",
"132 605 OFFCURVE",
"175 448 OFFCURVE",
"207 327 CURVE SMOOTH",
"234 220 OFFCURVE",
"272 37 OFFCURVE",
"284 -7 CURVE"
);
},
{
closed = 1;
nodes = (
"521 600 OFFCURVE",
"470 463 OFFCURVE",
"452 412 CURVE SMOOTH",
"355 144 OFFCURVE",
"308 37 OFFCURVE",
"286 -7 CURVE",
"404 0 LINE",
"498 270 OFFCURVE",
"601 537 OFFCURVE",
"621 584 CURVE SMOOTH",
"642 630 OFFCURVE",
"678 642 OFFCURVE",
"708 642 CURVE",
"714 700 LINE",
"454 700 LINE",
"444 645 LINE",
"512 632 LINE"
);
}
);
width = 675;
},
{
layerId = "11343128-4963-4E5D-BE9C-B74F53B36FA5";
name = Bold;
width = 600;
}
);
leftKerningGroup = V;
rightKerningGroup = V;
},
{
glyphname = W;
lastChange = "2015-12-01 10:14:16 +0000";
layers = (
{
anchors = (
{
name = bottom;
position = "{438, 0}";
},
{
name = top;
position = "{484, 646}";
}
);
guideLines = (
{
position = "{717, 177}";
}
);
layerId = "71FD7A9F-05F5-4D76-8D4F-547475A05E4C";
name = "Bold Italic";
paths = (
{
closed = 1;
nodes = (
"651 193 LINE",
"626 344 OFFCURVE",
"580 587 OFFCURVE",
"579 598 CURVE SMOOTH",
"576 627 OFFCURVE",
"591 643 OFFCURVE",
"638 643 CURVE",
"645 700 LINE",
"377 700 LINE",
"366 646 LINE",
"425 636 LINE",
"462 512 OFFCURVE",
"511 272 OFFCURVE",
"568 -6 CURVE",
"570 -6 LINE",
"674 59 LINE"
);
},
{
closed = 1;
nodes = (
"425 512 OFFCURVE",
"363 289 OFFCURVE",
"328 178 CURVE",
"304 334 OFFCURVE",
"266 606 OFFCURVE",
"264 611 CURVE SMOOTH",
"258 622 OFFCURVE",
"248 634 OFFCURVE",
"226 644 CURVE",
"307 644 LINE",
"314 700 LINE",
"64 700 LINE",
"53 646 LINE",
"104 640 LINE",
"135 562 OFFCURVE",
"213 106 OFFCURVE",
"228 -4 CURVE",
"361 5 LINE",
"412 154 OFFCURVE",
"487 402 OFFCURVE",
"523 503 CURVE",
"454 626 LINE"
);
},
{
closed = 1;
nodes = (
"767 604 OFFCURVE",
"745 517 OFFCURVE",
"732 466 CURVE SMOOTH",
"704 353 OFFCURVE",
"672 240 OFFCURVE",
"638 127 CURVE",
"568 -6 LINE",
"704 8 LINE",
"722 82 OFFCURVE",
"849 527 OFFCURVE",
"865 573 CURVE SMOOTH",
"886 635 OFFCURVE",
"931 643 OFFCURVE",
"957 643 CURVE",
"964 700 LINE",
"708 700 LINE",
"697 646 LINE",
"760 634 LINE"
);
}
);
width = 925;
},
{
layerId = "11343128-4963-4E5D-BE9C-B74F53B36FA5";
name = Bold;
width = 600;
}
);
leftKerningGroup = V;
leftMetricsKey = V;
rightKerningGroup = V;
rightMetricsKey = V;
unicode = 0057;
},
{
glyphname = W.001;
lastChange = "2015-12-01 10:14:33 +0000";
layers = (
{
anchors = (
{
name = bottom;
position = "{438, 0}";
},
{
name = top;
position = "{484, 646}";
}
);
guideLines = (
{
position = "{717, 177}";
}
);
layerId = "71FD7A9F-05F5-4D76-8D4F-547475A05E4C";
name = "Bold Italic";
paths = (
{
closed = 1;
nodes = (
"651 193 LINE",
"626 344 OFFCURVE",
"580 587 OFFCURVE",
"579 598 CURVE SMOOTH",
"576 627 OFFCURVE",
"591 643 OFFCURVE",
"638 643 CURVE",
"645 700 LINE",
"377 700 LINE",
"366 646 LINE",
"425 636 LINE",
"462 512 OFFCURVE",
"511 272 OFFCURVE",
"568 -6 CURVE",
"570 -6 LINE",
"674 59 LINE"
);
},
{
closed = 1;
nodes = (
"425 512 OFFCURVE",
"363 289 OFFCURVE",
"328 178 CURVE",
"304 334 OFFCURVE",
"266 606 OFFCURVE",
"264 611 CURVE SMOOTH",
"258 622 OFFCURVE",
"248 634 OFFCURVE",
"226 644 CURVE",
"307 644 LINE",
"314 700 LINE",
"64 700 LINE",
"53 646 LINE",
"104 640 LINE",
"135 562 OFFCURVE",
"213 106 OFFCURVE",
"228 -4 CURVE",
"361 5 LINE",
"412 154 OFFCURVE",
"487 402 OFFCURVE",
"523 503 CURVE",
"454 626 LINE"
);
},
{
closed = 1;
nodes = (
"767 604 OFFCURVE",
"745 517 OFFCURVE",
"732 466 CURVE SMOOTH",
"704 353 OFFCURVE",
"672 240 OFFCURVE",
"638 127 CURVE",
"568 -6 LINE",
"704 8 LINE",
"722 82 OFFCURVE",
"849 527 OFFCURVE",
"865 573 CURVE SMOOTH",
"886 635 OFFCURVE",
"931 643 OFFCURVE",
"957 643 CURVE",
"964 700 LINE",
"708 700 LINE",
"697 646 LINE",
"760 634 LINE"
);
}
);
width = 925;
},
{
layerId = "11343128-4963-4E5D-BE9C-B74F53B36FA5";
name = Bold;
width = 600;
}
);
leftKerningGroup = V;
leftMetricsKey = V;
rightKerningGroup = V;
rightMetricsKey = V;
},
{
glyphname = X;
lastChange = "2015-12-01 10:14:16 +0000";
layers = (
{
background = {
paths = (
{
closed = 1;
nodes = (
"339 352 LINE",
"347 272 OFFCURVE",
"427 52 OFFCURVE",
"454 32 CURVE SMOOTH",
"463 25 OFFCURVE",
"535 -1 OFFCURVE",
"588 -1 CURVE",
"623 7 OFFCURVE",
"650 25 OFFCURVE",
"655 28 CURVE",
"650 74 LINE",
"630 66 OFFCURVE",
"616 65 OFFCURVE",
"605 63 CURVE",
"552 119 OFFCURVE",
"449 326 OFFCURVE",
"425 425 CURVE"
);
},
{
closed = 1;
nodes = (
"107 700 LINE",
"99 653 LINE",
"145 644 LINE",
"156 619 OFFCURVE",
"148 487 OFFCURVE",
"143 427 CURVE SMOOTH",
"131 292 OFFCURVE",
"104 104 OFFCURVE",
"107 88 CURVE SMOOTH",
"108 79 OFFCURVE",
"116 62 OFFCURVE",
"154 50 CURVE",
"47 50 LINE",
"43 0 LINE",
"324 0 LINE",
"331 47 LINE",
"275 55 LINE",
"240 114 OFFCURVE",
"259 286 OFFCURVE",
"270 408 CURVE SMOOTH",
"280 521 OFFCURVE",
"289 598 OFFCURVE",
"301 620 CURVE SMOOTH",
"313 640 OFFCURVE",
"330 648 OFFCURVE",
"353 650 CURVE",
"357 699 LINE"
);
},
{
closed = 1;
nodes = (
"476 584 OFFCURVE",
"330 400 OFFCURVE",
"251 312 CURVE",
"249 203 LINE",
"397 372 LINE",
"476 465 OFFCURVE",
"578 586 OFFCURVE",
"606 615 CURVE SMOOTH",
"630 639 OFFCURVE",
"654 650 OFFCURVE",
"681 650 CURVE",
"685 700 LINE",
"463 700 LINE",
"455 651 LINE",
"505 642 LINE"
);
}
);
};
guideLines = (
{
angle = -96;
position = "{653, 306}";
}
);
layerId = "71FD7A9F-05F5-4D76-8D4F-547475A05E4C";
name = "Bold Italic";
paths = (
{
closed = 1;
nodes = (
"288 346 LINE",
"328 252 OFFCURVE",
"385 136 OFFCURVE",
"407 88 CURVE SMOOTH",
"412 77 OFFCURVE",
"424 65 OFFCURVE",
"448 55 CURVE",
"366 55 LINE",
"363 0 LINE",
"633 0 LINE",
"640 53 LINE",
"589 61 LINE",
"518 164 OFFCURVE",
"431 326 OFFCURVE",
"388 411 CURVE"
);
},
{
closed = 1;
nodes = (
"468 556 OFFCURVE",
"391 460 OFFCURVE",
"349 410 CURVE",
"389 321 LINE",
"456 414 OFFCURVE",
"574 580 OFFCURVE",
"602 609 CURVE SMOOTH",
"627 633 OFFCURVE",
"651 644 OFFCURVE",
"679 644 CURVE",
"683 700 LINE",
"449 700 LINE",
"441 647 LINE",
"496 639 LINE"
);
},
{
closed = 1;
nodes = (
"219 119 OFFCURVE",
"308 241 OFFCURVE",
"339 291 CURVE",
"293 363 LINE",
"235 270 OFFCURVE",
"117 118 OFFCURVE",
"87 91 CURVE SMOOTH",
"58 67 OFFCURVE",
"34 56 OFFCURVE",
"7 56 CURVE",
"3 0 LINE",
"228 0 LINE",
"235 53 LINE",
"185 61 LINE"
);
},
{
closed = 1;
nodes = (
"381 402 LINE",
"338 486 OFFCURVE",
"322 521 OFFCURVE",
"297 574 CURVE SMOOTH",
"283 604 OFFCURVE",
"269 645 OFFCURVE",
"329 645 CURVE",
"333 700 LINE",
"76 700 LINE",
"68 647 LINE",
"115 637 LINE",
"192 499 OFFCURVE",
"249 396 OFFCURVE",
"282 329 CURVE"
);
}
);
width = 661;
},
{
layerId = "11343128-4963-4E5D-BE9C-B74F53B36FA5";
name = Bold;
width = 600;
}
);
leftKerningGroup = X;
rightKerningGroup = X;
unicode = 0058;
},
{
glyphname = X.001;
lastChange = "2015-12-01 10:14:33 +0000";
layers = (
{
background = {
paths = (
{
closed = 1;
nodes = (
"339 352 LINE",
"347 272 OFFCURVE",
"427 52 OFFCURVE",
"454 32 CURVE SMOOTH",
"463 25 OFFCURVE",
"535 -1 OFFCURVE",
"588 -1 CURVE",
"623 7 OFFCURVE",
"650 25 OFFCURVE",
"655 28 CURVE",
"650 74 LINE",
"630 66 OFFCURVE",
"616 65 OFFCURVE",
"605 63 CURVE",
"552 119 OFFCURVE",
"449 326 OFFCURVE",
"425 425 CURVE"
);
},
{
closed = 1;
nodes = (
"107 700 LINE",
"99 653 LINE",
"145 644 LINE",
"156 619 OFFCURVE",
"148 487 OFFCURVE",
"143 427 CURVE SMOOTH",
"131 292 OFFCURVE",
"104 104 OFFCURVE",
"107 88 CURVE SMOOTH",
"108 79 OFFCURVE",
"116 62 OFFCURVE",
"154 50 CURVE",
"47 50 LINE",
"43 0 LINE",
"324 0 LINE",
"331 47 LINE",
"275 55 LINE",
"240 114 OFFCURVE",
"259 286 OFFCURVE",
"270 408 CURVE SMOOTH",
"280 521 OFFCURVE",
"289 598 OFFCURVE",
"301 620 CURVE SMOOTH",
"313 640 OFFCURVE",
"330 648 OFFCURVE",
"353 650 CURVE",
"357 699 LINE"
);
},
{
closed = 1;
nodes = (
"476 584 OFFCURVE",
"330 400 OFFCURVE",
"251 312 CURVE",
"249 203 LINE",
"397 372 LINE",
"476 465 OFFCURVE",
"578 586 OFFCURVE",
"606 615 CURVE SMOOTH",
"630 639 OFFCURVE",
"654 650 OFFCURVE",
"681 650 CURVE",
"685 700 LINE",
"463 700 LINE",
"455 651 LINE",
"505 642 LINE"
);
}
);
};
guideLines = (
{
angle = -96;
position = "{653, 306}";
}
);
layerId = "71FD7A9F-05F5-4D76-8D4F-547475A05E4C";
name = "Bold Italic";
paths = (
{
closed = 1;
nodes = (
"288 346 LINE",
"328 252 OFFCURVE",
"385 136 OFFCURVE",
"407 88 CURVE SMOOTH",
"412 77 OFFCURVE",
"424 65 OFFCURVE",
"448 55 CURVE",
"366 55 LINE",
"363 0 LINE",
"633 0 LINE",
"640 53 LINE",
"589 61 LINE",
"518 164 OFFCURVE",
"431 326 OFFCURVE",
"388 411 CURVE"
);
},
{
closed = 1;
nodes = (
"468 556 OFFCURVE",
"391 460 OFFCURVE",
"349 410 CURVE",
"389 321 LINE",
"456 414 OFFCURVE",
"574 580 OFFCURVE",
"602 609 CURVE SMOOTH",
"627 633 OFFCURVE",
"651 644 OFFCURVE",
"679 644 CURVE",
"683 700 LINE",
"449 700 LINE",
"441 647 LINE",
"496 639 LINE"
);
},
{
closed = 1;
nodes = (
"219 119 OFFCURVE",
"308 241 OFFCURVE",
"339 291 CURVE",
"293 363 LINE",
"235 270 OFFCURVE",
"117 118 OFFCURVE",
"87 91 CURVE SMOOTH",
"58 67 OFFCURVE",
"34 56 OFFCURVE",
"7 56 CURVE",
"3 0 LINE",
"228 0 LINE",
"235 53 LINE",
"185 61 LINE"
);
},
{
closed = 1;
nodes = (
"381 402 LINE",
"338 486 OFFCURVE",
"322 521 OFFCURVE",
"297 574 CURVE SMOOTH",
"283 604 OFFCURVE",
"269 645 OFFCURVE",
"329 645 CURVE",
"333 700 LINE",
"76 700 LINE",
"68 647 LINE",
"115 637 LINE",
"192 499 OFFCURVE",
"249 396 OFFCURVE",
"282 329 CURVE"
);
}
);
width = 661;
},
{
layerId = "11343128-4963-4E5D-BE9C-B74F53B36FA5";
name = Bold;
width = 600;
}
);
leftKerningGroup = X;
rightKerningGroup = X;
},
{
glyphname = Y;
lastChange = "2015-12-01 10:14:16 +0000";
layers = (
{
anchors = (
{
name = bottom;
position = "{289, 0}";
},
{
name = top;
position = "{352, 646}";
},
{
name = topleft;
position = "{68, 700}";
}
);
background = {
paths = (
{
closed = 1;
nodes = (
"268 341 LINE",
"305 247 OFFCURVE",
"351 130 OFFCURVE",
"373 82 CURVE SMOOTH",
"378 71 OFFCURVE",
"390 59 OFFCURVE",
"413 49 CURVE",
"333 49 LINE",
"328 0 LINE",
"594 0 LINE",
"599 47 LINE",
"552 55 LINE",
"484 158 OFFCURVE",
"409 318 OFFCURVE",
"367 403 CURVE"
);
},
{
closed = 1;
nodes = (
"446 562 OFFCURVE",
"363 446 OFFCURVE",
"321 396 CURVE",
"356 320 LINE",
"424 413 OFFCURVE",
"550 586 OFFCURVE",
"579 615 CURVE SMOOTH",
"603 639 OFFCURVE",
"627 650 OFFCURVE",
"654 650 CURVE",
"659 700 LINE",
"425 700 LINE",
"420 653 LINE",
"474 645 LINE"
);
},
{
closed = 1;
nodes = (
"203 113 OFFCURVE",
"292 257 OFFCURVE",
"323 307 CURVE",
"274 361 LINE",
"216 268 OFFCURVE",
"103 112 OFFCURVE",
"72 85 CURVE SMOOTH",
"44 61 OFFCURVE",
"20 50 OFFCURVE",
"-7 50 CURVE",
"-12 0 LINE",
"211 0 LINE",
"216 47 LINE",
"169 55 LINE"
);
},
{
closed = 1;
nodes = (
"360 394 LINE",
"319 478 OFFCURVE",
"297 521 OFFCURVE",
"278 574 CURVE SMOOTH",
"265 610 OFFCURVE",
"251 651 OFFCURVE",
"310 651 CURVE",
"315 700 LINE",
"58 700 LINE",
"53 653 LINE",
"100 643 LINE",
"173 505 OFFCURVE",
"228 388 OFFCURVE",
"259 321 CURVE"
);
}
);
};
layerId = "71FD7A9F-05F5-4D76-8D4F-547475A05E4C";
name = "Bold Italic";
paths = (
{
closed = 1;
nodes = (
"273 267 LINE",
"262 158 OFFCURVE",
"247 111 OFFCURVE",
"250 95 CURVE SMOOTH",
"251 86 OFFCURVE",
"259 69 OFFCURVE",
"297 57 CURVE",
"192 57 LINE",
"188 0 LINE",
"454 0 LINE",
"462 54 LINE",
"406 62 LINE",
"394 121 OFFCURVE",
"388 205 OFFCURVE",
"400 283 CURVE"
);
},
{
closed = 1;
nodes = (
"462 581 OFFCURVE",
"379 374 OFFCURVE",
"292 257 CURVE",
"369 209 LINE",
"416 302 OFFCURVE",
"552 580 OFFCURVE",
"580 609 CURVE SMOOTH",
"604 633 OFFCURVE",
"628 644 OFFCURVE",
"655 644 CURVE",
"661 700 LINE",
"448 700 LINE",
"438 647 LINE",
"488 639 LINE"
);
},
{
closed = 1;
nodes = (
"383 319 LINE",
"336 412 OFFCURVE",
"269 577 OFFCURVE",
"264 600 CURVE SMOOTH",
"259 622 OFFCURVE",
"264 645 OFFCURVE",
"305 645 CURVE",
"311 700 LINE",
"62 700 LINE",
"52 647 LINE",
"97 639 LINE",
"206 422 OFFCURVE",
"244 333 OFFCURVE",
"285 216 CURVE"
);
}
);
width = 628;
},
{
layerId = "11343128-4963-4E5D-BE9C-B74F53B36FA5";
name = Bold;
width = 600;
}
);
leftKerningGroup = V;
rightKerningGroup = V;
unicode = 0059;
},
{
glyphname = Y.001;
lastChange = "2015-12-01 10:14:33 +0000";
layers = (
{
anchors = (
{
name = bottom;
position = "{289, 0}";
},
{
name = top;
position = "{352, 646}";
},
{
name = topleft;
position = "{68, 700}";
}
);
background = {
paths = (
{
closed = 1;
nodes = (
"268 341 LINE",
"305 247 OFFCURVE",
"351 130 OFFCURVE",
"373 82 CURVE SMOOTH",
"378 71 OFFCURVE",
"390 59 OFFCURVE",
"413 49 CURVE",
"333 49 LINE",
"328 0 LINE",
"594 0 LINE",
"599 47 LINE",
"552 55 LINE",
"484 158 OFFCURVE",
"409 318 OFFCURVE",
"367 403 CURVE"
);
},
{
closed = 1;
nodes = (
"446 562 OFFCURVE",
"363 446 OFFCURVE",
"321 396 CURVE",
"356 320 LINE",
"424 413 OFFCURVE",
"550 586 OFFCURVE",
"579 615 CURVE SMOOTH",
"603 639 OFFCURVE",
"627 650 OFFCURVE",
"654 650 CURVE",
"659 700 LINE",
"425 700 LINE",
"420 653 LINE",
"474 645 LINE"
);
},
{
closed = 1;
nodes = (
"203 113 OFFCURVE",
"292 257 OFFCURVE",
"323 307 CURVE",
"274 361 LINE",
"216 268 OFFCURVE",
"103 112 OFFCURVE",
"72 85 CURVE SMOOTH",
"44 61 OFFCURVE",
"20 50 OFFCURVE",
"-7 50 CURVE",
"-12 0 LINE",
"211 0 LINE",
"216 47 LINE",
"169 55 LINE"
);
},
{
closed = 1;
nodes = (
"360 394 LINE",
"319 478 OFFCURVE",
"297 521 OFFCURVE",
"278 574 CURVE SMOOTH",
"265 610 OFFCURVE",
"251 651 OFFCURVE",
"310 651 CURVE",
"315 700 LINE",
"58 700 LINE",
"53 653 LINE",
"100 643 LINE",
"173 505 OFFCURVE",
"228 388 OFFCURVE",
"259 321 CURVE"
);
}
);
};
layerId = "71FD7A9F-05F5-4D76-8D4F-547475A05E4C";
name = "Bold Italic";
paths = (
{
closed = 1;
nodes = (
"273 267 LINE",
"262 158 OFFCURVE",
"247 111 OFFCURVE",
"250 95 CURVE SMOOTH",
"251 86 OFFCURVE",
"259 69 OFFCURVE",
"297 57 CURVE",
"192 57 LINE",
"188 0 LINE",
"454 0 LINE",
"462 54 LINE",
"406 62 LINE",
"394 121 OFFCURVE",
"388 205 OFFCURVE",
"400 283 CURVE"
);
},
{
closed = 1;
nodes = (
"462 581 OFFCURVE",
"379 374 OFFCURVE",
"292 257 CURVE",
"369 209 LINE",
"416 302 OFFCURVE",
"552 580 OFFCURVE",
"580 609 CURVE SMOOTH",
"604 633 OFFCURVE",
"628 644 OFFCURVE",
"655 644 CURVE",
"661 700 LINE",
"448 700 LINE",
"438 647 LINE",
"488 639 LINE"
);
},
{
closed = 1;
nodes = (
"383 319 LINE",
"336 412 OFFCURVE",
"269 577 OFFCURVE",
"264 600 CURVE SMOOTH",
"259 622 OFFCURVE",
"264 645 OFFCURVE",
"305 645 CURVE",
"311 700 LINE",
"62 700 LINE",
"52 647 LINE",
"97 639 LINE",
"206 422 OFFCURVE",
"244 333 OFFCURVE",
"285 216 CURVE"
);
}
);
width = 628;
},
{
layerId = "11343128-4963-4E5D-BE9C-B74F53B36FA5";
name = Bold;
width = 600;
}
);
leftKerningGroup = V;
rightKerningGroup = V;
},
{
glyphname = Z;
lastChange = "2015-12-01 10:14:16 +0000";
layers = (
{
anchors = (
{
name = bottom;
position = "{261, 0}";
},
{
name = top;
position = "{297, 656}";
}
);
background = {
components = (
{
name = T;
transform = "{1, 0, 0, 1, 4, 0}";
}
);
};
layerId = "71FD7A9F-05F5-4D76-8D4F-547475A05E4C";
name = "Bold Italic";
paths = (
{
closed = 1;
nodes = (
"385 695 OFFCURVE",
"257 700 OFFCURVE",
"90 700 CURVE",
"56 528 LINE",
"121 516 LINE",
"135 558 OFFCURVE",
"154 600 OFFCURVE",
"242 608 CURVE SMOOTH",
"285 612 OFFCURVE",
"333 614 OFFCURVE",
"377 616 CURVE",
"347 558 OFFCURVE",
"265 416 OFFCURVE",
"189 283 CURVE SMOOTH",
"117 158 OFFCURVE",
"58 69 OFFCURVE",
"17 50 CURVE",
"30 0 LINE",
"185 5 OFFCURVE",
"367 0 OFFCURVE",
"511 0 CURVE",
"536 162 LINE",
"474 173 LINE",
"439 98 LINE",
"371 89 OFFCURVE",
"283 81 OFFCURVE",
"216 81 CURVE",
"251 145 OFFCURVE",
"304 242 OFFCURVE",
"380 378 CURVE SMOOTH",
"447 498 OFFCURVE",
"522 636 OFFCURVE",
"556 653 CURVE",
"540 700 LINE"
);
}
);
width = 571;
},
{
layerId = "11343128-4963-4E5D-BE9C-B74F53B36FA5";
name = Bold;
width = 600;
}
);
leftKerningGroup = X;
rightKerningGroup = X;
unicode = 005A;
},
{
glyphname = Z.001;
lastChange = "2015-12-01 10:14:33 +0000";
layers = (
{
anchors = (
{
name = bottom;
position = "{261, 0}";
},
{
name = top;
position = "{297, 656}";
}
);
background = {
components = (
{
name = T;
transform = "{1, 0, 0, 1, 4, 0}";
}
);
};
layerId = "71FD7A9F-05F5-4D76-8D4F-547475A05E4C";
name = "Bold Italic";
paths = (
{
closed = 1;
nodes = (
"385 695 OFFCURVE",
"257 700 OFFCURVE",
"90 700 CURVE",
"56 528 LINE",
"121 516 LINE",
"135 558 OFFCURVE",
"154 600 OFFCURVE",
"242 608 CURVE SMOOTH",
"285 612 OFFCURVE",
"333 614 OFFCURVE",
"377 616 CURVE",
"347 558 OFFCURVE",
"265 416 OFFCURVE",
"189 283 CURVE SMOOTH",
"117 158 OFFCURVE",
"58 69 OFFCURVE",
"17 50 CURVE",
"30 0 LINE",
"185 5 OFFCURVE",
"367 0 OFFCURVE",
"511 0 CURVE",
"536 162 LINE",
"474 173 LINE",
"439 98 LINE",
"371 89 OFFCURVE",
"283 81 OFFCURVE",
"216 81 CURVE",
"251 145 OFFCURVE",
"304 242 OFFCURVE",
"380 378 CURVE SMOOTH",
"447 498 OFFCURVE",
"522 636 OFFCURVE",
"556 653 CURVE",
"540 700 LINE"
);
}
);
width = 571;
},
{
layerId = "11343128-4963-4E5D-BE9C-B74F53B36FA5";
name = Bold;
width = 600;
}
);
leftKerningGroup = X;
rightKerningGroup = X;
},
{
glyphname = Z.ss01;
lastChange = "2015-12-01 10:14:16 +0000";
layers = (
{
background = {
paths = (
{
closed = 1;
nodes = (
"507 0 LINE",
"536 155 LINE",
"487 166 LINE",
"469 94 OFFCURVE",
"433 82 OFFCURVE",
"319 82 CURVE",
"311 121 OFFCURVE",
"319 220 OFFCURVE",
"323 273 CURVE SMOOTH",
"331 381 OFFCURVE",
"363 597 OFFCURVE",
"360 612 CURVE",
"358 623 OFFCURVE",
"336 636 OFFCURVE",
"301 650 CURVE",
"419 650 LINE",
"423 700 LINE",
"130 700 LINE",
"127 653 LINE",
"183 645 LINE",
"216 589 OFFCURVE",
"202 404 OFFCURVE",
"189 257 CURVE SMOOTH",
"181 174 OFFCURVE",
"175 105 OFFCURVE",
"148 83 CURVE",
"107 83 OFFCURVE",
"64 87 OFFCURVE",
"23 94 CURVE",
"-7 163 LINE",
"-54 153 LINE",
"-34 0 LINE"
);
}
);
};
layerId = "71FD7A9F-05F5-4D76-8D4F-547475A05E4C";
name = "Bold Italic";
paths = (
{
closed = 1;
nodes = (
"385 695 OFFCURVE",
"257 700 OFFCURVE",
"90 700 CURVE",
"55 522 LINE",
"120 511 LINE",
"134 556 OFFCURVE",
"153 572 OFFCURVE",
"251 579 CURVE SMOOTH",
"294 582 OFFCURVE",
"331 584 OFFCURVE",
"375 586 CURVE",
"349 528 OFFCURVE",
"327 487 OFFCURVE",
"253 353 CURVE",
"146 175 OFFCURVE",
"95 112 OFFCURVE",
"58 80 CURVE SMOOTH",
"41 65 OFFCURVE",
"28 55 OFFCURVE",
"17 50 CURVE",
"30 0 LINE",
"185 7 OFFCURVE",
"362 0 OFFCURVE",
"506 0 CURVE",
"540 181 LINE",
"478 189 LINE",
"444 121 LINE",
"376 115 OFFCURVE",
"273 111 OFFCURVE",
"206 111 CURVE",
"243 175 OFFCURVE",
"265 213 OFFCURVE",
"347 351 CURVE SMOOTH",
"429 489 OFFCURVE",
"491 593 OFFCURVE",
"514 619 CURVE SMOOTH",
"525 632 OFFCURVE",
"546 648 OFFCURVE",
"556 653 CURVE",
"540 700 LINE"
);
}
);
width = 571;
},
{
layerId = "11343128-4963-4E5D-BE9C-B74F53B36FA5";
name = Bold;
width = 600;
}
);
leftKerningGroup = X;
rightKerningGroup = X;
},
{
glyphname = a;
lastChange = "2015-12-01 09:59:12 +0000";
layers = (
{
anchors = (
{
name = bottom;
position = "{235, 0}";
},
{
name = ogonek;
position = "{437, 10}";
},
{
name = top;
position = "{277, 479}";
}
);
background = {
paths = (
{
closed = 1;
nodes = (
"106 4 OFFCURVE",
"145 -5 OFFCURVE",
"180 -2 CURVE",
"227 39 OFFCURVE",
"252 70 OFFCURVE",
"296 131 CURVE",
"293 113 OFFCURVE",
"286 39 OFFCURVE",
"294 31 CURVE SMOOTH",
"306 19 OFFCURVE",
"438 -6 OFFCURVE",
"449 -1 CURVE",
"460 43 LINE",
"445 50 OFFCURVE",
"419 73 OFFCURVE",
"420 124 CURVE SMOOTH",
"421 182 OFFCURVE",
"434 333 OFFCURVE",
"447 423 CURVE SMOOTH",
"465 545 OFFCURVE",
"491 673 OFFCURVE",
"484 681 CURVE SMOOTH",
"472 691 OFFCURVE",
"336 740 OFFCURVE",
"323 730 CURVE",
"311 679 LINE",
"329 670 OFFCURVE",
"350 612 OFFCURVE",
"351 564 CURVE SMOOTH",
"352 523 OFFCURVE",
"350 499 OFFCURVE",
"346 450 CURVE",
"301 474 OFFCURVE",
"253 484 OFFCURVE",
"203 482 CURVE",
"31 432 OFFCURVE",
"-28 174 OFFCURVE",
"80 37 CURVE SMOOTH"
);
},
{
closed = 1;
nodes = (
"258 411 OFFCURVE",
"303 379 OFFCURVE",
"330 340 CURVE",
"314 251 LINE",
"287 194 OFFCURVE",
"209 114 OFFCURVE",
"204 109 CURVE",
"193 114 OFFCURVE",
"182 124 OFFCURVE",
"173 146 CURVE SMOOTH",
"140 228 OFFCURVE",
"144 365 OFFCURVE",
"222 415 CURVE"
);
}
);
};
guideLines = (
{
angle = -20;
position = "{407, 503}";
}
);
layerId = "71FD7A9F-05F5-4D76-8D4F-547475A05E4C";
name = "Bold Italic";
paths = (
{
closed = 1;
nodes = (
"269 77 OFFCURVE",
"303 147 OFFCURVE",
"311 153 CURVE",
"311 153 OFFCURVE",
"355 282 OFFCURVE",
"336 289 CURVE",
"320 254 OFFCURVE",
"256 157 OFFCURVE",
"204 110 CURVE",
"197 110 OFFCURVE",
"184 121 OFFCURVE",
"174 144 CURVE SMOOTH",
"135 239 OFFCURVE",
"151 371 OFFCURVE",
"221 414 CURVE",
"271 414 OFFCURVE",
"332 349 OFFCURVE",
"343 316 CURVE",
"343 316 OFFCURVE",
"390 357 OFFCURVE",
"390 413 CURVE",
"348 462 OFFCURVE",
"273 483 OFFCURVE",
"205 483 CURVE",
"31 433 OFFCURVE",
"-24 171 OFFCURVE",
"77 41 CURVE SMOOTH",
"108 1 OFFCURVE",
"141 -3 OFFCURVE",
"179 -3 CURVE"
);
},
{
closed = 1;
nodes = (
"438 5 OFFCURVE",
"464 17 OFFCURVE",
"480 28 CURVE",
"476 74 LINE",
"463 69 OFFCURVE",
"437 62 OFFCURVE",
"422 62 CURVE",
"394 91 OFFCURVE",
"438 322 OFFCURVE",
"446 352 CURVE SMOOTH",
"454 383 OFFCURVE",
"463 424 OFFCURVE",
"474 456 CURVE",
"462 467 OFFCURVE",
"441 475 OFFCURVE",
"428 479 CURVE SMOOTH",
"410 484 OFFCURVE",
"338 399 OFFCURVE",
"333 371 CURVE",
"328 364 OFFCURVE",
"327 362 OFFCURVE",
"325 347 CURVE SMOOTH",
"311 244 OFFCURVE",
"276 68 OFFCURVE",
"292 42 CURVE SMOOTH",
"302 26 OFFCURVE",
"359 -2 OFFCURVE",
"409 -1 CURVE"
);
}
);
width = 507;
},
{
layerId = "11343128-4963-4E5D-BE9C-B74F53B36FA5";
name = Bold;
width = 600;
}
);
leftKerningGroup = o;
leftMetricsKey = o;
rightKerningGroup = i;
rightMetricsKey = i;
unicode = 0061;
},
{
glyphname = a.001;
lastChange = "2015-12-01 10:14:33 +0000";
layers = (
{
anchors = (
{
name = bottom;
position = "{235, 0}";
},
{
name = ogonek;
position = "{437, 10}";
},
{
name = top;
position = "{277, 479}";
}
);
background = {
paths = (
{
closed = 1;
nodes = (
"106 4 OFFCURVE",
"145 -5 OFFCURVE",
"180 -2 CURVE",
"227 39 OFFCURVE",
"252 70 OFFCURVE",
"296 131 CURVE",
"293 113 OFFCURVE",
"286 39 OFFCURVE",
"294 31 CURVE SMOOTH",
"306 19 OFFCURVE",
"438 -6 OFFCURVE",
"449 -1 CURVE",
"460 43 LINE",
"445 50 OFFCURVE",
"419 73 OFFCURVE",
"420 124 CURVE SMOOTH",
"421 182 OFFCURVE",
"434 333 OFFCURVE",
"447 423 CURVE SMOOTH",
"465 545 OFFCURVE",
"491 673 OFFCURVE",
"484 681 CURVE SMOOTH",
"472 691 OFFCURVE",
"336 740 OFFCURVE",
"323 730 CURVE",
"311 679 LINE",
"329 670 OFFCURVE",
"350 612 OFFCURVE",
"351 564 CURVE SMOOTH",
"352 523 OFFCURVE",
"350 499 OFFCURVE",
"346 450 CURVE",
"301 474 OFFCURVE",
"253 484 OFFCURVE",
"203 482 CURVE",
"31 432 OFFCURVE",
"-28 174 OFFCURVE",
"80 37 CURVE SMOOTH"
);
},
{
closed = 1;
nodes = (
"258 411 OFFCURVE",
"303 379 OFFCURVE",
"330 340 CURVE",
"314 251 LINE",
"287 194 OFFCURVE",
"209 114 OFFCURVE",
"204 109 CURVE",
"193 114 OFFCURVE",
"182 124 OFFCURVE",
"173 146 CURVE SMOOTH",
"140 228 OFFCURVE",
"144 365 OFFCURVE",
"222 415 CURVE"
);
}
);
};
guideLines = (
{
angle = -20;
position = "{407, 503}";
}
);
layerId = "71FD7A9F-05F5-4D76-8D4F-547475A05E4C";
name = "Bold Italic";
paths = (
{
closed = 1;
nodes = (
"269 77 OFFCURVE",
"303 147 OFFCURVE",
"311 153 CURVE",
"311 153 OFFCURVE",
"355 282 OFFCURVE",
"336 289 CURVE",
"320 254 OFFCURVE",
"256 157 OFFCURVE",
"204 110 CURVE",
"197 110 OFFCURVE",
"184 121 OFFCURVE",
"174 144 CURVE SMOOTH",
"135 239 OFFCURVE",
"151 371 OFFCURVE",
"221 414 CURVE",
"271 414 OFFCURVE",
"332 349 OFFCURVE",
"343 316 CURVE",
"343 316 OFFCURVE",
"390 357 OFFCURVE",
"390 413 CURVE",
"348 462 OFFCURVE",
"273 483 OFFCURVE",
"205 483 CURVE",
"31 433 OFFCURVE",
"-24 171 OFFCURVE",
"77 41 CURVE SMOOTH",
"108 1 OFFCURVE",
"141 -3 OFFCURVE",
"179 -3 CURVE"
);
},
{
closed = 1;
nodes = (
"438 5 OFFCURVE",
"464 17 OFFCURVE",
"480 28 CURVE",
"476 74 LINE",
"463 69 OFFCURVE",
"437 62 OFFCURVE",
"422 62 CURVE",
"394 91 OFFCURVE",
"438 322 OFFCURVE",
"446 352 CURVE SMOOTH",
"454 383 OFFCURVE",
"463 424 OFFCURVE",
"474 456 CURVE",
"462 467 OFFCURVE",
"441 475 OFFCURVE",
"428 479 CURVE SMOOTH",
"410 484 OFFCURVE",
"338 399 OFFCURVE",
"333 371 CURVE",
"328 364 OFFCURVE",
"327 362 OFFCURVE",
"325 347 CURVE SMOOTH",
"311 244 OFFCURVE",
"276 68 OFFCURVE",
"292 42 CURVE SMOOTH",
"302 26 OFFCURVE",
"359 -2 OFFCURVE",
"409 -1 CURVE"
);
}
);
width = 507;
},
{
layerId = "11343128-4963-4E5D-BE9C-B74F53B36FA5";
name = Bold;
width = 600;
}
);
leftKerningGroup = o;
leftMetricsKey = o;
rightKerningGroup = i;
rightMetricsKey = i;
},
{
glyphname = ae;
lastChange = "2015-12-01 10:14:16 +0000";
layers = (
{
anchors = (
{
name = bottom;
position = "{462, 0}";
},
{
name = ogonek;
position = "{627, 10}";
},
{
name = top;
position = "{512, 480}";
}
);
layerId = "71FD7A9F-05F5-4D76-8D4F-547475A05E4C";
name = "Bold Italic";
paths = (
{
closed = 1;
nodes = (
"478 83 OFFCURVE",
"443 125 OFFCURVE",
"434 173 CURVE",
"597 156 OFFCURVE",
"711 260 OFFCURVE",
"677 393 CURVE SMOOTH",
"665 441 OFFCURVE",
"627 486 OFFCURVE",
"517 486 CURVE",
"460 475 OFFCURVE",
"416 451 OFFCURVE",
"384 418 CURVE",
"342 463 OFFCURVE",
"271 483 OFFCURVE",
"205 483 CURVE",
"31 433 OFFCURVE",
"-24 171 OFFCURVE",
"77 41 CURVE SMOOTH",
"108 1 OFFCURVE",
"141 -3 OFFCURVE",
"179 -3 CURVE",
"269 77 OFFCURVE",
"303 140 OFFCURVE",
"311 146 CURVE",
"314 157 LINE",
"333 15 OFFCURVE",
"436 -33 OFFCURVE",
"569 8 CURVE SMOOTH",
"615 22 OFFCURVE",
"637 43 OFFCURVE",
"646 53 CURVE",
"639 100 LINE",
"624 87 OFFCURVE",
"565 68 OFFCURVE",
"523 75 CURVE SMOOTH"
);
},
{
closed = 1;
nodes = (
"549 394 OFFCURVE",
"567 347 OFFCURVE",
"574 304 CURVE",
"571 287 OFFCURVE",
"505 221 OFFCURVE",
"427 229 CURVE",
"430 275 OFFCURVE",
"432 296 OFFCURVE",
"440 324 CURVE SMOOTH",
"451 363 OFFCURVE",
"473 395 OFFCURVE",
"505 416 CURVE"
);
},
{
closed = 1;
nodes = (
"197 110 OFFCURVE",
"184 121 OFFCURVE",
"174 144 CURVE SMOOTH",
"135 239 OFFCURVE",
"151 371 OFFCURVE",
"221 414 CURVE",
"260 414 OFFCURVE",
"304 373 OFFCURVE",
"327 340 CURVE",
"327 339 OFFCURVE",
"313 243 OFFCURVE",
"313 243 CURVE",
"285 193 OFFCURVE",
"242 138 OFFCURVE",
"204 110 CURVE"
);
}
);
width = 701;
},
{
layerId = "11343128-4963-4E5D-BE9C-B74F53B36FA5";
name = Bold;
width = 600;
}
);
leftKerningGroup = o;
leftMetricsKey = a;
rightKerningGroup = o;
rightMetricsKey = e;
unicode = 00E6;
},
{
glyphname = b;
lastChange = "2015-12-01 10:14:16 +0000";
layers = (
{
anchors = (
{
name = bottom;
position = "{215, 0}";
},
{
name = top;
position = "{265, 480}";
}
);
background = {
paths = (
{
closed = 1;
nodes = (
"357 483 LINE",
"277 437 OFFCURVE",
"206 307 OFFCURVE",
"185 276 CURVE",
"208 457 OFFCURVE",
"251 689 OFFCURVE",
"230 708 CURVE SMOOTH",
"218 719 OFFCURVE",
"88 747 OFFCURVE",
"68 740 CURVE",
"58 698 LINE",
"100 668 LINE",
"103 619 OFFCURVE",
"96 479 OFFCURVE",
"81 353 CURVE SMOOTH",
"65 217 OFFCURVE",
"40 43 OFFCURVE",
"38 32 CURVE",
"38 20 OFFCURVE",
"115 -5 OFFCURVE",
"163 -5 CURVE SMOOTH",
"178 -5 OFFCURVE",
"180 41 OFFCURVE",
"173 132 CURVE",
"215 236 OFFCURVE",
"295 334 OFFCURVE",
"323 360 CURVE",
"295 255 OFFCURVE",
"275 75 OFFCURVE",
"294 44 CURVE SMOOTH",
"304 28 OFFCURVE",
"356 -2 OFFCURVE",
"410 -2 CURVE",
"442 7 OFFCURVE",
"461 17 OFFCURVE",
"473 25 CURVE",
"469 70 LINE",
"455 65 OFFCURVE",
"434 59 OFFCURVE",
"419 59 CURVE",
"399 124 OFFCURVE",
"440 371 OFFCURVE",
"460 444 CURVE"
);
}
);
};
guideLines = (
{
angle = -12;
position = "{186, 724}";
},
{
angle = -20;
position = "{24, -2}";
}
);
layerId = "71FD7A9F-05F5-4D76-8D4F-547475A05E4C";
name = "Bold Italic";
paths = (
{
closed = 1;
nodes = (
"372 480 OFFCURVE",
"348 482 OFFCURVE",
"309 480 CURVE",
"276 455 OFFCURVE",
"218 381 OFFCURVE",
"194 347 CURVE",
"223 543 OFFCURVE",
"244 685 OFFCURVE",
"231 706 CURVE SMOOTH",
"223 719 OFFCURVE",
"81 747 OFFCURVE",
"68 740 CURVE",
"58 698 LINE",
"65 694 OFFCURVE",
"87 679 OFFCURVE",
"101 667 CURVE",
"103 648 OFFCURVE",
"102 606 OFFCURVE",
"100 569 CURVE SMOOTH",
"91 420 OFFCURVE",
"59 157 OFFCURVE",
"35 18 CURVE",
"42 11 OFFCURVE",
"62 4 OFFCURVE",
"83 -1 CURVE SMOOTH",
"95 -4 OFFCURVE",
"102 6 OFFCURVE",
"119 42 CURVE",
"154 17 OFFCURVE",
"223 -11 OFFCURVE",
"287 -4 CURVE",
"463 45 OFFCURVE",
"512 312 OFFCURVE",
"404 442 CURVE SMOOTH"
);
},
{
closed = 1;
nodes = (
"267 63 LINE SMOOTH",
"267 63 OFFCURVE",
"214 68 OFFCURVE",
"161 137 CURVE",
"178 232 LINE",
"211 290 OFFCURVE",
"268 351 OFFCURVE",
"286 368 CURVE",
"293 368 OFFCURVE",
"309 354 OFFCURVE",
"318 329 CURVE SMOOTH",
"348 247 OFFCURVE",
"346 106 OFFCURVE",
"267 63 CURVE"
);
}
);
width = 488;
},
{
layerId = "11343128-4963-4E5D-BE9C-B74F53B36FA5";
name = Bold;
width = 600;
}
);
leftKerningGroup = l;
leftMetricsKey = l;
rightKerningGroup = o;
rightMetricsKey = o;
unicode = 0062;
},
{
glyphname = b.001;
lastChange = "2015-12-01 10:14:33 +0000";
layers = (
{
anchors = (
{
name = bottom;
position = "{215, 0}";
},
{
name = top;
position = "{265, 480}";
}
);
background = {
paths = (
{
closed = 1;
nodes = (
"357 483 LINE",
"277 437 OFFCURVE",
"206 307 OFFCURVE",
"185 276 CURVE",
"208 457 OFFCURVE",
"251 689 OFFCURVE",
"230 708 CURVE SMOOTH",
"218 719 OFFCURVE",
"88 747 OFFCURVE",
"68 740 CURVE",
"58 698 LINE",
"100 668 LINE",
"103 619 OFFCURVE",
"96 479 OFFCURVE",
"81 353 CURVE SMOOTH",
"65 217 OFFCURVE",
"40 43 OFFCURVE",
"38 32 CURVE",
"38 20 OFFCURVE",
"115 -5 OFFCURVE",
"163 -5 CURVE SMOOTH",
"178 -5 OFFCURVE",
"180 41 OFFCURVE",
"173 132 CURVE",
"215 236 OFFCURVE",
"295 334 OFFCURVE",
"323 360 CURVE",
"295 255 OFFCURVE",
"275 75 OFFCURVE",
"294 44 CURVE SMOOTH",
"304 28 OFFCURVE",
"356 -2 OFFCURVE",
"410 -2 CURVE",
"442 7 OFFCURVE",
"461 17 OFFCURVE",
"473 25 CURVE",
"469 70 LINE",
"455 65 OFFCURVE",
"434 59 OFFCURVE",
"419 59 CURVE",
"399 124 OFFCURVE",
"440 371 OFFCURVE",
"460 444 CURVE"
);
}
);
};
guideLines = (
{
angle = -12;
position = "{186, 724}";
},
{
angle = -20;
position = "{24, -2}";
}
);
layerId = "71FD7A9F-05F5-4D76-8D4F-547475A05E4C";
name = "Bold Italic";
paths = (
{
closed = 1;
nodes = (
"372 480 OFFCURVE",
"348 482 OFFCURVE",
"309 480 CURVE",
"276 455 OFFCURVE",
"218 381 OFFCURVE",
"194 347 CURVE",
"223 543 OFFCURVE",
"244 685 OFFCURVE",
"231 706 CURVE SMOOTH",
"223 719 OFFCURVE",
"81 747 OFFCURVE",
"68 740 CURVE",
"58 698 LINE",
"65 694 OFFCURVE",
"87 679 OFFCURVE",
"101 667 CURVE",
"103 648 OFFCURVE",
"102 606 OFFCURVE",
"100 569 CURVE SMOOTH",
"91 420 OFFCURVE",
"59 157 OFFCURVE",
"35 18 CURVE",
"42 11 OFFCURVE",
"62 4 OFFCURVE",
"83 -1 CURVE SMOOTH",
"95 -4 OFFCURVE",
"102 6 OFFCURVE",
"119 42 CURVE",
"154 17 OFFCURVE",
"223 -11 OFFCURVE",
"287 -4 CURVE",
"463 45 OFFCURVE",
"512 312 OFFCURVE",
"404 442 CURVE SMOOTH"
);
},
{
closed = 1;
nodes = (
"267 63 LINE SMOOTH",
"267 63 OFFCURVE",
"214 68 OFFCURVE",
"161 137 CURVE",
"178 232 LINE",
"211 290 OFFCURVE",
"268 351 OFFCURVE",
"286 368 CURVE",
"293 368 OFFCURVE",
"309 354 OFFCURVE",
"318 329 CURVE SMOOTH",
"348 247 OFFCURVE",
"346 106 OFFCURVE",
"267 63 CURVE"
);
}
);
width = 488;
},
{
layerId = "11343128-4963-4E5D-BE9C-B74F53B36FA5";
name = Bold;
width = 600;
}
);
leftKerningGroup = l;
leftMetricsKey = l;
rightKerningGroup = o;
rightMetricsKey = o;
},
{
glyphname = c;
lastChange = "2015-12-01 10:14:16 +0000";
layers = (
{
anchors = (
{
name = bottom;
position = "{200, 0}";
},
{
name = top;
position = "{230, 480}";
}
);
background = {
paths = (
{
closed = 1;
nodes = (
"380 459 OFFCURVE",
"331 503 OFFCURVE",
"222 481 CURVE SMOOTH",
"36 443 OFFCURVE",
"-28 183 OFFCURVE",
"74 58 CURVE SMOOTH",
"121 0 OFFCURVE",
"194 -22 OFFCURVE",
"278 6 CURVE SMOOTH",
"466 69 OFFCURVE",
"494 316 OFFCURVE",
"410 421 CURVE SMOOTH"
);
},
{
closed = 1;
nodes = (
"210 74 OFFCURVE",
"183 91 OFFCURVE",
"162 142 CURVE SMOOTH",
"125 233 OFFCURVE",
"154 365 OFFCURVE",
"230 407 CURVE",
"266 407 OFFCURVE",
"295 396 OFFCURVE",
"317 345 CURVE SMOOTH",
"354 260 OFFCURVE",
"335 125 OFFCURVE",
"251 74 CURVE"
);
}
);
};
layerId = "71FD7A9F-05F5-4D76-8D4F-547475A05E4C";
name = "Bold Italic";
paths = (
{
closed = 1;
nodes = (
"300 357 OFFCURVE",
"243 384 OFFCURVE",
"215 396 CURVE",
"144 343 OFFCURVE",
"135 215 OFFCURVE",
"167 145 CURVE SMOOTH",
"183 110 OFFCURVE",
"215 79 OFFCURVE",
"252 76 CURVE SMOOTH",
"308 72 OFFCURVE",
"347 91 OFFCURVE",
"365 100 CURVE",
"371 50 LINE",
"343 30 OFFCURVE",
"308 5 OFFCURVE",
"229 -2 CURVE",
"163 -6 OFFCURVE",
"117 13 OFFCURVE",
"77 57 CURVE",
"-25 169 OFFCURVE",
"31 459 OFFCURVE",
"229 483 CURVE",
"297 488 OFFCURVE",
"367 471 OFFCURVE",
"401 430 CURVE",
"390 394 OFFCURVE",
"363 344 OFFCURVE",
"344 321 CURVE"
);
}
);
width = 401;
},
{
layerId = "11343128-4963-4E5D-BE9C-B74F53B36FA5";
name = Bold;
width = 600;
}
);
leftKerningGroup = o;
leftMetricsKey = o;
rightKerningGroup = z;
unicode = 0063;
},
{
glyphname = c.001;
lastChange = "2015-12-01 10:14:33 +0000";
layers = (
{
anchors = (
{
name = bottom;
position = "{200, 0}";
},
{
name = top;
position = "{230, 480}";
}
);
background = {
paths = (
{
closed = 1;
nodes = (
"380 459 OFFCURVE",
"331 503 OFFCURVE",
"222 481 CURVE SMOOTH",
"36 443 OFFCURVE",
"-28 183 OFFCURVE",
"74 58 CURVE SMOOTH",
"121 0 OFFCURVE",
"194 -22 OFFCURVE",
"278 6 CURVE SMOOTH",
"466 69 OFFCURVE",
"494 316 OFFCURVE",
"410 421 CURVE SMOOTH"
);
},
{
closed = 1;
nodes = (
"210 74 OFFCURVE",
"183 91 OFFCURVE",
"162 142 CURVE SMOOTH",
"125 233 OFFCURVE",
"154 365 OFFCURVE",
"230 407 CURVE",
"266 407 OFFCURVE",
"295 396 OFFCURVE",
"317 345 CURVE SMOOTH",
"354 260 OFFCURVE",
"335 125 OFFCURVE",
"251 74 CURVE"
);
}
);
};
layerId = "71FD7A9F-05F5-4D76-8D4F-547475A05E4C";
name = "Bold Italic";
paths = (
{
closed = 1;
nodes = (
"300 357 OFFCURVE",
"243 384 OFFCURVE",
"215 396 CURVE",
"144 343 OFFCURVE",
"135 215 OFFCURVE",
"167 145 CURVE SMOOTH",
"183 110 OFFCURVE",
"215 79 OFFCURVE",
"252 76 CURVE SMOOTH",
"308 72 OFFCURVE",
"347 91 OFFCURVE",
"365 100 CURVE",
"371 50 LINE",
"343 30 OFFCURVE",
"308 5 OFFCURVE",
"229 -2 CURVE",
"163 -6 OFFCURVE",
"117 13 OFFCURVE",
"77 57 CURVE",
"-25 169 OFFCURVE",
"31 459 OFFCURVE",
"229 483 CURVE",
"297 488 OFFCURVE",
"367 471 OFFCURVE",
"401 430 CURVE",
"390 394 OFFCURVE",
"363 344 OFFCURVE",
"344 321 CURVE"
);
}
);
width = 401;
},
{
layerId = "11343128-4963-4E5D-BE9C-B74F53B36FA5";
name = Bold;
width = 600;
}
);
leftKerningGroup = o;
leftMetricsKey = o;
rightKerningGroup = z;
},
{
glyphname = d;
lastChange = "2015-12-01 10:14:16 +0000";
layers = (
{
anchors = (
{
name = bottom;
position = "{235, 0}";
},
{
name = center;
position = "{112, 260}";
},
{
name = top;
position = "{285, 480}";
},
{
name = topright;
position = "{516, 480}";
}
);
background = {
paths = (
{
closed = 1;
nodes = (
"605 483 LINE",
"525 437 OFFCURVE",
"454 307 OFFCURVE",
"433 276 CURVE",
"456 457 OFFCURVE",
"499 689 OFFCURVE",
"478 708 CURVE SMOOTH",
"466 719 OFFCURVE",
"341 747 OFFCURVE",
"321 740 CURVE",
"311 698 LINE",
"353 668 LINE",
"356 619 OFFCURVE",
"346 479 OFFCURVE",
"331 353 CURVE SMOOTH",
"315 217 OFFCURVE",
"288 45 OFFCURVE",
"286 34 CURVE",
"286 22 OFFCURVE",
"362 -3 OFFCURVE",
"410 -3 CURVE SMOOTH",
"425 -3 OFFCURVE",
"427 43 OFFCURVE",
"420 132 CURVE",
"462 236 OFFCURVE",
"543 334 OFFCURVE",
"571 360 CURVE",
"543 255 OFFCURVE",
"523 75 OFFCURVE",
"542 44 CURVE SMOOTH",
"552 28 OFFCURVE",
"604 -2 OFFCURVE",
"658 -2 CURVE",
"690 7 OFFCURVE",
"709 17 OFFCURVE",
"721 25 CURVE",
"717 70 LINE",
"703 65 OFFCURVE",
"682 59 OFFCURVE",
"667 59 CURVE",
"647 124 OFFCURVE",
"688 371 OFFCURVE",
"708 444 CURVE"
);
}
);
};
guideLines = (
{
position = "{319, 410}";
},
{
angle = -18;
position = "{518, 111}";
},
{
position = "{1186, 374}";
}
);
layerId = "71FD7A9F-05F5-4D76-8D4F-547475A05E4C";
name = "Bold Italic";
paths = (
{
closed = 1;
nodes = (
"142 0 OFFCURVE",
"112 2 OFFCURVE",
"80 41 CURVE SMOOTH",
"-26 171 OFFCURVE",
"30 434 OFFCURVE",
"204 484 CURVE",
"281 488 OFFCURVE",
"362 456 OFFCURVE",
"393 415 CURVE",
"393 359 OFFCURVE",
"338 328 OFFCURVE",
"338 328 CURVE",
"323 364 OFFCURVE",
"271 410 OFFCURVE",
"224 417 CURVE",
"149 374 OFFCURVE",
"142 240 OFFCURVE",
"169 160 CURVE SMOOTH",
"179 130 OFFCURVE",
"198 111 OFFCURVE",
"205 111 CURVE",
"224 128 OFFCURVE",
"301 216 OFFCURVE",
"319 261 CURVE",
"338 254 OFFCURVE",
"320 167 OFFCURVE",
"320 167 CURVE",
"313 159 OFFCURVE",
"257 63 OFFCURVE",
"180 0 CURVE"
);
},
{
closed = 1;
nodes = (
"361 -2 OFFCURVE",
"310 34 OFFCURVE",
"302 40 CURVE SMOOTH",
"279 58 OFFCURVE",
"315 235 OFFCURVE",
"328 326 CURVE SMOOTH",
"344 442 OFFCURVE",
"358 607 OFFCURVE",
"355 668 CURVE",
"339 680 OFFCURVE",
"329 688 OFFCURVE",
"313 698 CURVE",
"323 740 LINE",
"338 748 OFFCURVE",
"472 717 OFFCURVE",
"479 707 CURVE SMOOTH",
"494 684 OFFCURVE",
"466 521 OFFCURVE",
"453 432 CURVE SMOOTH",
"429 265 OFFCURVE",
"401 88 OFFCURVE",
"424 62 CURVE",
"435 62 OFFCURVE",
"460 69 OFFCURVE",
"475 74 CURVE",
"479 28 LINE",
"461 15 OFFCURVE",
"441 5 OFFCURVE",
"416 -2 CURVE"
);
}
);
width = 506;
},
{
layerId = "11343128-4963-4E5D-BE9C-B74F53B36FA5";
name = Bold;
width = 600;
}
);
leftKerningGroup = o;
leftMetricsKey = o;
rightKerningGroup = i;
rightMetricsKey = i;
unicode = 0064;
},
{
glyphname = d.001;
lastChange = "2015-12-01 10:14:33 +0000";
layers = (
{
anchors = (
{
name = bottom;
position = "{235, 0}";
},
{
name = center;
position = "{112, 260}";
},
{
name = top;
position = "{285, 480}";
},
{
name = topright;
position = "{516, 480}";
}
);
background = {
paths = (
{
closed = 1;
nodes = (
"605 483 LINE",
"525 437 OFFCURVE",
"454 307 OFFCURVE",
"433 276 CURVE",
"456 457 OFFCURVE",
"499 689 OFFCURVE",
"478 708 CURVE SMOOTH",
"466 719 OFFCURVE",
"341 747 OFFCURVE",
"321 740 CURVE",
"311 698 LINE",
"353 668 LINE",
"356 619 OFFCURVE",
"346 479 OFFCURVE",
"331 353 CURVE SMOOTH",
"315 217 OFFCURVE",
"288 45 OFFCURVE",
"286 34 CURVE",
"286 22 OFFCURVE",
"362 -3 OFFCURVE",
"410 -3 CURVE SMOOTH",
"425 -3 OFFCURVE",
"427 43 OFFCURVE",
"420 132 CURVE",
"462 236 OFFCURVE",
"543 334 OFFCURVE",
"571 360 CURVE",
"543 255 OFFCURVE",
"523 75 OFFCURVE",
"542 44 CURVE SMOOTH",
"552 28 OFFCURVE",
"604 -2 OFFCURVE",
"658 -2 CURVE",
"690 7 OFFCURVE",
"709 17 OFFCURVE",
"721 25 CURVE",
"717 70 LINE",
"703 65 OFFCURVE",
"682 59 OFFCURVE",
"667 59 CURVE",
"647 124 OFFCURVE",
"688 371 OFFCURVE",
"708 444 CURVE"
);
}
);
};
guideLines = (
{
position = "{319, 410}";
},
{
angle = -18;
position = "{518, 111}";
},
{
position = "{1186, 374}";
}
);
layerId = "71FD7A9F-05F5-4D76-8D4F-547475A05E4C";
name = "Bold Italic";
paths = (
{
closed = 1;
nodes = (
"142 0 OFFCURVE",
"112 2 OFFCURVE",
"80 41 CURVE SMOOTH",
"-26 171 OFFCURVE",
"30 434 OFFCURVE",
"204 484 CURVE",
"281 488 OFFCURVE",
"362 456 OFFCURVE",
"393 415 CURVE",
"393 359 OFFCURVE",
"338 328 OFFCURVE",
"338 328 CURVE",
"323 364 OFFCURVE",
"271 410 OFFCURVE",
"224 417 CURVE",
"149 374 OFFCURVE",
"142 240 OFFCURVE",
"169 160 CURVE SMOOTH",
"179 130 OFFCURVE",
"198 111 OFFCURVE",
"205 111 CURVE",
"224 128 OFFCURVE",
"301 216 OFFCURVE",
"319 261 CURVE",
"338 254 OFFCURVE",
"320 167 OFFCURVE",
"320 167 CURVE",
"313 159 OFFCURVE",
"257 63 OFFCURVE",
"180 0 CURVE"
);
},
{
closed = 1;
nodes = (
"361 -2 OFFCURVE",
"310 34 OFFCURVE",
"302 40 CURVE SMOOTH",
"279 58 OFFCURVE",
"315 235 OFFCURVE",
"328 326 CURVE SMOOTH",
"344 442 OFFCURVE",
"358 607 OFFCURVE",
"355 668 CURVE",
"339 680 OFFCURVE",
"329 688 OFFCURVE",
"313 698 CURVE",
"323 740 LINE",
"338 748 OFFCURVE",
"472 717 OFFCURVE",
"479 707 CURVE SMOOTH",
"494 684 OFFCURVE",
"466 521 OFFCURVE",
"453 432 CURVE SMOOTH",
"429 265 OFFCURVE",
"401 88 OFFCURVE",
"424 62 CURVE",
"435 62 OFFCURVE",
"460 69 OFFCURVE",
"475 74 CURVE",
"479 28 LINE",
"461 15 OFFCURVE",
"441 5 OFFCURVE",
"416 -2 CURVE"
);
}
);
width = 506;
},
{
layerId = "11343128-4963-4E5D-BE9C-B74F53B36FA5";
name = Bold;
width = 600;
}
);
leftKerningGroup = o;
leftMetricsKey = o;
rightKerningGroup = i;
rightMetricsKey = i;
},
{
glyphname = eth;
lastChange = "2015-12-01 10:14:16 +0000";
layers = (
{
components = (
{
name = d;
},
{
name = d;
}
);
layerId = "71FD7A9F-05F5-4D76-8D4F-547475A05E4C";
name = "Bold Italic";
paths = (
{
closed = 1;
nodes = (
"263 538 LINE",
"357 540 OFFCURVE",
"452 540 OFFCURVE",
"546 538 CURVE",
"550 598 LINE",
"455 596 OFFCURVE",
"364 596 OFFCURVE",
"269 598 CURVE"
);
}
);
width = 520;
},
{
layerId = "11343128-4963-4E5D-BE9C-B74F53B36FA5";
name = Bold;
width = 600;
}
);
leftKerningGroup = o;
leftMetricsKey = o;
rightKerningGroup = i;
rightMetricsKey = d;
unicode = 00F0;
},
{
glyphname = e;
lastChange = "2015-12-01 10:14:16 +0000";
layers = (
{
anchors = (
{
name = bottom;
position = "{189, 0}";
},
{
name = ogonek;
position = "{336, 10}";
},
{
name = top;
position = "{239, 480}";
}
);
background = {
paths = (
{
closed = 1;
nodes = (
"300 357 OFFCURVE",
"261 381 OFFCURVE",
"233 393 CURVE",
"152 346 OFFCURVE",
"137 216 OFFCURVE",
"169 146 CURVE SMOOTH",
"185 111 OFFCURVE",
"215 79 OFFCURVE",
"252 76 CURVE SMOOTH",
"308 72 OFFCURVE",
"347 91 OFFCURVE",
"365 100 CURVE",
"371 50 LINE",
"343 30 OFFCURVE",
"308 5 OFFCURVE",
"229 -2 CURVE",
"163 -6 OFFCURVE",
"117 13 OFFCURVE",
"77 57 CURVE",
"-25 169 OFFCURVE",
"31 459 OFFCURVE",
"229 483 CURVE",
"297 488 OFFCURVE",
"367 471 OFFCURVE",
"401 430 CURVE",
"390 394 OFFCURVE",
"363 344 OFFCURVE",
"344 321 CURVE"
);
}
);
};
layerId = "71FD7A9F-05F5-4D76-8D4F-547475A05E4C";
name = "Bold Italic";
paths = (
{
closed = 1;
nodes = (
"298 287 OFFCURVE",
"230 219 OFFCURVE",
"151 229 CURVE",
"104 206 OFFCURVE",
"88 206 OFFCURVE",
"148 174 CURVE",
"318 151 OFFCURVE",
"439 257 OFFCURVE",
"404 393 CURVE SMOOTH",
"392 441 OFFCURVE",
"354 486 OFFCURVE",
"244 486 CURVE",
"20 445 OFFCURVE",
"-25 167 OFFCURVE",
"83 51 CURVE SMOOTH",
"144 -15 OFFCURVE",
"238 -10 OFFCURVE",
"296 8 CURVE SMOOTH",
"342 22 OFFCURVE",
"364 43 OFFCURVE",
"373 53 CURVE",
"366 100 LINE",
"351 87 OFFCURVE",
"292 68 OFFCURVE",
"250 75 CURVE SMOOTH",
"215 81 OFFCURVE",
"187 105 OFFCURVE",
"170 144 CURVE SMOOTH",
"139 216 OFFCURVE",
"148 362 OFFCURVE",
"232 416 CURVE",
"276 394 OFFCURVE",
"294 347 OFFCURVE",
"301 304 CURVE"
);
}
);
width = 428;
},
{
layerId = "11343128-4963-4E5D-BE9C-B74F53B36FA5";
name = Bold;
width = 600;
}
);
leftKerningGroup = o;
leftMetricsKey = o;
rightKerningGroup = o;
rightMetricsKey = o;
unicode = 0065;
},
{
glyphname = e.001;
lastChange = "2015-12-01 10:14:33 +0000";
layers = (
{
anchors = (
{
name = bottom;
position = "{189, 0}";
},
{
name = ogonek;
position = "{336, 10}";
},
{
name = top;
position = "{239, 480}";
}
);
background = {
paths = (
{
closed = 1;
nodes = (
"300 357 OFFCURVE",
"261 381 OFFCURVE",
"233 393 CURVE",
"152 346 OFFCURVE",
"137 216 OFFCURVE",
"169 146 CURVE SMOOTH",
"185 111 OFFCURVE",
"215 79 OFFCURVE",
"252 76 CURVE SMOOTH",
"308 72 OFFCURVE",
"347 91 OFFCURVE",
"365 100 CURVE",
"371 50 LINE",
"343 30 OFFCURVE",
"308 5 OFFCURVE",
"229 -2 CURVE",
"163 -6 OFFCURVE",
"117 13 OFFCURVE",
"77 57 CURVE",
"-25 169 OFFCURVE",
"31 459 OFFCURVE",
"229 483 CURVE",
"297 488 OFFCURVE",
"367 471 OFFCURVE",
"401 430 CURVE",
"390 394 OFFCURVE",
"363 344 OFFCURVE",
"344 321 CURVE"
);
}
);
};
layerId = "71FD7A9F-05F5-4D76-8D4F-547475A05E4C";
name = "Bold Italic";
paths = (
{
closed = 1;
nodes = (
"298 287 OFFCURVE",
"230 219 OFFCURVE",
"151 229 CURVE",
"104 206 OFFCURVE",
"88 206 OFFCURVE",
"148 174 CURVE",
"318 151 OFFCURVE",
"439 257 OFFCURVE",
"404 393 CURVE SMOOTH",
"392 441 OFFCURVE",
"354 486 OFFCURVE",
"244 486 CURVE",
"20 445 OFFCURVE",
"-25 167 OFFCURVE",
"83 51 CURVE SMOOTH",
"144 -15 OFFCURVE",
"238 -10 OFFCURVE",
"296 8 CURVE SMOOTH",
"342 22 OFFCURVE",
"364 43 OFFCURVE",
"373 53 CURVE",
"366 100 LINE",
"351 87 OFFCURVE",
"292 68 OFFCURVE",
"250 75 CURVE SMOOTH",
"215 81 OFFCURVE",
"187 105 OFFCURVE",
"170 144 CURVE SMOOTH",
"139 216 OFFCURVE",
"148 362 OFFCURVE",
"232 416 CURVE",
"276 394 OFFCURVE",
"294 347 OFFCURVE",
"301 304 CURVE"
);
}
);
width = 428;
},
{
layerId = "11343128-4963-4E5D-BE9C-B74F53B36FA5";
name = Bold;
width = 600;
}
);
leftKerningGroup = o;
leftMetricsKey = o;
rightKerningGroup = o;
rightMetricsKey = o;
},
{
glyphname = f;
lastChange = "2015-12-01 10:14:05 +0000";
layers = (
{
anchors = (
{
name = bottom;
position = "{116, 0}";
},
{
name = top;
position = "{166, 480}";
}
);
background = {
paths = (
{
closed = 1;
nodes = (
"109 -217 OFFCURVE",
"137 -133 OFFCURVE",
"153 13 CURVE SMOOTH",
"161 87 OFFCURVE",
"189 343 OFFCURVE",
"193 390 CURVE",
"224 594 OFFCURVE",
"247 638 OFFCURVE",
"278 679 CURVE",
"290 679 OFFCURVE",
"318 671 OFFCURVE",
"342 657 CURVE",
"359 701 LINE",
"335 721 OFFCURVE",
"297 737 OFFCURVE",
"263 743 CURVE",
"156 717 OFFCURVE",
"107 654 OFFCURVE",
"93 494 CURVE SMOOTH",
"57 90 LINE",
"31 -114 OFFCURVE",
"11 -165 OFFCURVE",
"-4 -185 CURVE",
"-18 -183 OFFCURVE",
"-69 -136 OFFCURVE",
"-106 -106 CURVE",
"-128 -136 OFFCURVE",
"-142 -173 OFFCURVE",
"-150 -202 CURVE",
"-118 -232 OFFCURVE",
"-61 -248 OFFCURVE",
"0 -247 CURVE"
);
}
);
};
layerId = "71FD7A9F-05F5-4D76-8D4F-547475A05E4C";
name = "Bold Italic";
paths = (
{
closed = 1;
nodes = (
"172 400 LINE",
"220 399 OFFCURVE",
"273 398 OFFCURVE",
"295 398 CURVE SMOOTH",
"306 398 OFFCURVE",
"307 414 OFFCURVE",
"315 478 CURVE",
"266 475 OFFCURVE",
"223 474 OFFCURVE",
"206 473 CURVE",
"109 572 LINE",
"91 491 LINE",
"88 470 OFFCURVE",
"79 468 OFFCURVE",
"49 466 CURVE SMOOTH",
"34 465 LINE",
"27 401 LINE",
"31 401 OFFCURVE",
"75 401 OFFCURVE",
"90 401 CURVE"
);
},
{
closed = 1;
nodes = (
"142 710 OFFCURVE",
"106 626 OFFCURVE",
"90 480 CURVE SMOOTH",
"82 406 OFFCURVE",
"66 261 OFFCURVE",
"51 103 CURVE",
"32 -65 OFFCURVE",
"20 -142 OFFCURVE",
"-11 -183 CURVE",
"-39 -169 OFFCURVE",
"-85 -127 OFFCURVE",
"-111 -103 CURVE",
"-129 -135 OFFCURVE",
"-145 -164 OFFCURVE",
"-156 -202 CURVE",
"-136 -232 OFFCURVE",
"-59 -252 OFFCURVE",
"-12 -250 CURVE",
"82 -228 OFFCURVE",
"141 -161 OFFCURVE",
"157 -1 CURVE SMOOTH",
"198 403 LINE",
"222 601 OFFCURVE",
"234 642 OFFCURVE",
"254 672 CURVE",
"268 670 OFFCURVE",
"319 623 OFFCURVE",
"356 593 CURVE",
"374 624 OFFCURVE",
"390 661 OFFCURVE",
"400 695 CURVE",
"368 725 OFFCURVE",
"312 741 OFFCURVE",
"251 740 CURVE"
);
}
);
width = 282;
},
{
layerId = "11343128-4963-4E5D-BE9C-B74F53B36FA5";
name = Bold;
width = 600;
}
);
leftKerningGroup = f;
rightKerningGroup = f;
unicode = 0066;
},
{
glyphname = f.001;
lastChange = "2015-12-01 10:14:33 +0000";
layers = (
{
anchors = (
{
name = bottom;
position = "{116, 0}";
},
{
name = top;
position = "{166, 480}";
}
);
background = {
paths = (
{
closed = 1;
nodes = (
"109 -217 OFFCURVE",
"137 -133 OFFCURVE",
"153 13 CURVE SMOOTH",
"161 87 OFFCURVE",
"189 343 OFFCURVE",
"193 390 CURVE",
"224 594 OFFCURVE",
"247 638 OFFCURVE",
"278 679 CURVE",
"290 679 OFFCURVE",
"318 671 OFFCURVE",
"342 657 CURVE",
"359 701 LINE",
"335 721 OFFCURVE",
"297 737 OFFCURVE",
"263 743 CURVE",
"156 717 OFFCURVE",
"107 654 OFFCURVE",
"93 494 CURVE SMOOTH",
"57 90 LINE",
"31 -114 OFFCURVE",
"11 -165 OFFCURVE",
"-4 -185 CURVE",
"-18 -183 OFFCURVE",
"-69 -136 OFFCURVE",
"-106 -106 CURVE",
"-128 -136 OFFCURVE",
"-142 -173 OFFCURVE",
"-150 -202 CURVE",
"-118 -232 OFFCURVE",
"-61 -248 OFFCURVE",
"0 -247 CURVE"
);
}
);
};
layerId = "71FD7A9F-05F5-4D76-8D4F-547475A05E4C";
name = "Bold Italic";
paths = (
{
closed = 1;
nodes = (
"172 400 LINE",
"220 399 OFFCURVE",
"273 398 OFFCURVE",
"295 398 CURVE SMOOTH",
"306 398 OFFCURVE",
"307 414 OFFCURVE",
"315 478 CURVE",
"266 475 OFFCURVE",
"223 474 OFFCURVE",
"206 473 CURVE",
"109 572 LINE",
"91 491 LINE",
"88 470 OFFCURVE",
"79 468 OFFCURVE",
"49 466 CURVE SMOOTH",
"34 465 LINE",
"27 401 LINE",
"31 401 OFFCURVE",
"75 401 OFFCURVE",
"90 401 CURVE"
);
},
{
closed = 1;
nodes = (
"142 710 OFFCURVE",
"106 626 OFFCURVE",
"90 480 CURVE SMOOTH",
"82 406 OFFCURVE",
"66 261 OFFCURVE",
"51 103 CURVE",
"32 -65 OFFCURVE",
"20 -142 OFFCURVE",
"-11 -183 CURVE",
"-39 -169 OFFCURVE",
"-85 -127 OFFCURVE",
"-111 -103 CURVE",
"-129 -135 OFFCURVE",
"-145 -164 OFFCURVE",
"-156 -202 CURVE",
"-136 -232 OFFCURVE",
"-59 -252 OFFCURVE",
"-12 -250 CURVE",
"82 -228 OFFCURVE",
"141 -161 OFFCURVE",
"157 -1 CURVE SMOOTH",
"198 403 LINE",
"222 601 OFFCURVE",
"234 642 OFFCURVE",
"254 672 CURVE",
"268 670 OFFCURVE",
"319 623 OFFCURVE",
"356 593 CURVE",
"374 624 OFFCURVE",
"390 661 OFFCURVE",
"400 695 CURVE",
"368 725 OFFCURVE",
"312 741 OFFCURVE",
"251 740 CURVE"
);
}
);
width = 282;
},
{
layerId = "11343128-4963-4E5D-BE9C-B74F53B36FA5";
name = Bold;
width = 600;
}
);
leftKerningGroup = f;
rightKerningGroup = f;
},
{
glyphname = g;
lastChange = "2015-12-01 10:14:05 +0000";
layers = (
{
anchors = (
{
name = bottom;
position = "{209, 0}";
},
{
name = top;
position = "{259, 480}";
}
);
background = {
paths = (
{
closed = 1;
nodes = (
"265 77 OFFCURVE",
"299 147 OFFCURVE",
"307 153 CURVE",
"307 153 OFFCURVE",
"351 282 OFFCURVE",
"332 289 CURVE",
"316 254 OFFCURVE",
"252 157 OFFCURVE",
"200 110 CURVE",
"193 110 OFFCURVE",
"180 121 OFFCURVE",
"170 144 CURVE SMOOTH",
"131 239 OFFCURVE",
"147 371 OFFCURVE",
"217 414 CURVE",
"267 414 OFFCURVE",
"328 349 OFFCURVE",
"339 316 CURVE",
"339 316 OFFCURVE",
"386 357 OFFCURVE",
"386 413 CURVE",
"344 462 OFFCURVE",
"269 483 OFFCURVE",
"201 483 CURVE",
"27 433 OFFCURVE",
"-28 171 OFFCURVE",
"73 41 CURVE SMOOTH",
"104 1 OFFCURVE",
"137 -3 OFFCURVE",
"175 -3 CURVE"
);
},
{
closed = 1;
nodes = (
"429 5 OFFCURVE",
"455 17 OFFCURVE",
"471 28 CURVE",
"467 74 LINE",
"454 69 OFFCURVE",
"428 62 OFFCURVE",
"413 62 CURVE",
"385 91 OFFCURVE",
"429 322 OFFCURVE",
"437 352 CURVE SMOOTH",
"445 383 OFFCURVE",
"454 424 OFFCURVE",
"465 456 CURVE",
"453 467 OFFCURVE",
"432 475 OFFCURVE",
"419 479 CURVE SMOOTH",
"401 484 OFFCURVE",
"334 399 OFFCURVE",
"329 371 CURVE",
"324 364 OFFCURVE",
"322 362 OFFCURVE",
"321 347 CURVE SMOOTH",
"314 243 OFFCURVE",
"273 68 OFFCURVE",
"289 42 CURVE SMOOTH",
"299 26 OFFCURVE",
"350 -2 OFFCURVE",
"400 -1 CURVE"
);
},
{
closed = 1;
nodes = (
"380 710 OFFCURVE",
"344 626 OFFCURVE",
"328 480 CURVE SMOOTH",
"320 406 OFFCURVE",
"304 261 OFFCURVE",
"289 103 CURVE",
"270 -65 OFFCURVE",
"258 -142 OFFCURVE",
"227 -183 CURVE",
"199 -169 OFFCURVE",
"153 -127 OFFCURVE",
"127 -103 CURVE",
"109 -135 OFFCURVE",
"93 -164 OFFCURVE",
"82 -202 CURVE",
"102 -232 OFFCURVE",
"179 -252 OFFCURVE",
"226 -250 CURVE",
"320 -228 OFFCURVE",
"374 -161 OFFCURVE",
"390 -1 CURVE SMOOTH",
"431 403 LINE",
"455 601 OFFCURVE",
"472 642 OFFCURVE",
"492 672 CURVE",
"506 670 OFFCURVE",
"557 623 OFFCURVE",
"594 593 CURVE",
"612 624 OFFCURVE",
"628 661 OFFCURVE",
"638 695 CURVE",
"606 725 OFFCURVE",
"550 741 OFFCURVE",
"489 740 CURVE"
);
}
);
};
layerId = "71FD7A9F-05F5-4D76-8D4F-547475A05E4C";
name = "Bold Italic";
paths = (
{
closed = 1;
nodes = (
"366 433 LINE",
"323 468 OFFCURVE",
"260 483 OFFCURVE",
"202 483 CURVE",
"28 433 OFFCURVE",
"-31 170 OFFCURVE",
"70 40 CURVE SMOOTH",
"82 24 OFFCURVE",
"105 13 OFFCURVE",
"118 13 CURVE",
"102 -1 OFFCURVE",
"66 -34 OFFCURVE",
"42 -54 CURVE SMOOTH",
"21 -71 OFFCURVE",
"-20 -95 OFFCURVE",
"-41 -108 CURVE",
"-39 -156 LINE",
"-31 -166 OFFCURVE",
"-21 -175 OFFCURVE",
"-15 -180 CURVE SMOOTH",
"9 -200 OFFCURVE",
"87 -253 OFFCURVE",
"230 -253 CURVE",
"339 -222 OFFCURVE",
"390 -137 OFFCURVE",
"397 70 CURVE SMOOTH",
"399 134 OFFCURVE",
"411 240 OFFCURVE",
"436 352 CURVE SMOOTH",
"443 383 OFFCURVE",
"451 424 OFFCURVE",
"461 456 CURVE",
"416 479 LINE"
);
},
{
closed = 1;
nodes = (
"128 238 OFFCURVE",
"148 371 OFFCURVE",
"218 414 CURVE",
"254 414 OFFCURVE",
"296 380 OFFCURVE",
"320 349 CURVE",
"320 347 LINE",
"319 324 OFFCURVE",
"314 282 OFFCURVE",
"310 238 CURVE",
"292 210 OFFCURVE",
"220 122 OFFCURVE",
"202 106 CURVE",
"193 106 OFFCURVE",
"177 120 OFFCURVE",
"167 143 CURVE SMOOTH"
);
},
{
closed = 1;
nodes = (
"121 -58 OFFCURVE",
"187 -10 OFFCURVE",
"292 116 CURVE",
"275 -112 OFFCURVE",
"247 -163 OFFCURVE",
"231 -186 CURVE",
"205 -177 OFFCURVE",
"118 -137 OFFCURVE",
"85 -102 CURVE"
);
}
);
width = 469;
},
{
layerId = "11343128-4963-4E5D-BE9C-B74F53B36FA5";
name = Bold;
width = 600;
}
);
leftKerningGroup = o;
rightKerningGroup = g;
unicode = 0067;
},
{
glyphname = g.001;
lastChange = "2015-12-01 10:14:33 +0000";
layers = (
{
anchors = (
{
name = bottom;
position = "{209, 0}";
},
{
name = top;
position = "{259, 480}";
}
);
background = {
paths = (
{
closed = 1;
nodes = (
"265 77 OFFCURVE",
"299 147 OFFCURVE",
"307 153 CURVE",
"307 153 OFFCURVE",
"351 282 OFFCURVE",
"332 289 CURVE",
"316 254 OFFCURVE",
"252 157 OFFCURVE",
"200 110 CURVE",
"193 110 OFFCURVE",
"180 121 OFFCURVE",
"170 144 CURVE SMOOTH",
"131 239 OFFCURVE",
"147 371 OFFCURVE",
"217 414 CURVE",
"267 414 OFFCURVE",
"328 349 OFFCURVE",
"339 316 CURVE",
"339 316 OFFCURVE",
"386 357 OFFCURVE",
"386 413 CURVE",
"344 462 OFFCURVE",
"269 483 OFFCURVE",
"201 483 CURVE",
"27 433 OFFCURVE",
"-28 171 OFFCURVE",
"73 41 CURVE SMOOTH",
"104 1 OFFCURVE",
"137 -3 OFFCURVE",
"175 -3 CURVE"
);
},
{
closed = 1;
nodes = (
"429 5 OFFCURVE",
"455 17 OFFCURVE",
"471 28 CURVE",
"467 74 LINE",
"454 69 OFFCURVE",
"428 62 OFFCURVE",
"413 62 CURVE",
"385 91 OFFCURVE",
"429 322 OFFCURVE",
"437 352 CURVE SMOOTH",
"445 383 OFFCURVE",
"454 424 OFFCURVE",
"465 456 CURVE",
"453 467 OFFCURVE",
"432 475 OFFCURVE",
"419 479 CURVE SMOOTH",
"401 484 OFFCURVE",
"334 399 OFFCURVE",
"329 371 CURVE",
"324 364 OFFCURVE",
"322 362 OFFCURVE",
"321 347 CURVE SMOOTH",
"314 243 OFFCURVE",
"273 68 OFFCURVE",
"289 42 CURVE SMOOTH",
"299 26 OFFCURVE",
"350 -2 OFFCURVE",
"400 -1 CURVE"
);
},
{
closed = 1;
nodes = (
"380 710 OFFCURVE",
"344 626 OFFCURVE",
"328 480 CURVE SMOOTH",
"320 406 OFFCURVE",
"304 261 OFFCURVE",
"289 103 CURVE",
"270 -65 OFFCURVE",
"258 -142 OFFCURVE",
"227 -183 CURVE",
"199 -169 OFFCURVE",
"153 -127 OFFCURVE",
"127 -103 CURVE",
"109 -135 OFFCURVE",
"93 -164 OFFCURVE",
"82 -202 CURVE",
"102 -232 OFFCURVE",
"179 -252 OFFCURVE",
"226 -250 CURVE",
"320 -228 OFFCURVE",
"374 -161 OFFCURVE",
"390 -1 CURVE SMOOTH",
"431 403 LINE",
"455 601 OFFCURVE",
"472 642 OFFCURVE",
"492 672 CURVE",
"506 670 OFFCURVE",
"557 623 OFFCURVE",
"594 593 CURVE",
"612 624 OFFCURVE",
"628 661 OFFCURVE",
"638 695 CURVE",
"606 725 OFFCURVE",
"550 741 OFFCURVE",
"489 740 CURVE"
);
}
);
};
layerId = "71FD7A9F-05F5-4D76-8D4F-547475A05E4C";
name = "Bold Italic";
paths = (
{
closed = 1;
nodes = (
"366 433 LINE",
"323 468 OFFCURVE",
"260 483 OFFCURVE",
"202 483 CURVE",
"28 433 OFFCURVE",
"-31 170 OFFCURVE",
"70 40 CURVE SMOOTH",
"82 24 OFFCURVE",
"105 13 OFFCURVE",
"118 13 CURVE",
"102 -1 OFFCURVE",
"66 -34 OFFCURVE",
"42 -54 CURVE SMOOTH",
"21 -71 OFFCURVE",
"-20 -95 OFFCURVE",
"-41 -108 CURVE",
"-39 -156 LINE",
"-31 -166 OFFCURVE",
"-21 -175 OFFCURVE",
"-15 -180 CURVE SMOOTH",
"9 -200 OFFCURVE",
"87 -253 OFFCURVE",
"230 -253 CURVE",
"339 -222 OFFCURVE",
"390 -137 OFFCURVE",
"397 70 CURVE SMOOTH",
"399 134 OFFCURVE",
"411 240 OFFCURVE",
"436 352 CURVE SMOOTH",
"443 383 OFFCURVE",
"451 424 OFFCURVE",
"461 456 CURVE",
"416 479 LINE"
);
},
{
closed = 1;
nodes = (
"128 238 OFFCURVE",
"148 371 OFFCURVE",
"218 414 CURVE",
"254 414 OFFCURVE",
"296 380 OFFCURVE",
"320 349 CURVE",
"320 347 LINE",
"319 324 OFFCURVE",
"314 282 OFFCURVE",
"310 238 CURVE",
"292 210 OFFCURVE",
"220 122 OFFCURVE",
"202 106 CURVE",
"193 106 OFFCURVE",
"177 120 OFFCURVE",
"167 143 CURVE SMOOTH"
);
},
{
closed = 1;
nodes = (
"121 -58 OFFCURVE",
"187 -10 OFFCURVE",
"292 116 CURVE",
"275 -112 OFFCURVE",
"247 -163 OFFCURVE",
"231 -186 CURVE",
"205 -177 OFFCURVE",
"118 -137 OFFCURVE",
"85 -102 CURVE"
);
}
);
width = 469;
},
{
layerId = "11343128-4963-4E5D-BE9C-B74F53B36FA5";
name = Bold;
width = 600;
}
);
leftKerningGroup = o;
rightKerningGroup = g;
},
{
glyphname = h;
lastChange = "2015-12-01 10:14:16 +0000";
layers = (
{
anchors = (
{
name = bottom;
position = "{230, 0}";
},
{
name = center;
position = "{255, 240}";
},
{
name = top;
position = "{134, 666}";
}
);
background = {
paths = (
{
closed = 1;
nodes = (
"206 -2 OFFCURVE",
"233 37 OFFCURVE",
"249 85 CURVE",
"252 97 OFFCURVE",
"238 99 OFFCURVE",
"222 105 CURVE SMOOTH",
"216 107 OFFCURVE",
"213 104 OFFCURVE",
"210 97 CURVE SMOOTH",
"200 74 OFFCURVE",
"192 64 OFFCURVE",
"184 64 CURVE SMOOTH",
"176 64 OFFCURVE",
"161 81 OFFCURVE",
"160 127 CURVE SMOOTH",
"159 183 OFFCURVE",
"175 300 OFFCURVE",
"192 432 CURVE SMOOTH",
"203 521 OFFCURVE",
"235 675 OFFCURVE",
"222 698 CURVE SMOOTH",
"213 711 OFFCURVE",
"69 746 OFFCURVE",
"57 739 CURVE",
"57 739 OFFCURVE",
"34 702 OFFCURVE",
"52 695 CURVE SMOOTH",
"79 685 OFFCURVE",
"90 637 OFFCURVE",
"88 559 CURVE SMOOTH",
"86 493 OFFCURVE",
"80 442 OFFCURVE",
"65 326 CURVE SMOOTH",
"53 234 OFFCURVE",
"21 54 OFFCURVE",
"45 36 CURVE SMOOTH",
"53 30 OFFCURVE",
"110 -7 OFFCURVE",
"167 -4 CURVE SMOOTH"
);
}
);
};
layerId = "71FD7A9F-05F5-4D76-8D4F-547475A05E4C";
name = "Bold Italic";
paths = (
{
closed = 1;
nodes = (
"361 483 LINE",
"281 437 OFFCURVE",
"206 307 OFFCURVE",
"185 276 CURVE",
"208 457 OFFCURVE",
"251 689 OFFCURVE",
"230 708 CURVE SMOOTH",
"218 719 OFFCURVE",
"88 747 OFFCURVE",
"68 740 CURVE",
"58 698 LINE",
"100 668 LINE",
"103 619 OFFCURVE",
"96 479 OFFCURVE",
"81 353 CURVE SMOOTH",
"65 217 OFFCURVE",
"40 43 OFFCURVE",
"38 32 CURVE",
"38 20 OFFCURVE",
"115 -5 OFFCURVE",
"163 -5 CURVE SMOOTH",
"178 -5 OFFCURVE",
"180 41 OFFCURVE",
"173 132 CURVE",
"215 236 OFFCURVE",
"299 334 OFFCURVE",
"327 360 CURVE",
"299 255 OFFCURVE",
"279 75 OFFCURVE",
"298 44 CURVE SMOOTH",
"308 28 OFFCURVE",
"360 -2 OFFCURVE",
"414 -2 CURVE",
"446 7 OFFCURVE",
"465 17 OFFCURVE",
"477 25 CURVE",
"473 70 LINE",
"459 65 OFFCURVE",
"438 59 OFFCURVE",
"423 59 CURVE",
"403 124 OFFCURVE",
"444 371 OFFCURVE",
"464 444 CURVE"
);
}
);
width = 505;
},
{
layerId = "11343128-4963-4E5D-BE9C-B74F53B36FA5";
name = Bold;
width = 600;
}
);
leftKerningGroup = l;
leftMetricsKey = l;
rightKerningGroup = i;
rightMetricsKey = i;
unicode = 0068;
},
{
glyphname = h.001;
lastChange = "2015-12-01 10:14:33 +0000";
layers = (
{
anchors = (
{
name = bottom;
position = "{230, 0}";
},
{
name = center;
position = "{255, 240}";
},
{
name = top;
position = "{134, 666}";
}
);
background = {
paths = (
{
closed = 1;
nodes = (
"206 -2 OFFCURVE",
"233 37 OFFCURVE",
"249 85 CURVE",
"252 97 OFFCURVE",
"238 99 OFFCURVE",
"222 105 CURVE SMOOTH",
"216 107 OFFCURVE",
"213 104 OFFCURVE",
"210 97 CURVE SMOOTH",
"200 74 OFFCURVE",
"192 64 OFFCURVE",
"184 64 CURVE SMOOTH",
"176 64 OFFCURVE",
"161 81 OFFCURVE",
"160 127 CURVE SMOOTH",
"159 183 OFFCURVE",
"175 300 OFFCURVE",
"192 432 CURVE SMOOTH",
"203 521 OFFCURVE",
"235 675 OFFCURVE",
"222 698 CURVE SMOOTH",
"213 711 OFFCURVE",
"69 746 OFFCURVE",
"57 739 CURVE",
"57 739 OFFCURVE",
"34 702 OFFCURVE",
"52 695 CURVE SMOOTH",
"79 685 OFFCURVE",
"90 637 OFFCURVE",
"88 559 CURVE SMOOTH",
"86 493 OFFCURVE",
"80 442 OFFCURVE",
"65 326 CURVE SMOOTH",
"53 234 OFFCURVE",
"21 54 OFFCURVE",
"45 36 CURVE SMOOTH",
"53 30 OFFCURVE",
"110 -7 OFFCURVE",
"167 -4 CURVE SMOOTH"
);
}
);
};
layerId = "71FD7A9F-05F5-4D76-8D4F-547475A05E4C";
name = "Bold Italic";
paths = (
{
closed = 1;
nodes = (
"361 483 LINE",
"281 437 OFFCURVE",
"206 307 OFFCURVE",
"185 276 CURVE",
"208 457 OFFCURVE",
"251 689 OFFCURVE",
"230 708 CURVE SMOOTH",
"218 719 OFFCURVE",
"88 747 OFFCURVE",
"68 740 CURVE",
"58 698 LINE",
"100 668 LINE",
"103 619 OFFCURVE",
"96 479 OFFCURVE",
"81 353 CURVE SMOOTH",
"65 217 OFFCURVE",
"40 43 OFFCURVE",
"38 32 CURVE",
"38 20 OFFCURVE",
"115 -5 OFFCURVE",
"163 -5 CURVE SMOOTH",
"178 -5 OFFCURVE",
"180 41 OFFCURVE",
"173 132 CURVE",
"215 236 OFFCURVE",
"299 334 OFFCURVE",
"327 360 CURVE",
"299 255 OFFCURVE",
"279 75 OFFCURVE",
"298 44 CURVE SMOOTH",
"308 28 OFFCURVE",
"360 -2 OFFCURVE",
"414 -2 CURVE",
"446 7 OFFCURVE",
"465 17 OFFCURVE",
"477 25 CURVE",
"473 70 LINE",
"459 65 OFFCURVE",
"438 59 OFFCURVE",
"423 59 CURVE",
"403 124 OFFCURVE",
"444 371 OFFCURVE",
"464 444 CURVE"
);
}
);
width = 505;
},
{
layerId = "11343128-4963-4E5D-BE9C-B74F53B36FA5";
name = Bold;
width = 600;
}
);
leftKerningGroup = l;
leftMetricsKey = l;
rightKerningGroup = i;
rightMetricsKey = i;
},
{
glyphname = i;
lastChange = "2015-12-01 10:14:16 +0000";
layers = (
{
anchors = (
{
name = bottom;
position = "{104, 0}";
}
);
background = {
paths = (
{
closed = 1;
nodes = (
"199 461 OFFCURVE",
"133 479 OFFCURVE",
"85 479 CURVE",
"64 471 OFFCURVE",
"78 317 OFFCURVE",
"80 309 CURVE",
"70 270 OFFCURVE",
"49 159 OFFCURVE",
"46 112 CURVE SMOOTH",
"40 27 OFFCURVE",
"84 0 OFFCURVE",
"156 0 CURVE",
"195 8 OFFCURVE",
"216 21 OFFCURVE",
"228 30 CURVE",
"224 83 LINE",
"210 76 OFFCURVE",
"184 68 OFFCURVE",
"168 68 CURVE",
"153 122 OFFCURVE",
"196 379 OFFCURVE",
"213 444 CURVE"
);
}
);
};
components = (
{
name = idotless;
},
{
name = dotaccentcomb;
transform = "{1, 0, 0, 1, -165, 0}";
}
);
guideLines = (
{
angle = -20;
position = "{81, 30}";
}
);
layerId = "71FD7A9F-05F5-4D76-8D4F-547475A05E4C";
name = "Bold Italic";
width = 253;
},
{
layerId = "11343128-4963-4E5D-BE9C-B74F53B36FA5";
name = Bold;
width = 600;
}
);
leftKerningGroup = i;
rightKerningGroup = i;
unicode = 0069;
},
{
glyphname = i.001;
lastChange = "2015-12-01 10:14:33 +0000";
layers = (
{
anchors = (
{
name = bottom;
position = "{104, 0}";
}
);
background = {
paths = (
{
closed = 1;
nodes = (
"199 461 OFFCURVE",
"133 479 OFFCURVE",
"85 479 CURVE",
"64 471 OFFCURVE",
"78 317 OFFCURVE",
"80 309 CURVE",
"70 270 OFFCURVE",
"49 159 OFFCURVE",
"46 112 CURVE SMOOTH",
"40 27 OFFCURVE",
"84 0 OFFCURVE",
"156 0 CURVE",
"195 8 OFFCURVE",
"216 21 OFFCURVE",
"228 30 CURVE",
"224 83 LINE",
"210 76 OFFCURVE",
"184 68 OFFCURVE",
"168 68 CURVE",
"153 122 OFFCURVE",
"196 379 OFFCURVE",
"213 444 CURVE"
);
}
);
};
components = (
{
name = idotless;
},
{
name = dotaccentcomb;
transform = "{1, 0, 0, 1, -165, 0}";
}
);
guideLines = (
{
angle = -20;
position = "{81, 30}";
}
);
layerId = "71FD7A9F-05F5-4D76-8D4F-547475A05E4C";
name = "Bold Italic";
width = 253;
},
{
layerId = "11343128-4963-4E5D-BE9C-B74F53B36FA5";
name = Bold;
width = 600;
}
);
leftKerningGroup = i;
rightKerningGroup = i;
},
{
glyphname = idotless;
lastChange = "2015-12-01 10:14:16 +0000";
layers = (
{
anchors = (
{
name = bottom;
position = "{105, 0}";
},
{
name = ogonek;
position = "{208, 10}";
},
{
name = top;
position = "{149, 480}";
}
);
layerId = "71FD7A9F-05F5-4D76-8D4F-547475A05E4C";
name = "Bold Italic";
paths = (
{
closed = 1;
nodes = (
"42 437 LINE",
"84 410 LINE",
"70 315 OFFCURVE",
"24 47 OFFCURVE",
"51 27 CURVE SMOOTH",
"73 11 OFFCURVE",
"110 -5 OFFCURVE",
"160 -4 CURVE",
"178 -1 OFFCURVE",
"210 14 OFFCURVE",
"226 26 CURVE",
"222 72 LINE",
"206 67 OFFCURVE",
"184 60 OFFCURVE",
"169 60 CURVE",
"150 122 OFFCURVE",
"209 437 OFFCURVE",
"211 454 CURVE",
"193 467 OFFCURVE",
"75 485 OFFCURVE",
"55 480 CURVE"
);
}
);
width = 253;
},
{
layerId = "11343128-4963-4E5D-BE9C-B74F53B36FA5";
name = Bold;
width = 600;
}
);
unicode = 0131;
},
{
glyphname = j;
lastChange = "2015-12-01 10:14:16 +0000";
layers = (
{
background = {
paths = (
{
closed = 1;
nodes = (
"65 481 OFFCURVE",
"177 463 OFFCURVE",
"195 450 CURVE",
"193 433 OFFCURVE",
"135 122 OFFCURVE",
"154 60 CURVE",
"169 60 OFFCURVE",
"192 67 OFFCURVE",
"208 72 CURVE",
"212 26 LINE",
"196 14 OFFCURVE",
"163 -1 OFFCURVE",
"145 -4 CURVE",
"99 -5 OFFCURVE",
"64 11 OFFCURVE",
"42 27 CURVE SMOOTH",
"15 47 OFFCURVE",
"56 311 OFFCURVE",
"74 406 CURVE",
"32 433 LINE",
"45 476 LINE"
);
}
);
};
components = (
{
name = jdotless;
},
{
name = dotaccentcomb;
transform = "{1, 0, 0, 1, -178, 0}";
}
);
guideLines = (
{
alignment = center;
angle = -12;
position = "{223, 497}";
},
{
angle = -103;
position = "{12, 345}";
}
);
layerId = "71FD7A9F-05F5-4D76-8D4F-547475A05E4C";
name = "Bold Italic";
width = 237;
},
{
layerId = "11343128-4963-4E5D-BE9C-B74F53B36FA5";
name = Bold;
width = 600;
}
);
leftKerningGroup = j;
rightKerningGroup = g;
rightMetricsKey = "=g+25";
unicode = 006A;
},
{
glyphname = j.001;
lastChange = "2015-12-01 10:14:33 +0000";
layers = (
{
background = {
paths = (
{
closed = 1;
nodes = (
"65 481 OFFCURVE",
"177 463 OFFCURVE",
"195 450 CURVE",
"193 433 OFFCURVE",
"135 122 OFFCURVE",
"154 60 CURVE",
"169 60 OFFCURVE",
"192 67 OFFCURVE",
"208 72 CURVE",
"212 26 LINE",
"196 14 OFFCURVE",
"163 -1 OFFCURVE",
"145 -4 CURVE",
"99 -5 OFFCURVE",
"64 11 OFFCURVE",
"42 27 CURVE SMOOTH",
"15 47 OFFCURVE",
"56 311 OFFCURVE",
"74 406 CURVE",
"32 433 LINE",
"45 476 LINE"
);
}
);
};
components = (
{
name = jdotless;
},
{
name = dotaccentcomb;
transform = "{1, 0, 0, 1, -178, 0}";
}
);
guideLines = (
{
alignment = center;
angle = -12;
position = "{223, 497}";
},
{
angle = -103;
position = "{12, 345}";
}
);
layerId = "71FD7A9F-05F5-4D76-8D4F-547475A05E4C";
name = "Bold Italic";
width = 237;
},
{
layerId = "11343128-4963-4E5D-BE9C-B74F53B36FA5";
name = Bold;
width = 600;
}
);
leftKerningGroup = j;
rightKerningGroup = g;
rightMetricsKey = "=g+25";
},
{
glyphname = jdotless;
lastChange = "2015-12-01 10:14:16 +0000";
layers = (
{
anchors = (
{
name = bottom;
position = "{94, 0}";
},
{
name = top;
position = "{136, 480}";
}
);
layerId = "71FD7A9F-05F5-4D76-8D4F-547475A05E4C";
name = "Bold Italic";
paths = (
{
closed = 1;
nodes = (
"163 472 OFFCURVE",
"75 483 OFFCURVE",
"44 480 CURVE",
"34 437 LINE",
"74 412 LINE",
"77 400 OFFCURVE",
"73 359 OFFCURVE",
"72 336 CURVE SMOOTH",
"70 300 OFFCURVE",
"62 191 OFFCURVE",
"58 144 CURVE",
"29 -75 OFFCURVE",
"17 -122 OFFCURVE",
"-3 -150 CURVE",
"-15 -150 OFFCURVE",
"-29 -144 OFFCURVE",
"-53 -130 CURVE",
"-74 -183 LINE",
"-50 -203 OFFCURVE",
"-22 -217 OFFCURVE",
"-3 -223 CURVE",
"109 -197 OFFCURVE",
"139 -143 OFFCURVE",
"163 83 CURVE",
"176 217 OFFCURVE",
"205 431 OFFCURVE",
"203 455 CURVE"
);
}
);
width = 237;
},
{
layerId = "11343128-4963-4E5D-BE9C-B74F53B36FA5";
name = Bold;
width = 600;
}
);
unicode = 0237;
},
{
glyphname = k;
lastChange = "2015-12-01 10:14:16 +0000";
layers = (
{
anchors = (
{
name = bottom;
position = "{221, 0}";
},
{
name = top;
position = "{271, 480}";
}
);
background = {
paths = (
{
closed = 1;
nodes = (
"361 483 LINE",
"281 437 OFFCURVE",
"206 307 OFFCURVE",
"185 276 CURVE",
"208 457 OFFCURVE",
"251 689 OFFCURVE",
"230 708 CURVE SMOOTH",
"218 719 OFFCURVE",
"88 747 OFFCURVE",
"68 740 CURVE",
"58 698 LINE",
"100 668 LINE",
"103 619 OFFCURVE",
"96 479 OFFCURVE",
"81 353 CURVE SMOOTH",
"65 217 OFFCURVE",
"40 43 OFFCURVE",
"38 32 CURVE",
"38 20 OFFCURVE",
"115 -5 OFFCURVE",
"163 -5 CURVE SMOOTH",
"178 -5 OFFCURVE",
"180 41 OFFCURVE",
"173 132 CURVE",
"215 236 OFFCURVE",
"299 334 OFFCURVE",
"327 360 CURVE",
"299 255 OFFCURVE",
"279 75 OFFCURVE",
"298 44 CURVE SMOOTH",
"308 28 OFFCURVE",
"360 -2 OFFCURVE",
"414 -2 CURVE",
"446 7 OFFCURVE",
"465 17 OFFCURVE",
"477 25 CURVE",
"473 70 LINE",
"459 65 OFFCURVE",
"438 59 OFFCURVE",
"423 59 CURVE",
"403 124 OFFCURVE",
"444 371 OFFCURVE",
"464 444 CURVE"
);
}
);
};
layerId = "71FD7A9F-05F5-4D76-8D4F-547475A05E4C";
name = "Bold Italic";
paths = (
{
closed = 1;
nodes = (
"455 70 LINE",
"441 65 OFFCURVE",
"425 61 OFFCURVE",
"410 59 CURVE",
"393 74 OFFCURVE",
"370 134 OFFCURVE",
"368 189 CURVE",
"458 229 OFFCURVE",
"449 437 OFFCURVE",
"433 459 CURVE",
"342 485 LINE",
"289 434 OFFCURVE",
"212 338 OFFCURVE",
"186 284 CURVE",
"209 465 OFFCURVE",
"249 691 OFFCURVE",
"231 707 CURVE SMOOTH",
"216 720 OFFCURVE",
"88 747 OFFCURVE",
"68 740 CURVE",
"58 697 LINE",
"100 668 LINE",
"103 618 OFFCURVE",
"96 491 OFFCURVE",
"81 353 CURVE SMOOTH",
"66 217 OFFCURVE",
"40 44 OFFCURVE",
"38 33 CURVE",
"38 21 OFFCURVE",
"117 -2 OFFCURVE",
"160 -2 CURVE SMOOTH",
"175 -2 OFFCURVE",
"180 69 OFFCURVE",
"174 158 CURVE",
"231 275 OFFCURVE",
"295 338 OFFCURVE",
"313 360 CURVE",
"320 348 OFFCURVE",
"314 221 OFFCURVE",
"282 196 CURVE",
"251 201 LINE",
"250 153 OFFCURVE",
"275 38 OFFCURVE",
"288 27 CURVE",
"308 15 OFFCURVE",
"343 -5 OFFCURVE",
"392 -5 CURVE",
"427 3 OFFCURVE",
"443 14 OFFCURVE",
"459 24 CURVE"
);
}
);
width = 487;
},
{
layerId = "11343128-4963-4E5D-BE9C-B74F53B36FA5";
name = Bold;
width = 600;
}
);
leftKerningGroup = l;
leftMetricsKey = l;
rightKerningGroup = i;
rightMetricsKey = i;
unicode = 006B;
},
{
glyphname = k.001;
lastChange = "2015-12-01 10:14:33 +0000";
layers = (
{
anchors = (
{
name = bottom;
position = "{221, 0}";
},
{
name = top;
position = "{271, 480}";
}
);
background = {
paths = (
{
closed = 1;
nodes = (
"361 483 LINE",
"281 437 OFFCURVE",
"206 307 OFFCURVE",
"185 276 CURVE",
"208 457 OFFCURVE",
"251 689 OFFCURVE",
"230 708 CURVE SMOOTH",
"218 719 OFFCURVE",
"88 747 OFFCURVE",
"68 740 CURVE",
"58 698 LINE",
"100 668 LINE",
"103 619 OFFCURVE",
"96 479 OFFCURVE",
"81 353 CURVE SMOOTH",
"65 217 OFFCURVE",
"40 43 OFFCURVE",
"38 32 CURVE",
"38 20 OFFCURVE",
"115 -5 OFFCURVE",
"163 -5 CURVE SMOOTH",
"178 -5 OFFCURVE",
"180 41 OFFCURVE",
"173 132 CURVE",
"215 236 OFFCURVE",
"299 334 OFFCURVE",
"327 360 CURVE",
"299 255 OFFCURVE",
"279 75 OFFCURVE",
"298 44 CURVE SMOOTH",
"308 28 OFFCURVE",
"360 -2 OFFCURVE",
"414 -2 CURVE",
"446 7 OFFCURVE",
"465 17 OFFCURVE",
"477 25 CURVE",
"473 70 LINE",
"459 65 OFFCURVE",
"438 59 OFFCURVE",
"423 59 CURVE",
"403 124 OFFCURVE",
"444 371 OFFCURVE",
"464 444 CURVE"
);
}
);
};
layerId = "71FD7A9F-05F5-4D76-8D4F-547475A05E4C";
name = "Bold Italic";
paths = (
{
closed = 1;
nodes = (
"455 70 LINE",
"441 65 OFFCURVE",
"425 61 OFFCURVE",
"410 59 CURVE",
"393 74 OFFCURVE",
"370 134 OFFCURVE",
"368 189 CURVE",
"458 229 OFFCURVE",
"449 437 OFFCURVE",
"433 459 CURVE",
"342 485 LINE",
"289 434 OFFCURVE",
"212 338 OFFCURVE",
"186 284 CURVE",
"209 465 OFFCURVE",
"249 691 OFFCURVE",
"231 707 CURVE SMOOTH",
"216 720 OFFCURVE",
"88 747 OFFCURVE",
"68 740 CURVE",
"58 697 LINE",
"100 668 LINE",
"103 618 OFFCURVE",
"96 491 OFFCURVE",
"81 353 CURVE SMOOTH",
"66 217 OFFCURVE",
"40 44 OFFCURVE",
"38 33 CURVE",
"38 21 OFFCURVE",
"117 -2 OFFCURVE",
"160 -2 CURVE SMOOTH",
"175 -2 OFFCURVE",
"180 69 OFFCURVE",
"174 158 CURVE",
"231 275 OFFCURVE",
"295 338 OFFCURVE",
"313 360 CURVE",
"320 348 OFFCURVE",
"314 221 OFFCURVE",
"282 196 CURVE",
"251 201 LINE",
"250 153 OFFCURVE",
"275 38 OFFCURVE",
"288 27 CURVE",
"308 15 OFFCURVE",
"343 -5 OFFCURVE",
"392 -5 CURVE",
"427 3 OFFCURVE",
"443 14 OFFCURVE",
"459 24 CURVE"
);
}
);
width = 487;
},
{
layerId = "11343128-4963-4E5D-BE9C-B74F53B36FA5";
name = Bold;
width = 600;
}
);
leftKerningGroup = l;
leftMetricsKey = l;
rightKerningGroup = i;
rightMetricsKey = i;
},
{
glyphname = l;
lastChange = "2015-12-01 10:14:16 +0000";
layers = (
{
anchors = (
{
name = bottom;
position = "{108, 0}";
},
{
name = center;
position = "{140, 370}";
},
{
name = top;
position = "{163, 667}";
},
{
name = topright;
position = "{240, 480}";
}
);
background = {
paths = (
{
closed = 1;
nodes = (
"356 483 LINE",
"276 437 OFFCURVE",
"205 307 OFFCURVE",
"184 276 CURVE",
"207 457 OFFCURVE",
"250 689 OFFCURVE",
"229 708 CURVE SMOOTH",
"217 719 OFFCURVE",
"87 747 OFFCURVE",
"67 740 CURVE",
"57 698 LINE",
"99 668 LINE",
"102 619 OFFCURVE",
"97 479 OFFCURVE",
"82 353 CURVE SMOOTH",
"66 217 OFFCURVE",
"39 43 OFFCURVE",
"37 32 CURVE",
"37 20 OFFCURVE",
"114 -5 OFFCURVE",
"162 -5 CURVE SMOOTH",
"177 -5 OFFCURVE",
"179 41 OFFCURVE",
"172 132 CURVE",
"214 236 OFFCURVE",
"294 334 OFFCURVE",
"322 360 CURVE",
"294 255 OFFCURVE",
"274 75 OFFCURVE",
"293 44 CURVE SMOOTH",
"303 28 OFFCURVE",
"355 -2 OFFCURVE",
"409 -2 CURVE",
"441 7 OFFCURVE",
"460 17 OFFCURVE",
"472 25 CURVE",
"468 70 LINE",
"454 65 OFFCURVE",
"433 59 OFFCURVE",
"418 59 CURVE",
"398 124 OFFCURVE",
"439 371 OFFCURVE",
"459 444 CURVE"
);
}
);
};
guideLines = (
{
angle = -18;
position = "{104, 0}";
},
{
angle = -103;
position = "{41, 624}";
}
);
layerId = "71FD7A9F-05F5-4D76-8D4F-547475A05E4C";
name = "Bold Italic";
paths = (
{
closed = 1;
nodes = (
"181 2 OFFCURVE",
"207 11 OFFCURVE",
"233 29 CURVE",
"229 75 LINE",
"211 69 OFFCURVE",
"185 63 OFFCURVE",
"173 63 CURVE",
"167 156 OFFCURVE",
"191 299 OFFCURVE",
"207 431 CURVE SMOOTH",
"218 520 OFFCURVE",
"244 683 OFFCURVE",
"231 706 CURVE SMOOTH",
"222 719 OFFCURVE",
"81 747 OFFCURVE",
"69 740 CURVE",
"58 696 LINE",
"101 665 LINE",
"103 595 OFFCURVE",
"92 442 OFFCURVE",
"77 326 CURVE SMOOTH",
"65 234 OFFCURVE",
"30 47 OFFCURVE",
"54 29 CURVE SMOOTH",
"62 23 OFFCURVE",
"123 -4 OFFCURVE",
"164 -1 CURVE"
);
}
);
width = 260;
},
{
layerId = "11343128-4963-4E5D-BE9C-B74F53B36FA5";
name = Bold;
width = 600;
}
);
leftKerningGroup = l;
rightKerningGroup = i;
rightMetricsKey = i;
unicode = 006C;
},
{
glyphname = l.001;
lastChange = "2015-12-01 10:14:33 +0000";
layers = (
{
anchors = (
{
name = bottom;
position = "{108, 0}";
},
{
name = center;
position = "{140, 370}";
},
{
name = top;
position = "{163, 667}";
},
{
name = topright;
position = "{240, 480}";
}
);
background = {
paths = (
{
closed = 1;
nodes = (
"356 483 LINE",
"276 437 OFFCURVE",
"205 307 OFFCURVE",
"184 276 CURVE",
"207 457 OFFCURVE",
"250 689 OFFCURVE",
"229 708 CURVE SMOOTH",
"217 719 OFFCURVE",
"87 747 OFFCURVE",
"67 740 CURVE",
"57 698 LINE",
"99 668 LINE",
"102 619 OFFCURVE",
"97 479 OFFCURVE",
"82 353 CURVE SMOOTH",
"66 217 OFFCURVE",
"39 43 OFFCURVE",
"37 32 CURVE",
"37 20 OFFCURVE",
"114 -5 OFFCURVE",
"162 -5 CURVE SMOOTH",
"177 -5 OFFCURVE",
"179 41 OFFCURVE",
"172 132 CURVE",
"214 236 OFFCURVE",
"294 334 OFFCURVE",
"322 360 CURVE",
"294 255 OFFCURVE",
"274 75 OFFCURVE",
"293 44 CURVE SMOOTH",
"303 28 OFFCURVE",
"355 -2 OFFCURVE",
"409 -2 CURVE",
"441 7 OFFCURVE",
"460 17 OFFCURVE",
"472 25 CURVE",
"468 70 LINE",
"454 65 OFFCURVE",
"433 59 OFFCURVE",
"418 59 CURVE",
"398 124 OFFCURVE",
"439 371 OFFCURVE",
"459 444 CURVE"
);
}
);
};
guideLines = (
{
angle = -18;
position = "{104, 0}";
},
{
angle = -103;
position = "{41, 624}";
}
);
layerId = "71FD7A9F-05F5-4D76-8D4F-547475A05E4C";
name = "Bold Italic";
paths = (
{
closed = 1;
nodes = (
"181 2 OFFCURVE",
"207 11 OFFCURVE",
"233 29 CURVE",
"229 75 LINE",
"211 69 OFFCURVE",
"185 63 OFFCURVE",
"173 63 CURVE",
"167 156 OFFCURVE",
"191 299 OFFCURVE",
"207 431 CURVE SMOOTH",
"218 520 OFFCURVE",
"244 683 OFFCURVE",
"231 706 CURVE SMOOTH",
"222 719 OFFCURVE",
"81 747 OFFCURVE",
"69 740 CURVE",
"58 696 LINE",
"101 665 LINE",
"103 595 OFFCURVE",
"92 442 OFFCURVE",
"77 326 CURVE SMOOTH",
"65 234 OFFCURVE",
"30 47 OFFCURVE",
"54 29 CURVE SMOOTH",
"62 23 OFFCURVE",
"123 -4 OFFCURVE",
"164 -1 CURVE"
);
}
);
width = 260;
},
{
layerId = "11343128-4963-4E5D-BE9C-B74F53B36FA5";
name = Bold;
width = 600;
}
);
leftKerningGroup = l;
rightKerningGroup = i;
rightMetricsKey = i;
},
{
glyphname = m;
lastChange = "2015-12-01 10:14:16 +0000";
layers = (
{
anchors = (
{
name = bottom;
position = "{327, 0}";
},
{
name = top;
position = "{377, 480}";
}
);
background = {
paths = (
{
closed = 1;
nodes = (
"475 70 LINE",
"461 65 OFFCURVE",
"441 59 OFFCURVE",
"424 59 CURVE",
"400 113 OFFCURVE",
"444 368 OFFCURVE",
"465 444 CURVE",
"365 482 LINE",
"331 482 OFFCURVE",
"234 349 OFFCURVE",
"191 274 CURVE",
"192 283 OFFCURVE",
"210 441 OFFCURVE",
"205 452 CURVE SMOOTH",
"201 461 OFFCURVE",
"68 484 OFFCURVE",
"54 477 CURVE",
"41 434 LINE",
"87 407 LINE",
"78 272 OFFCURVE",
"42 45 OFFCURVE",
"44 34 CURVE SMOOTH",
"46 22 OFFCURVE",
"121 -3 OFFCURVE",
"164 -3 CURVE SMOOTH",
"179 -3 OFFCURVE",
"182 44 OFFCURVE",
"175 133 CURVE",
"238 271 OFFCURVE",
"295 323 OFFCURVE",
"327 359 CURVE",
"310 305 OFFCURVE",
"279 85 OFFCURVE",
"300 42 CURVE SMOOTH",
"305 33 OFFCURVE",
"351 -2 OFFCURVE",
"416 -2 CURVE",
"448 7 OFFCURVE",
"465 16 OFFCURVE",
"479 25 CURVE"
);
}
);
};
guideLines = (
{
angle = -18;
position = "{-100, 0}";
},
{
position = "{1085, 369}";
}
);
layerId = "71FD7A9F-05F5-4D76-8D4F-547475A05E4C";
name = "Bold Italic";
paths = (
{
closed = 1;
nodes = (
"672 74 LINE",
"659 69 OFFCURVE",
"635 62 OFFCURVE",
"621 62 CURVE",
"598 114 OFFCURVE",
"644 372 OFFCURVE",
"662 449 CURVE",
"560 482 LINE",
"518 459 OFFCURVE",
"435 343 OFFCURVE",
"414 307 CURVE",
"423 370 OFFCURVE",
"428 412 OFFCURVE",
"436 452 CURVE",
"345 483 LINE",
"286 431 OFFCURVE",
"202 306 OFFCURVE",
"192 288 CURVE",
"193 297 OFFCURVE",
"212 441 OFFCURVE",
"204 452 CURVE SMOOTH",
"196 463 OFFCURVE",
"66 484 OFFCURVE",
"54 477 CURVE",
"41 434 LINE",
"87 407 LINE",
"77 273 OFFCURVE",
"44 46 OFFCURVE",
"43 34 CURVE SMOOTH",
"42 23 OFFCURVE",
"123 -2 OFFCURVE",
"169 -2 CURVE SMOOTH",
"184 -2 OFFCURVE",
"184 69 OFFCURVE",
"177 159 CURVE",
"227 243 OFFCURVE",
"280 320 OFFCURVE",
"309 350 CURVE",
"310 340 OFFCURVE",
"299 261 OFFCURVE",
"296 239 CURVE",
"271 106 OFFCURVE",
"267 43 OFFCURVE",
"266 31 CURVE SMOOTH",
"266 20 OFFCURVE",
"341 -3 OFFCURVE",
"386 -3 CURVE SMOOTH",
"402 -3 OFFCURVE",
"405 90 OFFCURVE",
"397 180 CURVE",
"450 282 OFFCURVE",
"507 337 OFFCURVE",
"531 359 CURVE",
"517 306 OFFCURVE",
"482 95 OFFCURVE",
"498 53 CURVE SMOOTH",
"510 27 OFFCURVE",
"555 -2 OFFCURVE",
"613 -2 CURVE",
"636 4 OFFCURVE",
"659 16 OFFCURVE",
"676 28 CURVE"
);
}
);
width = 703;
},
{
layerId = "11343128-4963-4E5D-BE9C-B74F53B36FA5";
name = Bold;
width = 600;
}
);
leftKerningGroup = i;
leftMetricsKey = i;
rightKerningGroup = i;
rightMetricsKey = i;
unicode = 006D;
},
{
glyphname = m.001;
lastChange = "2015-12-01 10:14:33 +0000";
layers = (
{
anchors = (
{
name = bottom;
position = "{327, 0}";
},
{
name = top;
position = "{377, 480}";
}
);
background = {
paths = (
{
closed = 1;
nodes = (
"475 70 LINE",
"461 65 OFFCURVE",
"441 59 OFFCURVE",
"424 59 CURVE",
"400 113 OFFCURVE",
"444 368 OFFCURVE",
"465 444 CURVE",
"365 482 LINE",
"331 482 OFFCURVE",
"234 349 OFFCURVE",
"191 274 CURVE",
"192 283 OFFCURVE",
"210 441 OFFCURVE",
"205 452 CURVE SMOOTH",
"201 461 OFFCURVE",
"68 484 OFFCURVE",
"54 477 CURVE",
"41 434 LINE",
"87 407 LINE",
"78 272 OFFCURVE",
"42 45 OFFCURVE",
"44 34 CURVE SMOOTH",
"46 22 OFFCURVE",
"121 -3 OFFCURVE",
"164 -3 CURVE SMOOTH",
"179 -3 OFFCURVE",
"182 44 OFFCURVE",
"175 133 CURVE",
"238 271 OFFCURVE",
"295 323 OFFCURVE",
"327 359 CURVE",
"310 305 OFFCURVE",
"279 85 OFFCURVE",
"300 42 CURVE SMOOTH",
"305 33 OFFCURVE",
"351 -2 OFFCURVE",
"416 -2 CURVE",
"448 7 OFFCURVE",
"465 16 OFFCURVE",
"479 25 CURVE"
);
}
);
};
guideLines = (
{
angle = -18;
position = "{-100, 0}";
},
{
position = "{1085, 369}";
}
);
layerId = "71FD7A9F-05F5-4D76-8D4F-547475A05E4C";
name = "Bold Italic";
paths = (
{
closed = 1;
nodes = (
"672 74 LINE",
"659 69 OFFCURVE",
"635 62 OFFCURVE",
"621 62 CURVE",
"598 114 OFFCURVE",
"644 372 OFFCURVE",
"662 449 CURVE",
"560 482 LINE",
"518 459 OFFCURVE",
"435 343 OFFCURVE",
"414 307 CURVE",
"423 370 OFFCURVE",
"428 412 OFFCURVE",
"436 452 CURVE",
"345 483 LINE",
"286 431 OFFCURVE",
"202 306 OFFCURVE",
"192 288 CURVE",
"193 297 OFFCURVE",
"212 441 OFFCURVE",
"204 452 CURVE SMOOTH",
"196 463 OFFCURVE",
"66 484 OFFCURVE",
"54 477 CURVE",
"41 434 LINE",
"87 407 LINE",
"77 273 OFFCURVE",
"44 46 OFFCURVE",
"43 34 CURVE SMOOTH",
"42 23 OFFCURVE",
"123 -2 OFFCURVE",
"169 -2 CURVE SMOOTH",
"184 -2 OFFCURVE",
"184 69 OFFCURVE",
"177 159 CURVE",
"227 243 OFFCURVE",
"280 320 OFFCURVE",
"309 350 CURVE",
"310 340 OFFCURVE",
"299 261 OFFCURVE",
"296 239 CURVE",
"271 106 OFFCURVE",
"267 43 OFFCURVE",
"266 31 CURVE SMOOTH",
"266 20 OFFCURVE",
"341 -3 OFFCURVE",
"386 -3 CURVE SMOOTH",
"402 -3 OFFCURVE",
"405 90 OFFCURVE",
"397 180 CURVE",
"450 282 OFFCURVE",
"507 337 OFFCURVE",
"531 359 CURVE",
"517 306 OFFCURVE",
"482 95 OFFCURVE",
"498 53 CURVE SMOOTH",
"510 27 OFFCURVE",
"555 -2 OFFCURVE",
"613 -2 CURVE",
"636 4 OFFCURVE",
"659 16 OFFCURVE",
"676 28 CURVE"
);
}
);
width = 703;
},
{
layerId = "11343128-4963-4E5D-BE9C-B74F53B36FA5";
name = Bold;
width = 600;
}
);
leftKerningGroup = i;
leftMetricsKey = i;
rightKerningGroup = i;
rightMetricsKey = i;
},
{
glyphname = n;
lastChange = "2015-12-01 10:14:16 +0000";
layers = (
{
anchors = (
{
name = bottom;
position = "{229, 0}";
},
{
name = top;
position = "{279, 480}";
}
);
background = {
paths = (
{
closed = 1;
nodes = (
"183 166 OFFCURVE",
"220 416 OFFCURVE",
"200 452 CURVE",
"190 463 OFFCURVE",
"84 478 OFFCURVE",
"53 478 CURVE",
"40 434 LINE",
"87 410 LINE",
"78 216 OFFCURVE",
"30 36 OFFCURVE",
"50 26 CURVE",
"143 -5 LINE",
"203 20 OFFCURVE",
"350 248 OFFCURVE",
"382 363 CURVE",
"351 426 LINE",
"317 269 OFFCURVE",
"193 143 OFFCURVE",
"170 114 CURVE"
);
}
);
};
guideLines = (
{
angle = -12;
position = "{349, 29}";
},
{
position = "{874, 369}";
}
);
layerId = "71FD7A9F-05F5-4D76-8D4F-547475A05E4C";
name = "Bold Italic";
paths = (
{
closed = 1;
nodes = (
"484 70 LINE",
"470 65 OFFCURVE",
"450 59 OFFCURVE",
"433 59 CURVE",
"409 113 OFFCURVE",
"453 368 OFFCURVE",
"474 444 CURVE",
"374 482 LINE",
"340 482 OFFCURVE",
"234 349 OFFCURVE",
"191 274 CURVE",
"192 283 OFFCURVE",
"210 441 OFFCURVE",
"205 452 CURVE SMOOTH",
"201 461 OFFCURVE",
"68 484 OFFCURVE",
"54 477 CURVE",
"41 434 LINE",
"87 407 LINE",
"78 272 OFFCURVE",
"42 45 OFFCURVE",
"44 34 CURVE SMOOTH",
"46 22 OFFCURVE",
"121 -3 OFFCURVE",
"164 -3 CURVE SMOOTH",
"179 -3 OFFCURVE",
"182 44 OFFCURVE",
"175 133 CURVE",
"238 271 OFFCURVE",
"304 323 OFFCURVE",
"336 359 CURVE",
"319 305 OFFCURVE",
"288 85 OFFCURVE",
"309 42 CURVE SMOOTH",
"314 33 OFFCURVE",
"360 -2 OFFCURVE",
"425 -2 CURVE",
"457 7 OFFCURVE",
"474 16 OFFCURVE",
"488 25 CURVE"
);
}
);
width = 516;
},
{
layerId = "11343128-4963-4E5D-BE9C-B74F53B36FA5";
name = Bold;
width = 600;
}
);
leftKerningGroup = i;
leftMetricsKey = i;
rightKerningGroup = i;
rightMetricsKey = i;
unicode = 006E;
},
{
glyphname = n.001;
lastChange = "2015-12-01 10:14:33 +0000";
layers = (
{
anchors = (
{
name = bottom;
position = "{229, 0}";
},
{
name = top;
position = "{279, 480}";
}
);
background = {
paths = (
{
closed = 1;
nodes = (
"183 166 OFFCURVE",
"220 416 OFFCURVE",
"200 452 CURVE",
"190 463 OFFCURVE",
"84 478 OFFCURVE",
"53 478 CURVE",
"40 434 LINE",
"87 410 LINE",
"78 216 OFFCURVE",
"30 36 OFFCURVE",
"50 26 CURVE",
"143 -5 LINE",
"203 20 OFFCURVE",
"350 248 OFFCURVE",
"382 363 CURVE",
"351 426 LINE",
"317 269 OFFCURVE",
"193 143 OFFCURVE",
"170 114 CURVE"
);
}
);
};
guideLines = (
{
angle = -12;
position = "{349, 29}";
},
{
position = "{874, 369}";
}
);
layerId = "71FD7A9F-05F5-4D76-8D4F-547475A05E4C";
name = "Bold Italic";
paths = (
{
closed = 1;
nodes = (
"484 70 LINE",
"470 65 OFFCURVE",
"450 59 OFFCURVE",
"433 59 CURVE",
"409 113 OFFCURVE",
"453 368 OFFCURVE",
"474 444 CURVE",
"374 482 LINE",
"340 482 OFFCURVE",
"234 349 OFFCURVE",
"191 274 CURVE",
"192 283 OFFCURVE",
"210 441 OFFCURVE",
"205 452 CURVE SMOOTH",
"201 461 OFFCURVE",
"68 484 OFFCURVE",
"54 477 CURVE",
"41 434 LINE",
"87 407 LINE",
"78 272 OFFCURVE",
"42 45 OFFCURVE",
"44 34 CURVE SMOOTH",
"46 22 OFFCURVE",
"121 -3 OFFCURVE",
"164 -3 CURVE SMOOTH",
"179 -3 OFFCURVE",
"182 44 OFFCURVE",
"175 133 CURVE",
"238 271 OFFCURVE",
"304 323 OFFCURVE",
"336 359 CURVE",
"319 305 OFFCURVE",
"288 85 OFFCURVE",
"309 42 CURVE SMOOTH",
"314 33 OFFCURVE",
"360 -2 OFFCURVE",
"425 -2 CURVE",
"457 7 OFFCURVE",
"474 16 OFFCURVE",
"488 25 CURVE"
);
}
);
width = 516;
},
{
layerId = "11343128-4963-4E5D-BE9C-B74F53B36FA5";
name = Bold;
width = 600;
}
);
leftKerningGroup = i;
leftMetricsKey = i;
rightKerningGroup = i;
rightMetricsKey = i;
},
{
glyphname = eng;
lastChange = "2015-12-01 10:14:16 +0000";
layers = (
{
anchors = (
{
name = bottom;
position = "{229, 0}";
},
{
name = top;
position = "{279, 480}";
}
);
background = {
paths = (
{
closed = 1;
nodes = (
"299 697 LINE",
"353 688 LINE",
"367 658 OFFCURVE",
"361 568 OFFCURVE",
"357 518 CURVE SMOOTH",
"350 433 OFFCURVE",
"346 368 OFFCURVE",
"344 317 CURVE",
"323 350 OFFCURVE",
"303 382 OFFCURVE",
"291 405 CURVE SMOOTH",
"260 462 OFFCURVE",
"168 636 OFFCURVE",
"114 754 CURVE",
"110 749 LINE",
"112 754 LINE",
"8 646 LINE",
"13 618 LINE",
"52 580 OFFCURVE",
"120 458 OFFCURVE",
"150 405 CURVE SMOOTH",
"182 348 OFFCURVE",
"313 98 OFFCURVE",
"337 54 CURVE",
"340 9 OFFCURVE",
"326 -54 OFFCURVE",
"301 -90 CURVE",
"258 -119 OFFCURVE",
"200 -122 OFFCURVE",
"147 -84 CURVE",
"129 -131 LINE",
"160 -170 OFFCURVE",
"260 -229 OFFCURVE",
"344 -179 CURVE SMOOTH",
"433 -126 OFFCURVE",
"431 -24 OFFCURVE",
"435 55 CURVE SMOOTH",
"449 341 OFFCURVE",
"464 569 OFFCURVE",
"483 626 CURVE SMOOTH",
"502 685 OFFCURVE",
"543 696 OFFCURVE",
"569 696 CURVE",
"575 754 LINE",
"309 754 LINE"
);
}
);
};
layerId = "71FD7A9F-05F5-4D76-8D4F-547475A05E4C";
name = "Bold Italic";
paths = (
{
closed = 1;
nodes = (
"374 482 LINE",
"340 482 OFFCURVE",
"234 349 OFFCURVE",
"191 274 CURVE",
"193 292 OFFCURVE",
"210 443 OFFCURVE",
"205 452 CURVE SMOOTH",
"200 461 OFFCURVE",
"68 484 OFFCURVE",
"54 477 CURVE",
"41 434 LINE",
"87 407 LINE",
"78 272 OFFCURVE",
"42 46 OFFCURVE",
"44 34 CURVE SMOOTH",
"46 21 OFFCURVE",
"129 -3 OFFCURVE",
"154 -3 CURVE SMOOTH",
"182 -3 OFFCURVE",
"182 25 OFFCURVE",
"175 133 CURVE",
"238 271 OFFCURVE",
"304 323 OFFCURVE",
"336 359 CURVE",
"330 320 OFFCURVE",
"325 212 OFFCURVE",
"317 82 CURVE SMOOTH",
"313 11 OFFCURVE",
"298 -68 OFFCURVE",
"271 -104 CURVE",
"234 -123 OFFCURVE",
"175 -105 OFFCURVE",
"147 -84 CURVE",
"128 -130 LINE",
"168 -174 OFFCURVE",
"252 -212 OFFCURVE",
"331 -181 CURVE SMOOTH",
"408 -151 OFFCURVE",
"426 -45 OFFCURVE",
"431 27 CURVE SMOOTH",
"450 286 OFFCURVE",
"453 364 OFFCURVE",
"474 444 CURVE"
);
}
);
width = 521;
},
{
layerId = "11343128-4963-4E5D-BE9C-B74F53B36FA5";
name = Bold;
width = 600;
}
);
unicode = 014B;
},
{
glyphname = o;
lastChange = "2015-12-01 10:14:16 +0000";
layers = (
{
anchors = (
{
name = bottom;
position = "{214, 0}";
},
{
name = center;
position = "{239, 240}";
},
{
name = ogonek;
position = "{396, 10}";
},
{
name = top;
position = "{264, 480}";
},
{
name = topright;
position = "{472, 480}";
}
);
layerId = "71FD7A9F-05F5-4D76-8D4F-547475A05E4C";
name = "Bold Italic";
paths = (
{
closed = 1;
nodes = (
"378 460 OFFCURVE",
"326 492 OFFCURVE",
"224 481 CURVE",
"38 442 OFFCURVE",
"-28 179 OFFCURVE",
"72 54 CURVE SMOOTH",
"116 -1 OFFCURVE",
"189 -17 OFFCURVE",
"270 4 CURVE",
"458 69 OFFCURVE",
"492 317 OFFCURVE",
"408 422 CURVE SMOOTH"
);
},
{
closed = 1;
nodes = (
"208 74 OFFCURVE",
"183 100 OFFCURVE",
"164 147 CURVE SMOOTH",
"129 233 OFFCURVE",
"156 365 OFFCURVE",
"232 407 CURVE",
"261 407 OFFCURVE",
"288 384 OFFCURVE",
"309 339 CURVE SMOOTH",
"346 260 OFFCURVE",
"327 125 OFFCURVE",
"246 74 CURVE"
);
}
);
width = 477;
},
{
layerId = "11343128-4963-4E5D-BE9C-B74F53B36FA5";
name = Bold;
width = 600;
}
);
leftKerningGroup = o;
rightKerningGroup = o;
unicode = 006F;
},
{
glyphname = o.001;
lastChange = "2015-12-01 10:14:33 +0000";
layers = (
{
anchors = (
{
name = bottom;
position = "{214, 0}";
},
{
name = center;
position = "{239, 240}";
},
{
name = ogonek;
position = "{396, 10}";
},
{
name = top;
position = "{264, 480}";
},
{
name = topright;
position = "{472, 480}";
}
);
layerId = "71FD7A9F-05F5-4D76-8D4F-547475A05E4C";
name = "Bold Italic";
paths = (
{
closed = 1;
nodes = (
"378 460 OFFCURVE",
"326 492 OFFCURVE",
"224 481 CURVE",
"38 442 OFFCURVE",
"-28 179 OFFCURVE",
"72 54 CURVE SMOOTH",
"116 -1 OFFCURVE",
"189 -17 OFFCURVE",
"270 4 CURVE",
"458 69 OFFCURVE",
"492 317 OFFCURVE",
"408 422 CURVE SMOOTH"
);
},
{
closed = 1;
nodes = (
"208 74 OFFCURVE",
"183 100 OFFCURVE",
"164 147 CURVE SMOOTH",
"129 233 OFFCURVE",
"156 365 OFFCURVE",
"232 407 CURVE",
"261 407 OFFCURVE",
"288 384 OFFCURVE",
"309 339 CURVE SMOOTH",
"346 260 OFFCURVE",
"327 125 OFFCURVE",
"246 74 CURVE"
);
}
);
width = 477;
},
{
layerId = "11343128-4963-4E5D-BE9C-B74F53B36FA5";
name = Bold;
width = 600;
}
);
leftKerningGroup = o;
rightKerningGroup = o;
},
{
glyphname = p;
lastChange = "2015-12-01 10:14:16 +0000";
layers = (
{
anchors = (
{
name = bottom;
position = "{223, 0}";
},
{
name = top;
position = "{273, 480}";
}
);
background = {
paths = (
{
closed = 1;
nodes = (
"159 469 OFFCURVE",
"76 480 OFFCURVE",
"45 477 CURVE",
"35 434 LINE",
"75 409 LINE",
"78 397 OFFCURVE",
"76 359 OFFCURVE",
"75 336 CURVE SMOOTH",
"73 300 OFFCURVE",
"68 191 OFFCURVE",
"64 144 CURVE",
"35 -58 OFFCURVE",
"20 -101 OFFCURVE",
"-1 -129 CURVE",
"-13 -129 OFFCURVE",
"-27 -123 OFFCURVE",
"-51 -109 CURVE",
"-68 -153 LINE",
"-44 -173 OFFCURVE",
"-16 -187 OFFCURVE",
"3 -193 CURVE",
"110 -167 OFFCURVE",
"140 -113 OFFCURVE",
"164 113 CURVE",
"177 247 OFFCURVE",
"201 428 OFFCURVE",
"199 452 CURVE"
);
}
);
};
guideLines = (
{
angle = -18;
position = "{756, -224}";
},
{
angle = 78;
position = "{29, 445}";
}
);
layerId = "71FD7A9F-05F5-4D76-8D4F-547475A05E4C";
name = "Bold Italic";
paths = (
{
closed = 1;
nodes = (
"389 474 OFFCURVE",
"350 483 OFFCURVE",
"315 480 CURVE",
"260 431 OFFCURVE",
"220 378 OFFCURVE",
"189 330 CURVE",
"192 348 OFFCURVE",
"203 447 OFFCURVE",
"198 455 CURVE SMOOTH",
"190 468 OFFCURVE",
"57 485 OFFCURVE",
"46 480 CURVE",
"36 438 LINE",
"76 413 LINE",
"75 355 OFFCURVE",
"58 145 OFFCURVE",
"47 55 CURVE SMOOTH",
"32 -67 OFFCURVE",
"8 -195 OFFCURVE",
"15 -203 CURVE SMOOTH",
"27 -213 OFFCURVE",
"151 -257 OFFCURVE",
"164 -247 CURVE",
"176 -196 LINE",
"137 -169 LINE",
"136 -128 OFFCURVE",
"145 -21 OFFCURVE",
"149 28 CURVE",
"194 4 OFFCURVE",
"242 -6 OFFCURVE",
"292 -4 CURVE",
"464 46 OFFCURVE",
"523 304 OFFCURVE",
"415 441 CURVE SMOOTH"
);
},
{
closed = 1;
nodes = (
"237 67 OFFCURVE",
"194 99 OFFCURVE",
"167 138 CURVE",
"179 227 LINE",
"206 284 OFFCURVE",
"286 364 OFFCURVE",
"291 369 CURVE",
"302 364 OFFCURVE",
"313 354 OFFCURVE",
"322 332 CURVE SMOOTH",
"355 250 OFFCURVE",
"351 113 OFFCURVE",
"273 63 CURVE"
);
}
);
width = 496;
},
{
layerId = "11343128-4963-4E5D-BE9C-B74F53B36FA5";
name = Bold;
width = 600;
}
);
leftKerningGroup = i;
rightKerningGroup = o;
rightMetricsKey = o;
unicode = 0070;
},
{
glyphname = p.001;
lastChange = "2015-12-01 10:14:33 +0000";
layers = (
{
anchors = (
{
name = bottom;
position = "{223, 0}";
},
{
name = top;
position = "{273, 480}";
}
);
background = {
paths = (
{
closed = 1;
nodes = (
"159 469 OFFCURVE",
"76 480 OFFCURVE",
"45 477 CURVE",
"35 434 LINE",
"75 409 LINE",
"78 397 OFFCURVE",
"76 359 OFFCURVE",
"75 336 CURVE SMOOTH",
"73 300 OFFCURVE",
"68 191 OFFCURVE",
"64 144 CURVE",
"35 -58 OFFCURVE",
"20 -101 OFFCURVE",
"-1 -129 CURVE",
"-13 -129 OFFCURVE",
"-27 -123 OFFCURVE",
"-51 -109 CURVE",
"-68 -153 LINE",
"-44 -173 OFFCURVE",
"-16 -187 OFFCURVE",
"3 -193 CURVE",
"110 -167 OFFCURVE",
"140 -113 OFFCURVE",
"164 113 CURVE",
"177 247 OFFCURVE",
"201 428 OFFCURVE",
"199 452 CURVE"
);
}
);
};
guideLines = (
{
angle = -18;
position = "{756, -224}";
},
{
angle = 78;
position = "{29, 445}";
}
);
layerId = "71FD7A9F-05F5-4D76-8D4F-547475A05E4C";
name = "Bold Italic";
paths = (
{
closed = 1;
nodes = (
"389 474 OFFCURVE",
"350 483 OFFCURVE",
"315 480 CURVE",
"260 431 OFFCURVE",
"220 378 OFFCURVE",
"189 330 CURVE",
"192 348 OFFCURVE",
"203 447 OFFCURVE",
"198 455 CURVE SMOOTH",
"190 468 OFFCURVE",
"57 485 OFFCURVE",
"46 480 CURVE",
"36 438 LINE",
"76 413 LINE",
"75 355 OFFCURVE",
"58 145 OFFCURVE",
"47 55 CURVE SMOOTH",
"32 -67 OFFCURVE",
"8 -195 OFFCURVE",
"15 -203 CURVE SMOOTH",
"27 -213 OFFCURVE",
"151 -257 OFFCURVE",
"164 -247 CURVE",
"176 -196 LINE",
"137 -169 LINE",
"136 -128 OFFCURVE",
"145 -21 OFFCURVE",
"149 28 CURVE",
"194 4 OFFCURVE",
"242 -6 OFFCURVE",
"292 -4 CURVE",
"464 46 OFFCURVE",
"523 304 OFFCURVE",
"415 441 CURVE SMOOTH"
);
},
{
closed = 1;
nodes = (
"237 67 OFFCURVE",
"194 99 OFFCURVE",
"167 138 CURVE",
"179 227 LINE",
"206 284 OFFCURVE",
"286 364 OFFCURVE",
"291 369 CURVE",
"302 364 OFFCURVE",
"313 354 OFFCURVE",
"322 332 CURVE SMOOTH",
"355 250 OFFCURVE",
"351 113 OFFCURVE",
"273 63 CURVE"
);
}
);
width = 496;
},
{
layerId = "11343128-4963-4E5D-BE9C-B74F53B36FA5";
name = Bold;
width = 600;
}
);
leftKerningGroup = i;
rightKerningGroup = o;
rightMetricsKey = o;
},
{
glyphname = p.ss01;
lastChange = "2015-12-01 10:14:16 +0000";
layers = (
{
anchors = (
{
name = bottom;
position = "{222, 0}";
},
{
name = top;
position = "{272, 480}";
}
);
background = {
components = (
{
name = q;
transform = "{1, 0, 0, 1, -244, 0}";
}
);
};
guideLines = (
{
angle = -18;
position = "{-49, -199}";
},
{
angle = 78;
position = "{28, 445}";
}
);
layerId = "71FD7A9F-05F5-4D76-8D4F-547475A05E4C";
name = "Bold Italic";
paths = (
{
closed = 1;
nodes = (
"389 474 OFFCURVE",
"350 483 OFFCURVE",
"315 480 CURVE",
"260 431 OFFCURVE",
"220 378 OFFCURVE",
"189 330 CURVE",
"192 348 OFFCURVE",
"203 447 OFFCURVE",
"198 455 CURVE SMOOTH",
"190 468 OFFCURVE",
"57 485 OFFCURVE",
"46 480 CURVE",
"36 438 LINE",
"76 413 LINE",
"75 355 OFFCURVE",
"53 145 OFFCURVE",
"43 55 CURVE SMOOTH",
"28 -82 OFFCURVE",
"5 -214 OFFCURVE",
"13 -221 CURVE SMOOTH",
"25 -232 OFFCURVE",
"116 -256 OFFCURVE",
"138 -251 CURVE",
"138 -199 OFFCURVE",
"144 -86 OFFCURVE",
"149 28 CURVE",
"194 4 OFFCURVE",
"242 -6 OFFCURVE",
"292 -4 CURVE",
"464 46 OFFCURVE",
"523 304 OFFCURVE",
"415 441 CURVE SMOOTH"
);
},
{
closed = 1;
nodes = (
"237 67 OFFCURVE",
"192 99 OFFCURVE",
"165 138 CURVE",
"177 227 LINE",
"204 284 OFFCURVE",
"286 364 OFFCURVE",
"291 369 CURVE",
"302 364 OFFCURVE",
"313 354 OFFCURVE",
"322 332 CURVE SMOOTH",
"355 250 OFFCURVE",
"351 113 OFFCURVE",
"273 63 CURVE"
);
}
);
width = 496;
},
{
layerId = "11343128-4963-4E5D-BE9C-B74F53B36FA5";
name = Bold;
width = 600;
}
);
leftKerningGroup = i;
rightKerningGroup = o;
rightMetricsKey = o;
},
